<?xml version="1.0" standalone="no"?><!DOCTYPE svg PUBLIC "-//W3C//DTD SVG 1.1//EN" "http://www.w3.org/Graphics/SVG/1.1/DTD/svg11.dtd" ><svg xmlns="http://www.w3.org/2000/svg"><metadata></metadata><defs><font id="Founder:FZYouHei-EL-GB18030	Regular" horiz-adv-x="1000"><font-face font-family="FZYouHei-EL-GB18030" font-weight="400" font-stretch="normal" units-per-em="1000" panose-1="2 0 0 0 0 0 0 0 0 0" ascent="887" descent="-256" x-height="0" bbox="-49 -167 982 840" underline-thickness="50" underline-position="-206" unicode-range="U+0022-ff1b" /><missing-glyph horiz-adv-x="1000"  /><glyph glyph-name="" unicode="&quot;" d="M42 703 L103 703 L91 459 L55 459 L42 703 ZM168 703 L230 703 L217 459 L182 459 L168 703 Z" /><glyph glyph-name="" unicode="%" d="M243 5 L199 5 L548 695 L592 695 L243 5 ZM188 379 Q231 379 258 414 Q284 449 285 523 Q283 663 190 664 Q96 665 92 520 Q93 451 121 415 Q148 379 188 379 ZM190 703 Q255 702 289 652 Q323 602 323 519 Q322 431 285 386 Q248 340 186 340 Q129 341 93 388 Q56 435 55 519 Q56 607 91 655 Q126 702 190 703 ZM601 33 Q644 33 671 68 Q698 102 699 177 Q697 317 603 318 Q510 319 505 173 Q506 105 534 69 Q561 33 601 33 ZM603 356 Q668 355 702 305 Q737 256 737 172 Q736 84 700 39 Q664 -5 601 -5 Q543 -4 506 41 Q468 88 467 172 Q468 261 504 308 Q540 356 603 356 Z" /><glyph glyph-name="" unicode="&amp;" d="M235 38 Q364 39 436 145 Q380 200 325 257 Q270 314 227 361 Q150 330 116 284 Q82 238 83 186 Q84 118 125 79 Q165 39 235 38 ZM264 664 Q220 663 192 631 Q164 599 163 548 Q163 518 180 484 Q198 450 238 406 Q317 435 346 471 Q374 507 372 555 Q372 606 344 635 Q315 663 264 664 ZM623 37 L592 -1 Q553 32 467 114 Q429 59 371 27 Q314 -4 230 -5 Q142 -3 90 48 Q38 99 37 179 Q38 327 198 392 Q153 442 136 480 Q119 518 120 552 Q121 615 158 658 Q196 701 264 703 Q337 702 377 661 Q417 620 418 558 Q419 498 384 450 Q349 403 268 374 Q305 333 354 283 Q404 233 459 183 Q500 264 506 372 L552 367 Q548 314 532 258 Q517 202 491 153 Q572 76 623 37 Z" /><glyph glyph-name="" unicode="&#39;" d="M43 703 L103 703 L91 459 L55 459 L43 703 Z" /><glyph glyph-name="" unicode="(" d="M290 -126 L251 -126 Q172 -49 127 69 Q83 189 82 325 Q83 461 127 581 Q172 700 251 776 L290 776 Q201 671 164 561 Q126 451 127 325 Q126 199 164 89 Q201 -20 290 -126 Z" /><glyph glyph-name="" unicode=")" d="M70 -126 L30 -126 Q120 -20 158 88 Q196 198 195 325 Q196 451 158 561 Q120 670 30 776 L70 776 Q150 699 195 580 Q239 461 240 325 Q239 189 195 69 Q150 -49 70 -126 Z" /><glyph glyph-name="" unicode="+" d="M479 372 L479 326 L288 326 L288 119 L247 119 L247 326 L56 326 L56 372 L247 372 L247 577 L288 577 L288 372 L479 372 Z" /><glyph glyph-name="" unicode="," d="M157 95 L157 19 Q157 -42 139 -85 Q121 -127 81 -158 L60 -137 Q95 -105 110 -73 Q125 -40 125 5 L80 5 L80 95 L157 95 Z" /><glyph glyph-name="" unicode="-" d="M429 373 L429 327 L50 327 L50 373 L429 373 Z" /><glyph glyph-name="" unicode="." d="M156 99 L156 9 L78 9 L78 99 L156 99 Z" /><glyph glyph-name="" unicode="/" d="M39 -5 L0 -5 L200 705 L240 705 L39 -5 Z" /><glyph glyph-name="" unicode="0" d="M252 38 Q325 36 367 107 Q409 177 410 349 Q409 518 367 591 Q324 664 247 662 Q178 663 135 589 Q92 515 91 349 Q92 180 135 108 Q178 36 252 38 ZM250 703 Q350 704 404 618 Q458 531 459 349 Q458 171 403 83 Q349 -4 253 -4 Q161 -6 103 77 Q44 160 42 349 Q43 529 100 616 Q156 703 250 703 Z" /><glyph glyph-name="" unicode="1" d="M273 5 L227 5 L227 521 L50 521 L50 556 Q154 557 193 588 Q232 618 239 705 L273 705 L273 5 Z" /><glyph glyph-name="" unicode="2" d="M458 49 L458 5 L43 5 L43 40 Q79 119 127 178 Q174 237 252 299 Q349 376 378 423 Q408 469 405 512 Q405 577 369 617 Q332 657 252 658 Q200 658 160 623 Q120 589 99 524 L56 541 Q113 705 266 703 Q358 701 406 649 Q455 597 455 519 Q458 458 423 404 Q389 349 288 270 Q217 214 174 164 Q131 113 98 49 L458 49 Z" /><glyph glyph-name="" unicode="3" d="M39 182 L87 194 Q119 36 247 39 Q330 40 372 85 Q413 130 413 207 Q414 266 374 304 Q334 343 245 344 L186 344 L186 386 L245 386 Q316 387 352 426 Q387 464 387 528 Q386 590 351 625 Q316 659 253 660 Q126 657 103 523 L54 533 Q70 613 118 658 Q167 702 251 703 Q343 702 390 653 Q437 604 437 526 Q432 404 321 368 Q390 351 426 304 Q462 258 462 200 Q461 105 404 50 Q348 -4 253 -5 Q76 -3 39 182 Z" /><glyph glyph-name="" unicode="4" d="M82 221 L340 221 L340 626 L82 221 ZM473 177 L384 177 L384 5 L340 5 L340 177 L28 177 L28 206 L349 703 L384 703 L384 221 L473 221 L473 177 Z" /><glyph glyph-name="" unicode="5" d="M141 651 L114 397 Q176 469 263 468 Q356 466 409 403 Q461 340 462 240 Q461 126 405 61 Q349 -4 255 -5 Q77 -5 39 184 L82 196 Q118 35 248 39 Q327 40 370 93 Q413 146 414 234 Q413 321 371 371 Q328 422 251 423 Q150 426 98 331 L65 337 L102 695 L429 695 L429 651 L141 651 Z" /><glyph glyph-name="" unicode="6" d="M87 253 Q88 155 132 96 Q176 37 256 36 Q335 38 373 91 Q412 144 412 227 Q412 311 374 362 Q336 414 262 415 Q180 413 134 366 Q88 319 87 253 ZM449 551 L407 535 Q388 602 351 632 Q314 662 263 661 Q179 662 131 586 Q84 510 83 340 Q142 456 272 458 Q358 456 409 393 Q461 329 462 232 Q461 129 407 62 Q353 -3 261 -5 Q39 -7 38 326 Q40 707 268 703 Q339 702 387 659 Q434 617 449 551 Z" /><glyph glyph-name="" unicode="7" d="M456 695 L456 664 Q346 496 282 329 Q217 162 202 5 L150 5 Q185 304 397 651 L44 651 L44 695 L456 695 Z" /><glyph glyph-name="" unicode="8" d="M251 346 Q169 344 129 300 Q88 255 88 190 Q89 117 133 76 Q177 36 253 35 Q332 36 375 77 Q417 118 418 184 Q417 256 374 301 Q330 345 251 346 ZM252 663 Q190 662 152 624 Q115 586 114 524 Q115 457 152 421 Q188 384 252 384 Q320 385 354 424 Q389 462 389 523 Q388 588 352 625 Q315 662 252 663 ZM165 366 Q60 421 64 520 Q65 598 113 649 Q162 701 252 703 Q341 701 390 648 Q439 595 440 518 Q439 460 412 422 Q385 384 342 366 Q400 348 433 299 Q465 250 466 184 Q466 99 411 47 Q356 -4 252 -5 Q150 -4 94 49 Q39 102 38 190 Q39 249 72 299 Q105 349 165 366 Z" /><glyph glyph-name="" unicode="9" d="M412 445 Q411 543 367 602 Q322 661 243 662 Q164 660 125 608 Q86 556 86 473 Q86 389 124 337 Q162 286 236 284 Q319 286 365 333 Q411 380 412 445 ZM50 149 L94 165 Q129 33 235 37 Q318 36 366 113 Q413 190 414 360 Q356 242 225 242 Q140 244 89 307 Q38 370 37 467 Q38 571 91 637 Q145 702 238 704 Q459 707 460 373 Q458 -8 230 -5 Q158 -3 111 39 Q64 83 50 149 Z" /><glyph glyph-name="" unicode=":" d="M156 500 L156 410 L78 410 L78 500 L156 500 ZM156 112 L156 22 L78 22 L78 112 L156 112 Z" /><glyph glyph-name="" unicode=";" d="M157 500 L157 410 L79 410 L79 500 L157 500 ZM157 109 L157 34 Q159 -85 80 -142 L60 -122 Q94 -91 110 -58 Q125 -26 125 20 L79 20 L79 109 L157 109 Z" /><glyph glyph-name="" unicode="&lt;" d="M483 599 L92 351 L483 100 L483 41 L52 327 L52 373 L483 656 L483 599 Z" /><glyph glyph-name="" unicode="=" d="M470 268 L470 223 L50 223 L50 268 L470 268 ZM470 477 L470 431 L50 431 L50 477 L470 477 Z" /><glyph glyph-name="" unicode="&gt;" d="M440 351 L49 599 L49 656 L478 373 L478 327 L49 41 L49 100 L440 351 Z" /><glyph glyph-name="" unicode="@" d="M455 467 Q377 466 330 405 Q282 343 281 235 Q282 154 311 117 Q341 80 394 81 Q450 82 496 131 Q542 180 557 263 Q563 297 565 329 Q571 385 542 425 Q512 465 455 467 ZM586 502 L632 502 Q631 498 623 437 Q615 377 606 307 Q597 237 593 205 Q583 124 597 102 Q611 79 647 82 Q710 84 753 151 Q795 217 797 323 Q795 484 704 574 Q613 664 455 665 Q355 664 273 614 Q191 564 142 474 Q92 384 91 264 Q94 79 194 -20 Q294 -119 458 -120 Q648 -118 763 -2 L784 -31 Q707 -103 630 -134 Q554 -164 452 -163 Q264 -162 155 -52 Q45 58 43 263 Q46 456 157 579 Q269 702 458 706 Q644 703 744 599 Q843 494 844 327 Q842 204 786 124 Q729 44 635 41 Q593 40 567 70 Q540 100 549 172 L548 172 Q530 107 485 72 Q440 37 378 37 Q314 37 273 87 Q232 137 231 242 Q233 357 292 433 Q352 509 452 512 Q498 512 531 488 Q563 465 573 419 L577 419 Q577 421 579 441 Q582 461 584 481 Q586 500 586 502 Z" /><glyph glyph-name="" unicode="a" d="M156 276 L439 276 L297 638 L156 276 ZM544 5 L457 231 L138 231 L51 5 L0 5 L270 695 L322 695 L596 5 L544 5 Z" /><glyph glyph-name="" unicode="b" d="M307 343 L112 343 L112 52 L320 52 Q410 52 451 92 Q493 131 492 206 Q493 259 448 300 Q404 341 307 343 ZM300 650 L112 650 L112 388 L299 388 Q390 390 428 430 Q465 469 464 528 Q465 578 427 613 Q388 648 300 650 ZM330 5 L65 5 L65 695 L312 695 Q403 693 457 647 Q512 600 513 529 Q513 467 481 425 Q449 383 378 370 L378 368 Q464 351 503 304 Q543 258 542 195 Q542 110 490 58 Q438 6 330 5 Z" /><glyph glyph-name="" unicode="c" d="M554 231 L606 216 Q554 -8 331 -5 Q208 -4 128 87 Q48 179 45 343 Q47 505 125 604 Q203 702 339 705 Q432 704 498 657 Q564 609 593 522 L541 504 Q520 572 468 615 Q415 659 334 660 Q231 658 165 574 Q99 490 97 350 Q100 202 166 122 Q232 41 328 40 Q421 39 477 85 Q532 131 554 231 Z" /><glyph glyph-name="" unicode="d" d="M295 649 L116 649 L116 50 L292 50 Q543 46 545 350 Q544 493 478 571 Q412 648 295 649 ZM292 5 L67 5 L67 695 L298 695 Q435 694 513 605 Q591 516 593 352 Q593 171 518 87 Q443 4 292 5 Z" /><glyph glyph-name="" unicode="e" d="M119 51 L544 51 L544 5 L71 5 L71 695 L526 695 L526 649 L119 649 L119 386 L504 386 L504 342 L119 342 L119 51 Z" /><glyph glyph-name="" unicode="f" d="M501 648 L119 648 L119 386 L453 386 L453 342 L119 342 L119 5 L70 5 L70 695 L501 695 L501 648 Z" /><glyph glyph-name="" unicode="g" d="M360 365 L632 365 L632 117 Q599 63 531 30 Q464 -3 363 -4 Q225 -3 138 88 Q51 180 48 348 Q50 515 131 609 Q212 703 350 705 Q469 702 538 645 Q607 587 630 506 L578 492 Q525 662 345 660 Q236 658 168 573 Q101 488 99 346 Q102 202 176 121 Q249 41 357 40 Q436 41 496 67 Q556 93 585 138 L585 320 L360 320 L360 365 Z" /><glyph glyph-name="" unicode="h" d="M519 695 L567 695 L567 5 L519 5 L519 341 L120 341 L120 5 L72 5 L72 695 L120 695 L120 386 L519 386 L519 695 Z" /><glyph glyph-name="" unicode="i" d="M128 5 L78 5 L78 695 L128 695 L128 5 Z" /><glyph glyph-name="" unicode="j" d="M378 695 L378 210 Q379 98 337 46 Q296 -6 202 -5 Q117 -5 76 45 Q34 96 27 195 L75 203 Q78 112 109 76 Q140 40 205 41 Q269 40 300 78 Q330 117 330 205 L330 695 L378 695 Z" /><glyph glyph-name="" unicode="k" d="M524 5 L269 375 L113 215 L113 5 L64 5 L64 695 L113 695 L113 280 L507 695 L575 695 L300 408 L589 5 L524 5 Z" /><glyph glyph-name="" unicode="l" d="M462 51 L462 5 L63 5 L63 695 L112 695 L112 51 L462 51 Z" /><glyph glyph-name="" unicode="m" d="M596 695 L677 695 L677 5 L632 5 L632 655 L392 5 L352 5 L113 655 L113 5 L68 5 L68 695 L150 695 L372 65 L596 695 Z" /><glyph glyph-name="" unicode="n" d="M494 5 L119 656 L119 5 L70 5 L70 695 L147 695 L523 43 L523 695 L572 695 L572 5 L494 5 Z" /><glyph glyph-name="" unicode="o" d="M346 659 Q239 657 168 574 Q97 490 94 348 Q97 201 167 121 Q237 41 341 40 Q459 42 528 123 Q597 205 599 348 Q596 494 525 576 Q453 658 346 659 ZM345 -4 Q207 -2 126 91 Q45 185 43 347 Q45 513 129 608 Q213 703 352 705 Q489 701 570 602 Q650 502 652 348 Q651 186 570 92 Q490 -2 345 -4 Z" /><glyph glyph-name="" unicode="p" d="M324 648 L117 648 L117 334 L324 334 Q415 335 459 378 Q503 421 503 499 Q503 565 456 606 Q410 647 324 648 ZM337 288 L117 288 L117 5 L69 5 L69 695 L342 695 Q437 693 494 636 Q552 579 553 497 Q553 400 498 345 Q444 289 337 288 Z" /><glyph glyph-name="" unicode="q" d="M412 3 L559 -147 L505 -167 L359 -5 L338 -5 Q203 -2 121 92 Q38 186 36 351 Q38 514 120 609 Q202 703 345 705 Q476 702 560 606 Q644 510 647 353 Q646 215 584 123 Q522 30 412 3 ZM336 40 Q452 41 521 122 Q590 203 592 352 Q589 499 516 580 Q444 660 341 661 Q235 660 163 579 Q90 498 87 353 Q89 208 158 125 Q227 42 336 40 Z" /><glyph glyph-name="" unicode="r" d="M120 648 L120 365 L348 365 Q439 364 483 399 Q527 433 527 510 Q531 645 348 648 L120 648 ZM628 5 L562 5 L328 320 L120 320 L120 5 L72 5 L72 695 L365 695 Q471 693 524 641 Q578 588 578 507 Q580 333 383 320 L628 5 Z" /><glyph glyph-name="" unicode="s" d="M529 523 L475 511 Q451 657 291 659 Q201 657 158 621 Q114 584 114 538 Q112 488 154 448 Q197 408 305 388 Q450 362 500 307 Q550 253 546 181 Q546 104 487 51 Q428 -2 311 -4 Q199 -5 131 44 Q64 93 39 209 L92 226 Q111 133 163 88 Q214 43 306 43 Q404 45 450 84 Q495 123 494 181 Q497 232 457 276 Q416 320 293 343 Q174 363 119 413 Q63 462 64 538 Q64 606 119 655 Q174 703 287 705 Q395 704 455 656 Q514 608 529 523 Z" /><glyph glyph-name="" unicode="t" d="M525 650 L298 650 L298 5 L250 5 L250 650 L21 650 L21 695 L525 695 L525 650 Z" /><glyph glyph-name="" unicode="u" d="M525 297 L525 695 L574 695 L574 296 Q579 -4 319 -4 Q200 -5 136 65 Q73 137 72 296 L72 695 L121 695 L121 297 Q121 161 170 101 Q220 42 320 43 Q528 40 525 297 Z" /><glyph glyph-name="" unicode="v" d="M541 695 L594 695 L325 5 L276 5 L9 695 L61 695 L301 51 L303 51 L541 695 Z" /><glyph glyph-name="" unicode="w" d="M778 695 L831 695 L636 5 L589 5 L421 655 L244 5 L197 5 L11 695 L62 695 L222 47 L393 695 L449 695 L613 47 L778 695 Z" /><glyph glyph-name="" unicode="x" d="M331 364 L591 5 L530 5 L303 334 L68 5 L9 5 L271 364 L37 695 L95 695 L303 389 L510 695 L570 695 L331 364 Z" /><glyph glyph-name="" unicode="y" d="M588 695 L316 304 L316 5 L269 5 L269 305 L7 695 L61 695 L293 342 L532 695 L588 695 Z" /><glyph glyph-name="" unicode="z" d="M509 695 L509 662 L82 49 L522 49 L522 5 L18 5 L18 33 L445 649 L56 649 L56 695 L509 695 Z" /><glyph glyph-name="" unicode="\" d="M240 -5 L201 -5 L0 705 L40 705 L240 -5 Z" /><glyph glyph-name="" unicode="_" d="M526 -89 L526 -127 L0 -127 L0 -89 L526 -89 Z" /><glyph glyph-name="" unicode="a" d="M389 193 L389 282 Q377 265 342 252 Q306 239 234 231 Q147 222 115 195 Q82 168 84 125 Q83 84 111 61 Q138 38 204 38 Q297 40 343 85 Q389 130 389 193 ZM95 334 L50 344 Q66 411 115 442 Q165 474 255 474 Q438 475 434 315 L434 111 Q434 71 440 49 Q446 27 461 5 L412 5 Q390 27 388 99 Q366 53 315 25 Q263 -2 184 -3 Q116 -2 77 31 Q38 66 37 126 Q36 182 76 219 Q115 257 204 267 Q302 278 339 290 Q376 302 387 317 Q387 380 355 408 Q323 436 252 435 Q183 436 145 412 Q107 388 95 334 Z" /><glyph glyph-name="" unicode="b" d="M103 283 L103 211 Q104 130 144 82 Q183 34 256 33 Q329 33 369 82 Q409 132 410 232 Q409 331 368 383 Q326 435 254 435 Q203 434 155 393 Q106 352 103 283 ZM103 5 L58 5 L58 695 L103 695 L103 376 Q156 475 264 474 Q351 473 403 412 Q455 350 456 233 Q454 112 402 54 Q351 -3 273 -3 Q216 -4 172 19 Q129 43 103 99 L103 5 Z" /><glyph glyph-name="" unicode="c" d="M428 345 L382 334 Q373 374 338 403 Q303 433 244 434 Q170 433 127 381 Q85 328 84 236 Q86 138 130 87 Q175 36 244 36 Q363 35 388 157 L435 149 Q404 -5 241 -3 Q153 -3 95 57 Q37 118 35 235 Q36 341 92 407 Q147 472 240 474 Q316 473 365 439 Q413 405 428 345 Z" /><glyph glyph-name="" unicode="d" d="M384 211 L384 283 Q381 352 332 393 Q284 434 232 435 Q160 435 119 383 Q78 331 77 232 Q81 32 231 33 Q303 34 343 82 Q383 130 384 211 ZM428 5 L384 5 L384 99 Q358 43 314 19 Q270 -4 213 -3 Q136 -3 84 54 Q32 112 30 233 Q31 350 84 412 Q136 473 223 474 Q330 475 384 376 L384 695 L428 695 L428 5 Z" /><glyph glyph-name="" unicode="e" d="M413 146 L457 133 Q416 -4 251 -3 Q157 -3 96 56 Q35 116 33 232 Q34 346 92 410 Q150 473 250 474 Q354 473 407 409 Q460 345 460 232 L460 221 L83 221 Q84 131 130 84 Q175 36 250 36 Q387 38 413 146 ZM84 259 L409 259 Q409 337 370 384 Q331 432 251 433 Q173 432 129 384 Q85 336 84 259 Z" /><glyph glyph-name="" unicode="f" d="M133 585 L133 464 L238 464 L238 424 L133 424 L133 5 L87 5 L87 424 L3 424 L3 464 L87 464 L87 587 Q86 709 188 705 Q216 705 240 699 Q264 693 275 687 L260 653 Q232 666 203 668 Q164 669 148 649 Q132 630 133 585 Z" /><glyph glyph-name="" unicode="g" d="M391 222 L391 292 Q390 352 350 394 Q310 435 242 437 Q163 436 120 386 Q77 335 76 244 Q78 141 123 98 Q168 56 235 57 Q306 57 348 98 Q390 140 391 222 ZM438 464 L438 71 Q439 -45 388 -98 Q338 -152 224 -151 Q113 -148 49 -84 L79 -56 Q109 -82 147 -98 Q184 -114 223 -114 Q313 -114 352 -72 Q392 -30 391 52 L391 111 Q351 24 223 20 Q134 20 83 76 Q31 131 30 245 Q31 351 85 412 Q139 473 230 474 Q293 473 334 449 Q375 425 391 388 L391 464 L438 464 Z" /><glyph glyph-name="" unicode="h" d="M432 299 L432 5 L386 5 L386 293 Q387 368 357 402 Q328 437 259 436 Q190 436 148 393 Q106 350 104 267 L104 5 L59 5 L59 695 L104 695 L104 372 Q127 420 172 447 Q216 474 269 474 Q357 474 395 430 Q433 386 432 299 Z" /><glyph glyph-name="" unicode="i" d="M104 5 L58 5 L58 464 L104 464 L104 5 ZM104 628 L58 628 L58 695 L104 695 L104 628 Z" /><glyph glyph-name="" unicode="j" d="M116 628 L69 628 L69 695 L116 695 L116 628 ZM116 464 L116 -46 Q116 -155 23 -151 Q6 -151 -13 -146 Q-34 -141 -49 -133 L-36 -103 Q-5 -114 15 -114 Q68 -118 69 -43 L69 464 L116 464 Z" /><glyph glyph-name="" unicode="k" d="M384 5 L203 263 L104 172 L104 5 L59 5 L59 695 L104 695 L104 223 L358 464 L424 464 L233 290 L442 5 L384 5 Z" /><glyph glyph-name="" unicode="l" d="M103 5 L58 5 L58 695 L103 695 L103 5 Z" /><glyph glyph-name="" unicode="m" d="M680 299 L680 5 L634 5 L634 293 Q635 368 610 402 Q584 436 525 436 Q474 436 436 401 Q398 365 391 291 L391 5 L345 5 L345 293 Q345 440 236 437 Q181 438 144 402 Q108 365 103 285 L103 5 L59 5 L59 464 L103 464 L103 375 Q122 421 159 447 Q196 474 242 474 Q364 473 386 363 Q429 473 532 474 Q611 474 646 430 Q681 386 680 299 Z" /><glyph glyph-name="" unicode="n" d="M435 297 L435 5 L390 5 L390 293 Q390 440 261 435 Q201 434 157 396 Q113 358 105 290 L105 5 L61 5 L61 464 L105 464 L105 367 Q129 414 172 443 Q214 473 271 474 Q438 474 435 297 Z" /><glyph glyph-name="" unicode="o" d="M247 436 Q170 435 124 380 Q79 325 78 231 Q80 135 128 84 Q175 32 247 32 Q322 32 366 84 Q411 136 412 233 Q411 328 366 381 Q321 435 247 436 ZM244 -3 Q147 -2 89 60 Q31 123 30 229 Q30 334 85 403 Q140 472 252 474 Q348 473 404 409 Q460 345 461 236 Q461 121 405 59 Q350 -2 244 -3 Z" /><glyph glyph-name="" unicode="p" d="M104 279 L104 210 Q104 127 143 81 Q182 34 257 33 Q407 34 409 231 Q408 431 252 435 Q187 433 146 388 Q105 343 104 279 ZM104 -152 L58 -152 L58 464 L104 464 L104 376 Q128 420 166 447 Q204 473 263 474 Q353 472 404 407 Q455 342 456 232 Q456 126 409 62 Q363 -1 276 -3 Q154 -4 104 93 L104 -152 Z" /><glyph glyph-name="" unicode="q" d="M383 210 L383 282 Q383 345 344 389 Q305 433 239 435 Q162 435 120 382 Q78 330 77 231 Q79 34 230 33 Q304 34 343 81 Q383 127 383 210 ZM428 -152 L383 -152 L383 94 Q335 -4 211 -3 Q124 -1 77 62 Q31 126 30 232 Q31 342 83 407 Q135 472 227 474 Q343 473 383 376 L383 464 L428 464 L428 -152 Z" /><glyph glyph-name="" unicode="r" d="M309 451 L286 409 Q254 428 218 428 Q167 427 135 382 Q103 337 102 254 L102 5 L57 5 L57 464 L102 464 L102 375 L103 375 Q120 422 153 448 Q186 474 226 474 Q253 474 272 469 Q291 463 309 451 Z" /><glyph glyph-name="" unicode="s" d="M391 357 L349 345 Q319 434 217 435 Q154 434 124 412 Q94 389 94 359 Q92 328 124 304 Q155 280 242 261 Q331 241 372 207 Q412 173 411 121 Q411 67 363 32 Q314 -2 224 -3 Q73 -4 29 135 L73 149 Q113 34 224 34 Q293 35 329 60 Q364 84 364 121 Q365 155 334 181 Q304 207 226 223 Q127 244 87 277 Q47 310 48 359 Q48 405 88 439 Q129 472 215 474 Q283 474 330 444 Q377 414 391 357 Z" /><glyph glyph-name="" unicode="t" d="M223 44 L236 14 Q210 -5 167 -3 Q125 -4 104 17 Q83 38 83 95 L83 425 L10 425 L10 464 L83 464 L83 595 L130 618 L130 464 L224 464 L224 425 L130 425 L130 97 Q130 57 142 44 Q155 31 183 32 Q208 34 223 44 Z" /><glyph glyph-name="" unicode="u" d="M385 464 L431 464 L431 5 L385 5 L385 101 Q364 55 320 26 Q276 -2 221 -3 Q134 -3 95 39 Q56 83 57 171 L57 464 L102 464 L102 179 Q101 28 231 32 Q293 33 337 74 Q380 115 385 189 L385 464 Z" /><glyph glyph-name="" unicode="v" d="M384 464 L434 464 L244 5 L194 5 L10 464 L61 464 L219 42 L384 464 Z" /><glyph glyph-name="" unicode="w" d="M589 464 L638 464 L474 5 L426 5 L321 424 L211 5 L162 5 L3 464 L52 464 L185 43 L298 464 L345 464 L452 43 L589 464 Z" /><glyph glyph-name="" unicode="x" d="M371 464 L426 464 L252 238 L438 5 L381 5 L225 216 L62 5 L8 5 L198 238 L26 464 L79 464 L224 260 L371 464 Z" /><glyph glyph-name="" unicode="y" d="M385 464 L437 464 L230 -22 Q196 -104 168 -129 Q140 -154 106 -151 Q63 -150 30 -133 L44 -102 Q72 -112 99 -113 Q122 -115 144 -94 Q166 -73 195 -2 L204 21 L13 464 L66 464 L225 68 L385 464 Z" /><glyph glyph-name="" unicode="z" d="M425 43 L425 5 L17 5 L17 30 L345 424 L38 424 L38 464 L412 464 L412 440 L81 43 L425 43 Z" /><glyph glyph-name="" unicode="{" d="M181 660 L181 432 Q182 351 100 322 Q184 296 181 215 L181 -12 Q180 -45 204 -67 Q227 -89 290 -90 L290 -127 Q209 -126 176 -98 Q142 -70 143 -14 L143 211 Q144 255 120 280 Q96 305 39 308 L39 338 Q96 340 120 365 Q144 390 143 436 L143 663 Q142 719 176 747 Q209 776 290 776 L290 740 Q227 739 204 717 Q180 695 181 660 Z" /><glyph glyph-name="" unicode="}" d="M140 432 L140 660 Q141 695 117 717 Q93 739 30 740 L30 776 Q111 776 145 747 Q179 719 178 663 L178 436 Q177 390 201 365 Q225 340 281 338 L281 308 Q225 305 201 279 Q177 253 178 211 L178 -15 Q179 -70 145 -98 Q111 -126 30 -126 L30 -91 Q93 -89 117 -67 Q141 -45 140 -11 L140 213 Q136 290 221 321 Q136 352 140 432 Z" /><glyph glyph-name="" unicode="~" d="M37 301 L37 354 Q93 401 156 400 Q186 400 213 393 Q240 386 272 371 Q307 355 330 348 Q353 342 373 342 Q442 344 483 390 L483 339 Q441 295 374 295 Q326 293 258 327 Q209 352 154 352 Q90 354 37 301 Z" /><glyph glyph-name="" unicode="°" d="M250 663 Q210 662 183 632 Q155 602 154 562 Q155 522 183 492 Q210 462 250 461 Q290 462 318 492 Q345 522 346 562 Q345 602 318 632 Q290 662 250 663 ZM393 562 Q392 500 352 460 Q312 420 250 419 Q188 420 148 460 Q108 500 107 562 Q108 624 148 664 Q188 704 250 705 Q312 704 352 664 Q392 624 393 562 Z" /><glyph glyph-name="" unicode="·" d="M547 302 L453 302 L453 402 L547 402 L547 302 Z" /><glyph glyph-name="" unicode="×" d="M734 548 L536 350 L734 152 L697 116 L499 313 L301 116 L265 152 L463 350 L265 548 L301 584 L499 386 L697 584 L734 548 Z" /><glyph glyph-name="" unicode="&#x201c;" d="M105 558 L105 642 Q105 712 127 759 Q150 806 198 840 L223 818 Q180 784 162 747 Q144 710 144 659 L199 659 L199 558 L105 558 ZM254 558 L254 642 Q254 712 276 759 Q299 806 347 840 L372 818 Q329 784 311 747 Q293 710 293 659 L348 659 L348 558 L254 558 Z" /><glyph glyph-name="" unicode="&#x201d;" d="M185 833 L185 749 Q185 679 163 632 Q141 584 93 550 L67 573 Q110 607 129 644 Q147 681 147 732 L91 732 L91 833 L185 833 ZM335 833 L335 749 Q335 679 313 632 Q290 584 242 550 L217 573 Q259 607 278 644 Q296 681 296 732 L241 732 L241 833 L335 833 Z" /><glyph glyph-name="" unicode="&#x2026;" d="M219 301 L126 301 L126 402 L219 402 L219 301 ZM546 301 L452 301 L452 402 L546 402 L546 301 ZM873 301 L779 301 L779 402 L873 402 L873 301 Z" /><glyph glyph-name="" unicode="&#x2122;" d="M743 670 L742 670 L626 479 L591 479 L476 670 L475 670 L475 365 L439 365 L439 730 L478 730 L608 512 L609 512 L739 730 L779 730 L779 365 L743 365 L743 670 ZM386 730 L386 697 L243 697 L243 365 L206 365 L206 697 L63 697 L63 730 L386 730 Z" /><glyph glyph-name="" unicode="&#x2460;" d="M469 36 L469 500 L291 500 L291 537 Q370 539 418 561 Q466 583 482 660 L532 660 L532 36 L469 36 ZM59 349 Q60 226 119 126 Q178 26 278 -32 Q377 -91 500 -92 Q623 -91 723 -32 Q823 26 882 126 Q941 226 942 349 Q941 472 882 571 Q823 671 723 730 Q623 789 500 790 Q377 789 278 730 Q178 671 119 571 Q60 472 59 349 ZM22 349 Q24 483 87 590 Q151 698 259 762 Q366 825 500 827 Q634 825 742 762 Q849 698 913 590 Q977 483 978 349 Q977 215 913 107 Q849 0 742 -64 Q634 -127 500 -129 Q366 -127 259 -64 Q151 0 87 107 Q24 215 22 349 Z" /><glyph glyph-name="" unicode="&#x2461;" d="M374 456 L312 456 Q313 549 367 604 Q421 659 514 660 Q609 658 657 608 Q706 558 706 483 Q704 402 657 353 Q610 305 548 272 Q486 240 438 206 Q407 183 385 156 Q363 129 357 93 L700 93 L700 36 L294 36 Q294 81 304 117 Q314 154 342 189 Q409 261 479 299 Q548 337 595 375 Q642 413 644 484 Q643 545 607 574 Q571 603 513 603 Q385 603 374 456 ZM59 349 Q60 226 119 126 Q178 26 278 -32 Q377 -91 500 -92 Q623 -91 723 -32 Q823 26 882 126 Q941 226 942 349 Q941 472 882 571 Q823 671 723 730 Q623 789 500 790 Q377 789 278 730 Q178 671 119 571 Q60 472 59 349 ZM22 349 Q24 483 87 590 Q151 698 259 762 Q366 825 500 827 Q634 825 742 762 Q849 698 913 590 Q977 483 978 349 Q977 215 913 107 Q849 0 742 -64 Q634 -127 500 -129 Q366 -127 259 -64 Q151 0 87 107 Q24 215 22 349 Z" /><glyph glyph-name="" unicode="&#x2462;" d="M454 337 L454 395 Q533 389 578 415 Q622 441 623 504 Q622 555 590 579 Q558 602 500 602 Q382 599 375 482 L313 482 Q313 563 372 618 Q427 660 500 660 Q584 660 634 623 Q684 585 685 507 Q684 413 599 372 Q663 351 686 308 Q708 266 706 222 Q705 131 650 84 Q595 36 499 36 Q409 36 356 81 Q303 127 293 225 L355 225 Q371 93 500 94 Q567 94 605 127 Q643 160 644 221 Q642 292 590 318 Q537 343 454 337 ZM59 349 Q60 226 119 126 Q178 26 278 -32 Q377 -91 500 -92 Q623 -91 723 -32 Q823 26 882 126 Q941 226 942 349 Q941 472 882 571 Q823 671 723 730 Q623 789 500 790 Q377 789 278 730 Q178 671 119 571 Q60 472 59 349 ZM22 349 Q24 483 87 590 Q151 698 259 762 Q366 825 500 827 Q634 825 742 762 Q849 698 913 590 Q977 483 978 349 Q977 215 913 107 Q849 0 742 -64 Q634 -127 500 -129 Q366 -127 259 -64 Q151 0 87 107 Q24 215 22 349 Z" /><glyph glyph-name="" unicode="&#x3001;" d="M134 144 L172 176 L365 -42 L323 -79 L134 144 Z" /><glyph glyph-name="" unicode="&#x3002;" d="M156 50 Q157 10 184 -16 Q210 -42 250 -43 Q290 -42 317 -16 Q343 10 344 50 Q343 90 317 117 Q290 143 250 144 Q210 143 184 117 Q157 90 156 50 ZM121 50 Q122 105 159 142 Q195 179 250 180 Q305 179 342 142 Q378 105 379 50 Q378 -4 342 -41 Q305 -77 250 -78 Q195 -77 159 -41 Q122 -4 121 50 Z" /><glyph glyph-name="" unicode="&#x300a;" d="M668 832 L456 350 L669 -129 L616 -129 L406 351 L614 832 L668 832 ZM806 832 L595 350 L808 -129 L754 -129 L544 351 L753 832 L806 832 Z" /><glyph glyph-name="" unicode="&#x300b;" d="M332 832 L386 832 L594 351 L384 -129 L331 -129 L544 350 L332 832 ZM194 832 L247 832 L456 351 L246 -129 L192 -129 L405 350 L194 832 Z" /><glyph glyph-name="" unicode="&#x4e00;" d="M70 400 L930 400 L930 353 L70 353 L70 400 Z" /><glyph glyph-name="" unicode="&#x4e01;" d="M85 708 L909 708 L909 663 L533 663 L533 24 Q532 -85 421 -83 Q378 -83 334 -76 Q332 -55 318 -28 Q341 -32 367 -35 Q393 -38 414 -38 Q490 -40 486 28 L486 663 L85 663 L85 708 Z" /><glyph glyph-name="" unicode="&#x4e07;" d="M72 705 L927 705 L927 662 L403 662 Q402 618 400 554 Q397 491 394 446 L800 446 L781 67 Q774 -74 642 -71 Q619 -71 593 -69 Q566 -68 546 -66 Q545 -40 532 -17 Q591 -28 640 -28 Q729 -31 736 72 L753 405 L391 405 Q375 236 314 118 Q252 1 123 -90 Q104 -71 74 -66 Q211 26 274 148 Q336 270 347 445 Q350 493 353 550 Q355 608 356 662 L72 662 L72 705 Z" /><glyph glyph-name="" unicode="&#x4e09;" d="M135 700 L866 700 L866 655 L135 655 L135 700 ZM60 11 L940 11 L940 -34 L60 -34 L60 11 ZM204 378 L792 378 L792 333 L204 333 L204 378 Z" /><glyph glyph-name="" unicode="&#x4e0a;" d="M61 -13 L443 -13 L443 793 L490 793 L490 476 L852 476 L852 433 L490 433 L490 -13 L938 -13 L938 -56 L61 -56 L61 -13 Z" /><glyph glyph-name="" unicode="&#x4e0b;" d="M67 714 L933 714 L933 670 L505 670 L505 -96 L458 -96 L458 670 L67 670 L67 714 ZM558 434 L594 463 Q629 440 680 400 Q732 361 781 320 Q831 279 861 251 L837 210 Q782 262 702 325 Q622 389 558 434 Z" /><glyph glyph-name="" unicode="&#x4e0d;" d="M90 713 L921 713 L921 669 L583 669 Q546 570 487 482 L523 482 L523 -96 L476 -96 L476 465 Q398 357 299 273 Q199 189 90 132 Q77 157 46 165 Q215 247 347 383 Q478 520 532 669 L90 669 L90 713 ZM597 403 L633 428 Q676 397 734 348 Q792 300 848 250 Q903 200 938 165 L910 124 Q843 193 755 270 Q668 348 597 403 Z" /><glyph glyph-name="" unicode="&#x4e0e;" d="M267 793 L312 790 L299 647 L891 647 L891 606 L296 606 L280 408 L866 408 L845 56 Q833 -89 691 -86 Q645 -85 597 -78 Q596 -51 583 -30 Q608 -34 639 -38 Q670 -42 693 -42 Q792 -46 800 60 L818 367 L231 367 L267 793 ZM77 180 L710 180 L710 139 L77 139 L77 180 Z" /><glyph glyph-name="" unicode="&#x4e13;" d="M64 457 L363 457 Q389 527 414 606 L137 606 L137 649 L427 649 Q449 730 463 804 L510 785 Q496 722 475 649 L860 649 L860 606 L461 606 Q436 529 410 457 L933 457 L933 414 L393 414 Q359 326 331 276 L794 276 L794 240 Q753 181 701 121 Q649 61 592 7 Q684 -29 742 -59 L725 -102 Q672 -74 589 -39 Q507 -3 424 28 Q341 60 287 77 L311 113 Q358 98 421 75 Q483 52 549 26 Q667 140 738 235 L280 235 L280 275 Q307 318 346 414 L64 414 L64 457 Z" /><glyph glyph-name="" unicode="&#x4e14;" d="M241 736 L758 736 L758 -13 L947 -13 L947 -56 L53 -56 L53 -13 L241 -13 L241 736 ZM288 197 L288 -13 L711 -13 L711 197 L288 197 ZM288 445 L288 238 L711 238 L711 445 L288 445 ZM288 693 L288 486 L711 486 L711 693 L288 693 Z" /><glyph glyph-name="" unicode="&#x4e16;" d="M461 788 L508 788 L508 497 L721 497 L721 788 L768 788 L768 497 L945 497 L945 454 L768 454 L768 144 L461 144 L461 454 L250 454 L250 -13 L897 -13 L897 -56 L203 -56 L203 454 L54 454 L54 497 L203 497 L203 770 L250 770 L250 497 L461 497 L461 788 ZM508 185 L721 185 L721 454 L508 454 L508 185 Z" /><glyph glyph-name="" unicode="&#x4e19;" d="M66 736 L937 736 L937 695 L528 695 Q527 646 525 605 Q524 563 522 538 L848 538 L848 39 Q845 -86 721 -83 Q690 -83 647 -78 Q645 -53 631 -29 Q684 -38 721 -38 Q801 -42 803 36 L803 496 L519 496 Q512 431 498 377 L523 388 Q572 338 635 266 Q698 195 743 137 L712 100 Q591 255 492 358 Q467 276 415 213 Q363 150 280 91 Q263 110 238 119 Q347 192 404 279 Q460 365 473 496 L196 496 L196 -96 L151 -96 L151 538 L476 538 Q481 597 482 695 L66 695 L66 736 Z" /><glyph glyph-name="" unicode="&#x4e1a;" d="M367 787 L412 787 L412 3 L588 3 L588 787 L633 787 L633 3 L943 3 L943 -40 L57 -40 L57 3 L367 3 L367 787 ZM834 566 L877 548 Q846 453 806 365 Q766 277 723 201 Q703 214 677 215 Q727 300 767 390 Q807 480 834 566 ZM113 551 L160 561 Q188 505 229 414 Q269 324 300 242 L259 213 Q224 307 186 396 Q147 485 113 551 Z" /><glyph glyph-name="" unicode="&#x4e24;" d="M142 519 L362 519 Q365 599 365 698 L85 698 L85 739 L917 739 L917 698 L649 698 Q649 648 648 606 Q647 564 645 519 L861 519 L861 24 Q861 -91 758 -88 Q710 -88 676 -83 Q673 -60 659 -37 Q710 -44 753 -44 Q817 -47 816 26 L816 477 L643 477 Q638 407 629 350 Q670 301 714 244 Q758 187 791 139 L757 107 Q728 151 692 201 Q656 252 620 299 Q604 230 578 174 Q553 119 517 69 Q495 80 466 80 Q526 151 558 244 Q590 337 599 477 L404 477 Q400 422 393 375 Q426 346 460 313 Q494 280 524 249 L493 216 Q442 277 385 331 Q369 257 342 198 Q314 139 272 86 Q250 98 223 99 Q284 169 318 258 Q352 348 360 477 L187 477 L187 -93 L142 -93 L142 519 ZM410 698 Q410 653 409 606 Q408 559 406 519 L601 519 Q604 596 604 698 L410 698 Z" /><glyph glyph-name="" unicode="&#x4e25;" d="M169 427 L413 427 L413 703 L159 703 L159 742 L895 742 L895 703 L641 703 L641 427 L925 427 L925 386 L214 386 L214 309 Q214 185 183 88 Q151 -8 85 -87 Q68 -72 40 -67 Q106 5 138 97 Q169 188 169 316 L169 427 ZM456 703 L456 427 L598 427 L598 703 L456 703 ZM807 654 L847 636 Q825 593 798 549 Q770 505 742 470 Q724 481 700 482 Q736 528 763 573 Q791 617 807 654 ZM199 632 L242 646 Q265 617 291 580 Q316 542 338 504 L302 473 Q281 514 252 558 Q223 602 199 632 Z" /><glyph glyph-name="" unicode="&#x4e2a;" d="M496 801 L536 775 Q527 757 520 739 Q589 633 712 532 Q835 432 971 381 Q943 368 924 341 Q794 401 680 498 Q566 595 498 701 Q426 577 315 479 Q205 381 79 323 Q62 341 35 357 Q129 397 220 465 Q312 532 385 618 Q458 704 496 801 ZM476 490 L524 490 L524 -96 L476 -96 L476 490 Z" /><glyph glyph-name="" unicode="&#x4e2d;" d="M476 796 L523 796 L523 600 L876 600 L876 182 L831 182 L831 247 L523 247 L523 -96 L476 -96 L476 247 L168 247 L168 182 L123 182 L123 600 L476 600 L476 796 ZM831 557 L523 557 L523 290 L831 290 L831 557 ZM168 557 L168 290 L476 290 L476 557 L168 557 Z" /><glyph glyph-name="" unicode="&#x4e30;" d="M135 640 L476 640 L476 796 L524 796 L524 640 L866 640 L866 597 L524 597 L524 423 L801 423 L801 379 L524 379 L524 200 L932 200 L932 157 L524 157 L524 -96 L476 -96 L476 157 L69 157 L69 200 L476 200 L476 379 L200 379 L200 423 L476 423 L476 597 L135 597 L135 640 Z" /><glyph glyph-name="" unicode="&#x4e39;" d="M252 742 L769 742 L769 359 L949 359 L949 316 L769 316 L769 15 Q769 -84 661 -85 Q617 -85 588 -81 Q585 -57 572 -31 Q618 -39 654 -40 Q724 -42 721 24 L721 316 L299 316 Q297 179 256 72 Q216 -35 138 -103 Q117 -87 88 -79 Q163 -21 206 78 Q249 179 252 316 L51 316 L51 359 L252 359 L252 742 ZM299 699 L299 359 L721 359 L721 699 L299 699 ZM411 596 L448 619 Q481 588 524 543 Q566 497 593 461 L565 426 Q531 471 490 517 Q448 563 411 596 Z" /><glyph glyph-name="" unicode="&#x4e3a;" d="M126 534 L438 534 Q452 649 457 796 L503 790 Q499 720 495 653 Q490 587 483 534 L871 534 L847 73 Q836 -70 692 -69 Q645 -68 603 -63 Q601 -36 585 -13 Q609 -16 638 -19 Q667 -22 692 -22 Q798 -24 803 80 L824 491 L477 491 Q419 90 116 -91 Q96 -71 70 -64 Q230 31 318 170 Q405 308 432 491 L126 491 L126 534 ZM514 333 L552 354 Q586 317 625 266 Q664 214 688 176 L655 141 Q627 188 587 243 Q547 297 514 333 ZM199 719 L233 744 Q269 715 305 677 Q341 640 365 609 L338 574 Q313 606 275 646 Q236 686 199 719 Z" /><glyph glyph-name="" unicode="&#x4e3b;" d="M172 310 L476 310 L476 559 L112 559 L112 602 L887 602 L887 559 L524 559 L524 310 L828 310 L828 267 L524 267 L524 -2 L931 -2 L931 -45 L67 -45 L67 -2 L476 -2 L476 267 L172 267 L172 310 ZM378 776 L419 801 Q457 774 507 731 Q558 689 588 655 L561 617 Q523 657 470 703 Q417 748 378 776 Z" /><glyph glyph-name="" unicode="&#x4e3d;" d="M66 739 L935 739 L935 698 L66 698 L66 739 ZM137 572 L441 572 L441 5 Q445 -88 358 -86 Q334 -86 303 -83 Q301 -60 286 -38 Q325 -44 356 -44 Q399 -47 396 7 L396 531 L182 531 L182 -93 L137 -93 L137 572 ZM214 392 L255 406 Q279 368 311 307 Q342 247 362 203 L326 177 Q304 227 272 289 Q239 352 214 392 ZM551 572 L864 572 L864 2 Q865 -89 783 -86 Q758 -86 727 -81 Q726 -60 712 -38 Q746 -43 779 -44 Q821 -47 819 6 L819 531 L596 531 L596 -93 L551 -93 L551 572 ZM633 389 L674 403 Q699 364 730 304 Q761 243 780 198 L744 172 Q723 220 691 283 Q659 346 633 389 Z" /><glyph glyph-name="" unicode="&#x4e3e;" d="M87 538 L582 538 Q640 596 693 658 Q746 719 782 774 L821 749 Q735 630 643 538 L909 538 L909 497 L626 497 Q674 435 761 373 Q848 310 968 268 Q942 254 922 228 Q820 272 730 340 Q639 408 573 497 L416 497 Q355 406 263 333 Q170 260 70 216 Q54 235 25 248 Q118 281 214 353 Q311 424 366 497 L87 497 L87 538 ZM263 306 L476 306 L476 415 L522 415 L522 306 L735 306 L735 265 L522 265 L522 139 L876 139 L876 98 L522 98 L522 -96 L476 -96 L476 98 L123 98 L123 139 L476 139 L476 265 L263 265 L263 306 ZM167 732 L205 757 Q238 730 278 691 Q318 652 352 615 L324 580 Q288 620 246 661 Q203 701 167 732 ZM403 783 L441 802 Q465 774 496 734 Q526 693 550 657 L517 627 Q491 666 460 709 Q429 751 403 783 Z" /><glyph glyph-name="" unicode="&#x4e49;" d="M796 676 Q728 391 536 191 Q707 39 953 -36 Q923 -53 908 -81 Q670 10 503 159 Q341 8 94 -84 Q81 -62 47 -45 Q302 35 468 191 Q267 386 185 655 L227 678 Q306 417 501 224 Q692 423 751 694 L796 676 ZM402 786 L443 801 Q504 706 559 590 L521 567 Q462 692 402 786 Z" /><glyph glyph-name="" unicode="&#x4e4b;" d="M215 126 Q218 126 223 125 Q319 180 425 255 Q531 329 625 406 Q719 483 779 546 L118 546 L118 589 L852 589 L852 553 Q747 439 589 317 Q432 195 268 98 Q333 42 406 18 Q479 -4 598 -7 Q689 -9 785 -7 Q880 -5 956 1 Q943 -14 937 -25 Q931 -36 928 -53 Q861 -55 769 -55 Q677 -55 604 -53 Q475 -51 396 -25 Q316 0 244 63 Q224 81 215 80 Q206 81 186 58 Q146 8 100 -78 L64 -49 Q119 41 161 94 Q189 127 215 126 ZM363 772 L397 802 Q441 771 489 731 Q536 690 574 650 L545 616 Q504 656 457 697 Q409 738 363 772 Z" /><glyph glyph-name="" unicode="&#x4e50;" d="M497 605 L542 605 L542 370 L883 370 L883 328 L542 328 L542 20 Q545 -91 435 -88 Q396 -87 344 -79 Q343 -56 329 -31 Q355 -36 384 -40 Q412 -44 433 -44 Q501 -47 497 27 L497 328 L161 328 L203 705 Q302 705 419 713 Q536 721 638 733 Q741 745 798 758 L828 717 Q744 702 639 691 Q535 679 431 673 Q327 666 243 665 L210 370 L497 370 L497 605 ZM289 236 L332 217 Q290 146 228 79 Q166 12 109 -31 Q90 -16 66 -9 Q133 41 193 106 Q254 171 289 236 ZM681 215 L722 234 Q749 209 791 165 Q832 121 871 78 Q910 34 930 8 L899 -29 Q857 25 795 95 Q733 165 681 215 Z" /><glyph glyph-name="" unicode="&#x4e5d;" d="M130 578 L401 578 Q403 622 404 680 Q405 738 405 796 L452 791 Q452 743 451 683 Q450 624 448 578 L730 578 L707 34 Q703 -20 764 -20 L840 -21 Q866 -21 881 -8 Q896 4 903 37 Q911 73 917 117 Q936 91 957 82 Q952 50 945 20 Q935 -26 911 -47 Q887 -67 843 -66 L764 -67 Q706 -67 682 -42 Q657 -18 660 36 L681 535 L445 535 Q432 311 348 162 Q264 13 85 -87 Q72 -70 43 -58 Q224 43 305 182 Q385 321 398 535 L130 535 L130 578 Z" /><glyph glyph-name="" unicode="&#x4e5f;" d="M506 796 L551 796 L551 545 L828 613 L819 274 Q817 175 721 175 Q689 176 661 178 Q660 202 648 225 Q689 217 720 217 Q776 215 776 281 L784 560 L551 503 L551 91 L506 91 L506 492 L275 436 L275 58 Q275 26 295 7 Q315 -12 348 -12 L790 -13 Q871 -15 891 69 Q899 101 906 138 Q923 116 945 105 Q939 73 931 46 Q915 -9 882 -33 Q848 -56 790 -55 L345 -56 Q232 -55 230 54 L230 425 L69 386 L54 424 L230 467 L230 725 L275 725 L275 477 L506 534 L506 796 Z" /><glyph glyph-name="" unicode="&#x4e60;" d="M127 698 L859 698 L838 80 Q836 -79 679 -76 Q656 -76 627 -73 Q598 -70 579 -68 Q578 -41 565 -19 Q633 -29 677 -30 Q787 -33 791 85 L811 655 L127 655 L127 698 ZM89 63 Q170 92 285 144 Q399 196 506 250 Q613 304 672 340 L702 306 Q641 269 532 214 Q423 158 310 105 Q197 53 125 25 L89 63 ZM244 539 L280 567 Q308 546 348 511 Q388 476 427 439 Q465 403 488 377 L459 340 Q424 382 360 442 Q296 501 244 539 Z" /><glyph glyph-name="" unicode="&#x4e66;" d="M428 795 L474 795 L474 602 L754 602 L736 318 L897 318 L882 84 Q877 -23 760 -24 Q726 -24 688 -19 Q687 3 676 27 Q718 20 757 19 Q836 19 838 90 L850 276 L474 276 L474 -96 L428 -96 L428 276 L88 276 L88 318 L428 318 L428 561 L151 561 L151 602 L428 602 L428 795 ZM708 561 L474 561 L474 318 L692 318 L708 561 ZM664 739 L700 766 Q726 748 765 717 Q804 685 842 652 Q880 619 902 597 L878 559 Q836 600 773 653 Q710 706 664 739 Z" /><glyph glyph-name="" unicode="&#x4e70;" d="M565 634 L611 628 Q607 496 594 402 Q580 308 555 239 L927 239 L927 198 L538 198 Q489 92 388 20 Q287 -50 132 -96 Q119 -72 90 -59 Q248 -16 345 47 Q442 112 487 198 L74 198 L74 239 L507 239 Q507 241 509 244 Q534 310 548 402 Q562 493 565 634 ZM112 725 L882 725 L882 688 L817 517 Q793 523 770 522 L833 684 L112 684 L112 725 ZM592 112 L625 142 Q688 103 763 48 Q838 -6 895 -54 L870 -95 Q806 -38 730 17 Q653 74 592 112 ZM146 422 L177 455 Q226 430 279 399 Q331 368 371 341 L352 302 Q303 335 250 366 Q196 398 146 422 ZM242 570 L272 600 Q319 572 368 540 Q417 508 455 477 L435 440 Q393 471 339 508 Q285 544 242 570 Z" /><glyph glyph-name="" unicode="&#x4e71;" d="M130 306 L286 306 L286 476 L57 476 L57 518 L286 518 L286 675 Q194 665 107 661 Q99 681 82 700 Q190 704 301 718 Q411 733 483 754 L514 717 Q438 696 331 681 L331 518 L553 518 L553 476 L331 476 L331 306 L487 306 L487 -67 L442 -67 L442 -6 L175 -6 L175 -85 L130 -85 L130 306 ZM175 265 L175 35 L442 35 L442 265 L175 265 ZM633 790 L678 790 L678 39 Q679 -25 751 -22 L825 -23 Q886 -25 902 50 Q905 65 909 86 Q913 108 915 122 Q933 97 953 89 Q948 59 942 31 Q920 -67 828 -66 L748 -67 Q688 -67 660 -42 Q633 -18 633 37 L633 790 Z" /><glyph glyph-name="" unicode="&#x4e86;" d="M115 717 L873 717 L873 677 Q809 621 717 558 Q626 495 549 452 L549 18 Q550 -88 435 -88 Q412 -88 385 -86 Q357 -83 338 -81 Q335 -57 323 -33 Q351 -37 381 -40 Q410 -43 432 -43 Q505 -44 502 20 L502 478 Q577 518 660 573 Q742 628 799 673 L115 673 L115 717 Z" /><glyph glyph-name="" unicode="&#x4e8b;" d="M198 591 L479 591 L479 663 L88 663 L88 704 L479 704 L479 796 L525 796 L525 704 L913 704 L913 663 L525 663 L525 591 L807 591 L807 428 L525 428 L525 356 L837 356 L837 234 L951 234 L951 193 L837 193 L837 35 L794 35 L794 71 L525 71 L525 18 Q526 -93 424 -89 Q380 -88 338 -80 Q336 -59 323 -33 Q346 -38 373 -41 Q400 -45 420 -45 Q481 -49 479 22 L479 71 L150 71 L150 110 L479 110 L479 193 L57 193 L57 234 L479 234 L479 317 L157 317 L157 356 L479 356 L479 428 L198 428 L198 591 ZM525 193 L525 110 L794 110 L794 193 L525 193 ZM794 317 L525 317 L525 234 L794 234 L794 317 ZM764 552 L525 552 L525 468 L764 468 L764 552 ZM241 552 L241 468 L479 468 L479 552 L241 552 Z" /><glyph glyph-name="" unicode="&#x4e8c;" d="M154 667 L845 667 L845 621 L154 621 L154 667 ZM64 44 L936 44 L936 -1 L64 -1 L64 44 Z" /><glyph glyph-name="" unicode="&#x4e8e;" d="M53 403 L484 403 L484 687 L146 687 L146 730 L853 730 L853 687 L531 687 L531 403 L946 403 L946 360 L531 360 L531 26 Q529 -81 424 -82 Q380 -81 332 -73 Q330 -51 316 -24 Q380 -36 418 -36 Q486 -39 484 33 L484 360 L53 360 L53 403 Z" /><glyph glyph-name="" unicode="&#x4e91;" d="M596 203 L634 223 Q661 196 706 148 Q751 100 795 50 Q839 1 864 -31 L839 -71 Q815 -39 782 -2 L257 -24 Q220 -26 182 -36 L160 3 Q191 12 217 42 Q276 112 341 204 Q407 297 458 381 L69 381 L69 423 L930 423 L930 381 L511 381 Q484 335 437 265 Q390 194 340 126 Q290 57 255 17 L750 34 Q709 81 669 126 Q628 170 596 203 ZM197 701 L801 701 L801 660 L197 660 L197 701 Z" /><glyph glyph-name="" unicode="&#x4e92;" d="M59 -13 L657 -13 L680 189 L243 189 L337 677 L109 677 L109 720 L890 720 L890 677 L385 677 L348 487 L763 487 L704 -13 L941 -13 L941 -56 L59 -56 L59 -13 ZM711 446 L340 446 L299 230 L685 230 L711 446 Z" /><glyph glyph-name="" unicode="&#x4e94;" d="M186 398 L393 398 L439 676 L120 676 L120 719 L878 719 L878 676 L487 676 L441 398 L776 398 L776 -13 L943 -13 L943 -56 L58 -56 L58 -13 L326 -13 L386 357 L186 357 L186 398 ZM731 357 L434 357 L373 -13 L731 -13 L731 357 Z" /><glyph glyph-name="" unicode="&#x4e9a;" d="M58 -13 L365 -13 L365 668 L108 668 L108 711 L893 711 L893 668 L635 668 L635 -13 L943 -13 L943 -56 L58 -56 L58 -13 ZM412 668 L412 -13 L588 -13 L588 668 L412 668 ZM819 495 L865 480 Q838 402 802 321 Q766 241 729 180 Q710 190 684 192 Q723 254 761 339 Q799 424 819 495 ZM120 478 L166 487 Q185 454 211 403 Q236 351 261 297 Q286 243 301 204 L264 178 Q231 256 194 334 Q157 412 120 478 Z" /><glyph glyph-name="" unicode="&#x4e9b;" d="M57 300 L151 322 L151 688 L194 688 L194 332 L333 365 L333 792 L377 792 L377 619 L522 619 L522 579 L377 579 L377 374 L511 406 L532 373 L83 263 L57 300 ZM589 794 L632 794 L632 577 Q695 603 759 635 Q822 666 873 699 L907 668 Q785 596 632 538 L632 381 Q631 333 680 334 L799 334 Q835 334 854 347 Q873 360 883 391 Q890 413 899 447 Q914 426 935 416 Q932 405 927 389 Q921 373 918 365 Q895 292 799 293 L679 293 Q587 292 589 380 L589 794 ZM65 -14 L934 -14 L934 -55 L65 -55 L65 -14 ZM181 180 L819 180 L819 139 L181 139 L181 180 Z" /><glyph glyph-name="" unicode="&#x4ea4;" d="M300 361 L336 390 Q399 256 506 160 Q601 261 645 400 L684 372 Q635 233 540 130 Q704 0 949 -38 Q921 -56 907 -87 Q670 -33 507 98 Q366 -33 107 -97 Q89 -72 62 -58 Q202 -26 302 20 Q403 67 473 129 Q368 224 300 361 ZM93 630 L908 630 L908 587 L93 587 L93 630 ZM351 541 L389 518 Q344 458 284 404 Q223 349 157 309 Q140 326 113 339 Q182 377 247 433 Q312 488 351 541 ZM600 516 L636 542 Q693 503 755 455 Q818 406 868 359 L843 317 Q788 368 725 420 Q662 473 600 516 ZM396 773 L435 798 Q469 773 505 742 Q540 711 570 680 L541 643 Q514 673 473 710 Q431 746 396 773 Z" /><glyph glyph-name="" unicode="&#x4ea7;" d="M703 594 L747 573 Q722 531 686 482 Q650 434 618 399 L919 399 L919 356 L190 356 Q195 182 171 77 Q146 -26 84 -99 Q64 -85 36 -81 Q82 -27 107 31 Q132 89 140 175 Q148 261 142 399 L559 399 Q591 430 634 487 Q677 545 703 594 ZM408 774 L451 799 Q486 773 520 741 Q553 708 574 684 L554 665 L914 665 L914 621 L93 621 L93 665 L528 665 Q503 691 468 723 Q434 754 408 774 ZM289 566 L331 584 Q359 556 389 518 Q420 479 440 446 L407 416 Q382 457 350 497 Q318 537 289 566 Z" /><glyph glyph-name="" unicode="&#x4eab;" d="M226 581 L774 581 L774 394 L226 394 L226 581 ZM192 320 L794 320 L794 285 Q699 230 529 178 L529 149 L934 149 L934 110 L529 110 L529 3 Q530 -90 434 -89 Q392 -89 353 -84 Q350 -60 337 -36 Q386 -46 431 -46 Q484 -45 484 7 L484 110 L66 110 L66 149 L484 149 L484 205 Q621 245 698 280 L192 280 L192 320 ZM731 542 L269 542 L269 433 L731 433 L731 542 ZM402 781 L437 809 Q506 763 563 717 L547 693 L906 693 L906 654 L96 654 L96 693 L525 693 Q497 715 464 739 Q431 763 402 781 Z" /><glyph glyph-name="" unicode="&#x4eae;" d="M250 581 L750 581 L750 403 L250 403 L250 581 ZM332 217 L657 217 L657 41 Q656 2 671 -11 Q685 -26 723 -25 L813 -26 Q872 -26 882 31 Q889 62 892 92 Q910 71 931 63 Q927 37 922 17 Q910 -28 887 -47 Q863 -67 816 -66 L719 -67 Q613 -71 614 33 L614 178 L376 178 L376 144 Q379 53 328 -3 Q277 -60 135 -94 Q122 -70 95 -57 Q233 -33 284 15 Q335 64 332 149 L332 217 ZM707 542 L293 542 L293 442 L707 442 L707 542 ZM110 334 L892 334 L892 178 L849 178 L849 295 L153 295 L153 178 L110 178 L110 334 ZM105 689 L527 689 Q502 711 471 737 Q440 763 411 783 L446 807 Q474 788 504 764 Q534 740 557 718 L534 689 L895 689 L895 650 L105 650 L105 689 Z" /><glyph glyph-name="" unicode="&#x4eba;" d="M477 794 L526 789 Q525 679 515 577 Q576 358 698 193 Q820 28 971 -32 Q943 -48 921 -74 Q772 6 662 155 Q552 305 500 484 Q460 296 353 147 Q245 -2 86 -85 Q64 -61 36 -51 Q224 40 335 210 Q445 379 470 591 Q474 639 476 687 Q478 736 477 794 Z" /><glyph glyph-name="" unicode="&#x4ec5;" d="M362 698 L871 698 L871 662 Q826 364 675 170 Q787 38 961 -40 Q931 -55 912 -79 Q751 11 644 132 Q532 2 362 -86 Q341 -67 315 -59 Q485 24 614 171 Q458 374 426 655 L362 655 L362 698 ZM824 655 L471 655 Q505 396 644 209 Q776 380 824 655 ZM293 798 L335 778 Q298 656 245 558 L245 -96 L200 -96 L200 480 Q137 381 82 326 Q61 342 36 345 Q115 426 187 548 Q258 669 293 798 Z" /><glyph glyph-name="" unicode="&#x4ed6;" d="M628 792 L672 792 L672 543 L886 604 L876 266 Q873 175 791 176 Q763 177 733 179 Q730 201 717 221 Q754 216 788 215 Q833 214 835 268 L843 551 L672 503 L672 107 L628 107 L628 491 L464 445 L464 50 Q464 -14 529 -14 L803 -15 Q873 -16 890 39 Q901 71 911 119 Q925 97 948 86 Q940 53 928 18 Q902 -59 807 -55 L527 -56 Q419 -57 421 55 L421 432 L303 400 L285 435 L421 472 L421 732 L464 732 L464 485 L628 531 L628 792 ZM297 799 L338 771 Q300 670 243 569 L243 -95 L198 -95 L198 494 Q137 398 78 346 Q58 363 32 371 Q114 444 187 562 Q260 680 297 799 Z" /><glyph glyph-name="" unicode="&#x4ed8;" d="M750 790 L797 790 L797 567 L955 567 L955 523 L797 523 L797 27 Q798 -89 688 -85 Q663 -85 646 -84 Q630 -83 603 -78 Q599 -54 585 -29 Q617 -36 636 -38 Q656 -40 680 -40 Q753 -42 750 26 L750 523 L350 523 L350 567 L750 567 L750 790 ZM309 792 L351 763 Q311 668 260 587 L260 -96 L213 -96 L213 517 Q141 419 75 369 Q57 384 32 391 Q86 433 140 499 Q194 566 239 643 Q284 720 309 792 ZM416 359 L457 381 Q495 341 539 289 Q583 236 616 189 L577 160 Q541 212 496 268 Q451 324 416 359 Z" /><glyph glyph-name="" unicode="&#x4ee3;" d="M520 788 L569 797 Q576 616 603 452 L917 505 L925 464 L611 411 Q636 276 671 175 Q706 77 755 24 Q804 -29 837 -30 Q859 -31 871 0 Q882 25 889 56 Q897 88 901 116 Q918 91 940 80 Q931 30 915 -17 Q889 -83 842 -81 Q789 -80 729 -19 Q670 41 628 153 Q589 261 563 403 L335 365 L326 405 L556 444 Q530 603 520 788 ZM314 789 L358 762 Q316 653 262 560 L262 -96 L215 -96 L215 484 Q138 372 75 315 Q55 328 31 334 Q113 413 193 537 Q273 661 314 789 ZM672 705 L711 727 Q745 694 783 652 Q821 610 846 573 L814 544 Q783 584 745 629 Q706 673 672 705 Z" /><glyph glyph-name="" unicode="&#x4ee4;" d="M298 88 L330 124 Q412 79 502 25 Q574 80 637 145 Q700 210 748 275 L188 275 L188 318 L809 318 L809 281 Q761 211 691 136 Q620 60 542 0 Q588 -28 633 -61 L613 -104 Q524 -42 447 4 Q370 50 298 88 ZM491 803 L531 780 L517 751 Q585 651 707 558 Q829 465 968 419 Q936 400 921 374 Q792 429 677 518 Q563 607 493 711 Q425 603 315 511 Q205 418 75 362 Q60 381 34 393 Q191 464 311 569 Q430 674 491 803 ZM395 508 L433 530 Q469 501 508 463 Q547 424 577 390 L550 354 Q519 391 476 434 Q433 477 395 508 Z" /><glyph glyph-name="" unicode="&#x4ee5;" d="M784 770 L833 765 Q826 567 804 434 Q783 314 733 218 Q787 167 854 95 Q922 22 966 -31 L936 -70 Q886 -7 827 59 Q768 125 713 180 Q607 3 383 -93 Q371 -73 340 -60 Q513 6 617 128 Q722 250 757 436 Q768 496 775 584 Q783 672 784 770 ZM151 725 L198 725 L198 47 L437 232 L470 205 L185 -18 Q168 -31 150 -50 L125 -11 Q152 9 151 60 L151 725 ZM339 744 L378 767 Q404 743 442 705 Q480 667 516 628 Q553 588 575 561 L547 522 Q501 578 446 636 Q392 694 339 744 Z" /><glyph glyph-name="" unicode="&#x4eea;" d="M366 638 L407 661 Q473 399 628 210 Q775 405 816 690 L862 675 Q835 519 787 395 Q739 271 662 173 Q791 33 976 -45 Q947 -60 932 -87 Q756 3 630 134 Q512 1 318 -96 Q301 -74 275 -63 Q477 30 597 171 Q435 363 366 638 ZM281 784 L325 757 Q288 651 238 559 L238 -95 L193 -95 L193 483 Q132 390 76 338 Q56 353 28 357 Q81 401 133 476 Q186 551 226 633 Q266 716 281 784 ZM523 784 L564 798 Q620 702 672 584 L633 562 Q576 693 523 784 Z" /><glyph glyph-name="" unicode="&#x4eec;" d="M620 698 L900 698 L900 21 Q898 -87 788 -87 Q752 -87 710 -82 Q706 -59 693 -35 Q736 -42 784 -43 Q856 -44 855 27 L855 657 L620 657 L620 698 ZM292 795 L333 770 Q297 676 239 579 L239 -96 L194 -96 L194 508 Q138 425 84 372 Q64 385 37 391 Q112 463 184 575 Q256 688 292 795 ZM389 590 L434 590 L434 -94 L389 -94 L389 590 ZM403 753 L442 776 Q473 745 507 708 Q541 671 571 635 L538 602 Q512 636 473 679 Q435 723 403 753 Z" /><glyph glyph-name="" unicode="&#x4ef6;" d="M310 280 L631 280 L631 531 L440 531 Q410 449 360 373 Q343 384 316 388 Q368 466 398 544 Q429 622 444 715 L487 703 Q474 635 455 572 L631 572 L631 794 L678 794 L678 572 L907 572 L907 531 L678 531 L678 280 L951 280 L951 239 L678 239 L678 -96 L631 -96 L631 239 L310 239 L310 280 ZM256 803 L300 780 Q275 683 234 585 L234 -96 L189 -96 L189 488 Q145 404 94 340 Q77 357 45 360 Q119 441 176 563 Q232 685 256 803 Z" /><glyph glyph-name="" unicode="&#x4ef7;" d="M309 793 L351 764 Q303 652 241 559 L241 -95 L196 -95 L196 496 Q132 414 75 370 Q57 385 32 392 Q86 433 140 500 Q194 567 239 644 Q284 721 309 793 ZM617 797 L657 775 Q651 758 644 740 Q702 634 783 557 Q865 480 967 441 Q942 429 924 403 Q726 508 623 696 Q575 600 499 518 Q423 437 336 385 Q320 403 291 412 Q410 480 496 580 Q582 680 617 797 ZM470 416 L515 416 L515 247 Q514 119 469 36 Q424 -46 341 -93 Q329 -79 298 -68 Q378 -27 424 47 Q469 122 470 244 L470 416 ZM733 416 L778 416 L778 -88 L733 -88 L733 416 Z" /><glyph glyph-name="" unicode="&#x4efb;" d="M363 -2 L613 -2 L613 335 L324 335 L324 376 L613 376 L613 663 Q506 649 405 644 Q397 665 379 684 Q459 688 547 697 Q635 706 715 720 Q794 733 846 750 L878 712 Q793 688 660 668 L660 376 L951 376 L951 335 L660 335 L660 -2 L914 -2 L914 -43 L363 -43 L363 -2 ZM286 798 L328 773 Q292 679 246 593 L246 -96 L201 -96 L201 517 Q142 425 74 354 Q53 369 29 373 Q117 466 184 578 Q251 689 286 798 Z" /><glyph glyph-name="" unicode="&#x4f11;" d="M585 792 L628 792 L628 563 L906 563 L906 523 L642 523 Q734 245 954 92 Q921 80 907 58 Q705 217 628 462 L628 -97 L585 -97 L585 465 Q547 347 476 240 Q405 132 306 47 Q289 65 262 73 Q373 167 451 283 Q529 398 568 523 L322 523 L322 563 L585 563 L585 792 ZM297 795 L335 770 Q297 669 237 567 L237 -95 L194 -95 L194 496 Q132 400 66 335 Q50 350 23 359 Q81 412 135 488 Q189 564 232 645 Q274 726 297 795 Z" /><glyph glyph-name="" unicode="&#x4f17;" d="M495 801 L536 781 Q528 762 520 743 Q589 642 699 562 Q810 482 952 441 Q921 423 908 399 Q784 443 677 523 Q569 602 500 706 Q432 592 325 510 Q218 428 106 389 Q91 409 64 423 Q157 450 245 508 Q333 565 400 641 Q466 717 495 801 ZM645 449 L689 443 Q688 372 683 312 Q714 186 793 87 Q871 -11 963 -53 Q935 -65 915 -85 Q856 -54 784 29 Q711 113 671 225 Q648 118 598 40 Q548 -36 471 -91 Q451 -76 422 -69 Q505 -22 565 69 Q624 161 638 294 Q645 364 645 449 ZM292 442 L336 436 Q332 352 320 276 Q363 235 410 184 Q457 133 494 86 L465 56 Q430 100 388 147 Q345 195 310 229 Q280 116 219 36 Q158 -44 91 -86 Q72 -70 43 -64 Q229 48 278 277 Q290 351 292 442 Z" /><glyph glyph-name="" unicode="&#x4f18;" d="M555 793 L600 793 L600 522 L926 522 L926 481 L600 481 Q598 307 537 167 Q475 27 335 -93 Q316 -76 286 -70 Q424 41 488 174 Q552 306 555 481 L327 481 L327 522 L555 522 L555 793 ZM297 797 L338 772 Q301 671 251 581 L251 -96 L206 -96 L206 507 Q150 420 84 353 Q65 368 39 372 Q128 465 195 577 Q262 688 297 797 ZM640 430 L685 430 L685 29 Q684 -27 742 -24 L818 -25 Q849 -25 867 -10 Q884 4 893 43 Q901 78 905 115 Q923 91 943 84 Q942 73 939 56 Q936 40 933 28 Q909 -72 823 -67 L741 -68 Q639 -70 640 29 L640 430 ZM693 718 L731 740 Q765 710 800 675 Q834 640 864 606 L834 570 Q772 646 693 718 Z" /><glyph glyph-name="" unicode="&#x4f1a;" d="M588 128 L626 149 Q671 108 734 45 Q796 -18 836 -66 L805 -99 Q780 -67 750 -34 L263 -65 Q228 -66 194 -73 L176 -33 Q214 -22 254 14 Q290 47 343 106 Q396 166 436 221 L114 221 L114 262 L879 262 L879 221 L473 221 L485 208 Q445 154 384 87 Q323 21 276 -21 L714 3 Q649 71 588 128 ZM500 808 L536 781 Q529 767 521 753 Q610 647 728 565 Q845 483 973 450 Q944 433 930 408 Q810 449 695 533 Q581 617 499 719 Q428 621 312 530 Q197 439 77 390 Q63 410 34 424 Q129 457 224 521 Q318 584 392 660 Q466 737 500 808 ZM275 445 L723 445 L723 404 L275 404 L275 445 Z" /><glyph glyph-name="" unicode="&#x4f20;" d="M373 648 L575 648 Q593 720 605 795 L649 781 Q637 715 622 648 L900 648 L900 607 L611 607 Q589 530 566 458 L943 458 L943 417 L551 417 Q523 340 493 276 L856 276 L856 240 Q801 134 682 11 Q748 -26 801 -63 L782 -104 Q712 -56 630 -8 Q548 39 470 78 L500 110 Q572 73 645 32 Q694 80 735 135 Q777 189 804 234 L443 234 L443 273 Q476 340 505 417 L320 417 L320 458 L520 458 Q545 529 566 607 L373 607 L373 648 ZM299 799 L341 776 Q303 654 249 556 L249 -96 L204 -96 L204 479 Q141 384 87 330 Q69 345 41 348 Q120 429 192 550 Q264 670 299 799 Z" /><glyph glyph-name="" unicode="&#x4f26;" d="M803 378 L840 347 Q774 301 689 258 Q604 214 525 184 L525 46 Q528 -25 600 -22 L745 -23 Q815 -23 831 33 Q846 81 851 123 Q869 103 890 92 Q885 61 872 19 Q858 -27 830 -47 Q802 -67 755 -66 L601 -67 Q479 -69 480 39 L480 431 L525 431 L525 228 Q599 258 675 299 Q750 339 803 378 ZM306 794 L348 765 Q304 661 247 573 L247 -93 L202 -93 L202 508 Q134 418 72 371 Q54 386 29 393 Q83 434 137 501 Q191 568 236 645 Q281 722 306 794 ZM623 797 L666 773 Q659 753 650 732 Q706 627 793 549 Q880 471 971 437 Q941 424 923 399 Q835 447 759 520 Q683 593 627 686 Q577 592 504 513 Q431 433 356 387 Q340 406 312 415 Q415 477 501 578 Q587 678 623 797 Z" /><glyph glyph-name="" unicode="&#x4f38;" d="M619 795 L664 795 L664 642 L892 642 L892 94 L849 94 L849 155 L664 155 L664 -96 L619 -96 L619 155 L435 155 L435 94 L392 94 L392 642 L619 642 L619 795 ZM292 798 L333 770 Q302 678 249 583 L249 -95 L204 -95 L204 509 Q139 408 75 351 Q57 371 29 375 Q84 423 138 495 Q191 567 232 647 Q273 727 292 798 ZM664 379 L664 194 L849 194 L849 379 L664 379 ZM849 603 L664 603 L664 419 L849 419 L849 603 ZM435 379 L435 194 L619 194 L619 379 L435 379 ZM435 603 L435 419 L619 419 L619 603 L435 603 Z" /><glyph glyph-name="" unicode="&#x4f46;" d="M403 720 L860 720 L860 175 L403 175 L403 720 ZM448 216 L815 216 L815 428 L448 428 L448 216 ZM815 679 L448 679 L448 468 L815 468 L815 679 ZM288 798 L331 778 Q300 682 239 570 L239 -96 L194 -96 L194 493 Q137 403 77 339 Q60 357 30 359 Q120 452 188 572 Q256 692 288 798 ZM311 -2 L952 -2 L952 -43 L311 -43 L311 -2 Z" /><glyph glyph-name="" unicode="&#x4f4d;" d="M290 796 L331 773 Q301 682 247 581 L247 -96 L202 -96 L202 504 Q141 407 82 354 Q63 373 36 377 Q90 425 141 497 Q191 569 231 648 Q270 727 290 796 ZM770 464 L817 446 Q756 216 672 -6 L945 -7 L945 -48 L309 -48 L309 -7 L623 -7 Q712 222 770 464 ZM352 587 L913 587 L913 546 L352 546 L352 587 ZM404 435 L451 442 Q519 278 564 107 L522 88 Q475 266 404 435 ZM535 787 L578 799 Q640 720 684 631 L648 603 Q600 698 535 787 Z" /><glyph glyph-name="" unicode="&#x4f4e;" d="M857 751 L885 712 Q793 693 685 679 Q687 532 699 420 L925 420 L925 378 L703 378 Q718 253 746 164 Q774 74 815 12 Q841 -29 866 -28 Q886 -30 899 16 Q908 49 916 93 Q934 70 953 62 Q945 21 936 -8 Q915 -76 867 -75 Q820 -76 784 -22 Q690 113 658 378 L440 378 L440 23 L604 137 L635 108 L447 -24 Q423 -41 400 -67 L375 -35 Q396 -11 395 33 L395 701 Q515 702 642 716 Q769 730 857 751 ZM297 796 L338 768 Q300 667 243 568 L243 -96 L198 -96 L198 496 Q140 410 84 360 Q64 374 38 379 Q211 546 297 796 ZM440 662 L440 420 L653 420 Q643 532 641 674 Q532 664 440 662 ZM567 17 L601 39 Q663 -11 716 -67 L692 -104 Q629 -33 567 17 Z" /><glyph glyph-name="" unicode="&#x4f4f;" d="M391 308 L614 308 L614 559 L356 559 L356 600 L918 600 L918 559 L659 559 L659 308 L883 308 L883 267 L659 267 L659 -4 L951 -4 L951 -45 L324 -45 L324 -4 L614 -4 L614 267 L391 267 L391 308 ZM303 796 L346 767 Q310 675 255 580 L255 -95 L210 -95 L210 509 Q141 407 77 351 Q57 368 31 376 Q86 423 142 495 Q197 566 240 646 Q283 726 303 796 ZM529 774 L572 796 Q605 767 642 727 Q679 687 704 652 L674 617 Q642 659 603 702 Q564 745 529 774 Z" /><glyph glyph-name="" unicode="&#x4f53;" d="M395 129 L579 129 L579 537 Q508 248 282 52 Q265 69 237 77 Q466 274 550 546 L317 546 L317 587 L579 587 L579 793 L624 793 L624 587 L903 587 L903 546 L653 546 Q699 404 776 290 Q853 176 970 94 Q938 79 923 60 Q809 149 735 271 Q662 393 624 538 L624 129 L810 129 L810 89 L624 89 L624 -96 L579 -96 L579 89 L395 89 L395 129 ZM298 794 L336 768 Q297 667 236 571 L236 -96 L191 -96 L191 505 Q128 418 61 360 Q45 374 19 384 Q108 461 184 575 Q261 689 298 794 Z" /><glyph glyph-name="" unicode="&#x4f55;" d="M378 502 L664 502 L664 158 L378 158 L378 502 ZM339 697 L957 697 L957 656 L846 656 L846 31 Q846 -83 730 -83 Q705 -83 682 -81 Q658 -79 642 -76 Q642 -54 630 -29 Q671 -39 728 -39 Q801 -42 801 42 L801 656 L339 656 L339 697 ZM621 463 L422 463 L422 197 L621 197 L621 463 ZM276 797 L319 775 Q284 674 239 584 L239 -98 L194 -98 L194 501 Q133 396 71 333 Q51 348 27 354 Q200 540 276 797 Z" /><glyph glyph-name="" unicode="&#x4f59;" d="M112 290 L492 290 L492 435 L260 435 L260 476 L752 476 L752 435 L537 435 L537 290 L899 290 L899 249 L537 249 L537 3 Q538 -88 445 -86 Q412 -86 373 -81 Q372 -60 357 -35 Q408 -43 443 -43 Q493 -45 492 8 L492 249 L112 249 L112 290 ZM505 800 L544 777 Q535 761 525 747 Q614 645 726 575 Q838 505 967 470 Q944 456 929 430 Q804 471 693 543 Q582 614 500 712 Q429 621 321 545 Q213 470 84 420 Q73 438 43 453 Q202 512 323 604 Q444 695 505 800 ZM303 178 L341 153 Q256 37 124 -55 Q109 -38 82 -29 Q225 65 303 178 ZM657 154 L694 179 Q747 136 806 82 Q864 29 910 -17 L881 -55 Q828 1 770 55 Q712 109 657 154 Z" /><glyph glyph-name="" unicode="&#x4f5c;" d="M557 801 L601 776 Q579 702 540 623 L941 623 L941 582 L611 582 L611 389 L885 389 L885 348 L611 348 L611 157 L910 157 L910 116 L611 116 L611 -96 L566 -96 L566 582 L520 582 Q485 516 445 458 Q404 400 363 358 Q343 372 317 377 Q400 463 462 572 Q524 681 557 801 ZM288 797 L333 771 Q299 679 252 589 L252 -96 L207 -96 L207 509 Q146 406 83 338 Q62 352 35 359 Q118 449 188 570 Q257 692 288 797 Z" /><glyph glyph-name="" unicode="&#x4f60;" d="M292 796 L333 773 Q303 682 249 581 L249 -96 L204 -96 L204 504 Q143 407 84 354 Q65 373 38 377 Q92 425 143 497 Q193 569 233 648 Q272 727 292 796 ZM519 795 L561 772 Q539 689 505 614 L923 614 L923 578 L852 414 Q833 423 807 420 L874 572 L484 572 Q442 491 378 423 Q360 439 334 441 Q475 597 519 795 ZM610 470 L655 470 L655 16 Q655 -92 552 -91 Q512 -91 480 -87 Q485 -60 467 -38 Q513 -46 549 -46 Q613 -50 610 21 L610 470 ZM758 287 L802 300 Q878 186 938 64 L902 32 Q838 164 758 287 ZM446 310 L489 295 Q447 157 356 44 Q334 57 308 57 Q404 167 446 310 Z" /><glyph glyph-name="" unicode="&#x4f73;" d="M318 -18 L614 -18 L614 163 L385 163 L385 204 L614 204 L614 337 L659 337 L659 204 L890 204 L890 163 L659 163 L659 -18 L946 -18 L946 -59 L318 -59 L318 -18 ZM326 423 L614 423 L614 589 L395 589 L395 630 L614 630 L614 795 L659 795 L659 630 L880 630 L880 589 L659 589 L659 423 L937 423 L937 382 L326 382 L326 423 ZM307 795 L345 767 Q302 663 247 570 L247 -96 L202 -96 L202 501 Q145 419 80 357 Q64 372 35 379 Q213 546 307 795 Z" /><glyph glyph-name="" unicode="&#x4f7f;" d="M374 203 L403 234 Q464 138 542 85 Q594 152 600 263 L375 263 L375 500 L602 500 L602 619 L329 619 L329 660 L602 660 L602 794 L647 794 L647 660 L918 660 L918 619 L647 619 L647 500 L874 500 L874 263 L644 263 Q637 141 580 63 Q629 36 686 21 Q795 -10 963 -23 Q945 -45 937 -71 Q842 -58 784 -47 Q727 -35 681 -22 Q609 -4 551 29 Q477 -45 320 -95 Q303 -75 279 -63 Q440 -14 513 53 Q432 110 374 203 ZM273 795 L316 770 Q286 682 237 587 L237 -96 L192 -96 L192 505 Q139 414 85 356 Q66 369 37 375 Q116 460 179 574 Q242 688 273 795 ZM831 461 L647 461 L647 329 Q647 316 646 302 L831 302 L831 461 ZM418 461 L418 302 L602 302 L602 312 L602 461 L418 461 Z" /><glyph glyph-name="" unicode="&#x4f9b;" d="M321 278 L493 278 L493 533 L355 533 L355 574 L493 574 L493 790 L538 790 L538 574 L730 574 L730 790 L775 790 L775 574 L915 574 L915 533 L775 533 L775 278 L949 278 L949 237 L321 237 L321 278 ZM290 796 L331 773 Q300 675 241 570 L241 -96 L196 -96 L196 495 Q138 405 82 354 Q63 373 36 377 Q90 425 141 497 Q191 569 231 648 Q270 727 290 796 ZM538 533 L538 278 L730 278 L730 533 L538 533 ZM515 180 L557 161 Q491 14 373 -97 Q353 -79 326 -77 Q448 30 515 180 ZM697 158 L736 179 Q838 65 923 -57 L892 -93 Q804 38 697 158 Z" /><glyph glyph-name="" unicode="&#x4fa6;" d="M589 796 L632 796 L632 685 L943 685 L943 646 L632 646 L632 524 L863 524 L863 111 L819 111 L819 485 L427 485 L427 111 L384 111 L384 524 L589 524 L589 796 ZM282 797 L322 774 Q291 677 235 571 L235 -94 L192 -94 L192 497 Q135 406 81 355 Q61 371 37 374 Q89 422 138 495 Q187 568 225 648 Q263 728 282 797 ZM601 418 L644 413 Q644 305 643 255 Q642 205 638 183 Q621 66 547 2 Q472 -62 339 -96 Q328 -71 304 -59 Q439 -29 510 29 Q581 87 595 189 Q598 211 600 262 Q601 314 601 418 ZM649 69 L681 98 Q737 70 805 28 Q874 -12 929 -49 L914 -92 Q860 -52 783 -7 Q707 38 649 69 Z" /><glyph glyph-name="" unicode="&#x4fbf;" d="M369 173 L396 206 Q466 111 538 66 Q593 128 605 226 L389 226 L389 577 L611 577 L611 691 L355 691 L355 730 L921 730 L921 691 L656 691 L656 577 L877 577 L877 226 L650 226 Q639 114 578 43 Q631 18 692 4 Q739 -6 814 -15 Q889 -24 965 -27 Q944 -47 936 -72 Q785 -61 684 -37 Q610 -22 547 11 Q473 -52 323 -97 Q309 -73 283 -64 Q433 -22 507 35 Q434 85 369 173 ZM289 803 L330 781 Q298 677 244 573 L244 -96 L199 -96 L199 497 Q152 422 88 355 Q74 373 44 375 Q140 478 198 583 Q256 689 289 803 ZM654 265 L834 265 L834 383 L656 383 L656 321 Q656 291 654 265 ZM609 265 Q611 288 611 316 L611 383 L432 383 L432 265 L609 265 ZM432 538 L432 421 L611 421 L611 538 L432 538 ZM834 538 L656 538 L656 421 L834 421 L834 538 Z" /><glyph glyph-name="" unicode="&#x4fc4;" d="M291 177 L458 261 L458 450 L296 450 L296 491 L458 491 L458 659 Q406 648 351 639 Q342 661 322 676 Q395 685 463 701 Q531 717 582 737 L614 703 Q560 684 503 669 L503 491 L665 491 Q658 617 659 791 L704 796 Q704 620 710 491 L930 491 L930 450 L712 450 Q720 300 742 185 Q812 276 851 374 L887 346 Q840 227 755 128 Q780 23 811 -12 Q833 -39 854 -38 Q875 -37 890 2 Q901 32 912 78 Q927 53 948 41 Q939 7 928 -20 Q902 -88 854 -86 Q811 -88 772 -35 Q743 5 719 88 Q662 30 597 -13 Q580 3 554 14 Q638 66 706 142 Q678 268 667 450 L503 450 L503 284 L592 329 L619 298 L503 236 L503 2 Q503 -88 410 -86 Q379 -86 348 -81 Q347 -60 335 -37 Q373 -42 410 -44 Q458 -49 458 10 L458 213 L328 143 L291 177 ZM266 796 L307 771 Q279 686 232 594 L232 -96 L187 -96 L187 512 Q135 424 84 366 Q65 378 36 383 Q113 467 175 579 Q237 692 266 796 ZM759 705 L798 722 Q823 692 849 658 Q875 623 894 592 L864 560 Q841 595 813 635 Q784 675 759 705 Z" /><glyph glyph-name="" unicode="&#x4fdd;" d="M331 340 L612 340 L612 469 L414 469 L414 742 L855 742 L855 469 L657 469 L657 340 L936 340 L936 299 L689 299 Q739 215 811 144 Q883 73 969 26 Q956 23 943 14 Q929 6 920 -2 Q843 45 775 119 Q706 194 657 283 L657 -96 L612 -96 L612 283 Q565 198 490 121 Q415 43 332 -4 Q317 12 289 23 Q381 74 456 146 Q531 218 578 299 L331 299 L331 340 ZM810 701 L459 701 L459 510 L810 510 L810 701 ZM291 797 L333 772 Q296 671 246 580 L246 -96 L201 -96 L201 506 Q145 420 80 353 Q59 368 35 372 Q126 465 192 577 Q258 688 291 797 Z" /><glyph glyph-name="" unicode="&#x4fe1;" d="M387 219 L891 219 L891 -96 L846 -96 L846 -32 L432 -32 L432 -96 L387 -96 L387 219 ZM432 178 L432 9 L846 9 L846 178 L432 178 ZM286 797 L329 771 Q295 676 251 588 L251 -96 L206 -96 L206 507 Q152 415 86 345 Q68 360 41 365 Q208 546 286 797 ZM553 778 L591 798 Q643 744 685 685 L662 665 L947 665 L947 623 L327 623 L327 665 L647 665 Q604 725 553 778 ZM381 369 L897 369 L897 327 L381 327 L381 369 ZM381 517 L897 517 L897 475 L381 475 L381 517 Z" /><glyph glyph-name="" unicode="&#x4fee;" d="M591 796 L629 770 Q615 732 590 693 L869 693 L869 661 Q814 560 711 482 Q819 424 968 392 Q944 376 928 352 Q778 394 672 456 Q563 384 420 342 Q407 364 380 375 Q526 416 632 480 Q565 528 514 586 Q473 538 434 507 Q418 522 394 528 Q458 580 511 652 Q564 724 591 796 ZM265 796 L304 767 Q273 678 223 579 L223 -96 L180 -96 L180 502 Q124 407 76 360 Q56 375 33 380 Q82 430 128 502 Q174 574 210 651 Q246 729 265 796 ZM815 654 L565 654 Q553 635 538 618 Q593 555 671 506 Q769 574 815 654 ZM885 142 L922 118 Q832 36 698 -20 Q563 -77 432 -100 Q419 -77 397 -62 Q484 -49 578 -19 Q671 11 752 53 Q833 95 885 142 ZM320 592 L363 592 L363 78 L320 78 L320 592 ZM798 260 L834 233 Q686 116 476 62 Q463 81 438 96 Q542 119 639 163 Q736 207 798 260 ZM724 374 L762 346 Q705 303 630 268 Q555 233 470 212 Q459 231 435 246 Q643 300 724 374 Z" /><glyph glyph-name="" unicode="&#x500d;" d="M404 249 L853 249 L853 -95 L808 -95 L808 -30 L449 -30 L449 -95 L404 -95 L404 249 ZM449 208 L449 11 L808 11 L808 208 L449 208 ZM284 797 L326 772 Q291 672 246 583 L246 -96 L201 -96 L201 503 Q148 414 84 345 Q66 360 39 365 Q207 544 284 797 ZM304 396 L660 396 Q736 493 780 584 L820 566 Q799 526 771 481 Q742 435 712 396 L951 396 L951 355 L304 355 L304 396 ZM357 655 L650 655 Q621 685 587 717 Q553 749 519 774 L559 799 Q590 773 626 741 Q661 709 683 684 L656 655 L898 655 L898 614 L357 614 L357 655 ZM426 558 L468 574 Q494 544 525 505 Q556 465 577 432 L543 403 Q482 497 426 558 Z" /><glyph glyph-name="" unicode="&#x5012;" d="M265 796 L304 767 Q273 678 223 579 L223 -96 L180 -96 L180 502 Q124 407 76 360 Q56 375 33 380 Q82 430 128 502 Q174 574 210 651 Q246 729 265 796 ZM513 544 L551 561 Q581 520 617 465 Q653 410 674 371 L643 343 Q626 373 607 404 L380 388 Q350 386 318 376 L294 414 Q313 421 325 432 Q338 443 352 466 Q377 506 402 554 Q427 603 447 654 L311 654 L311 693 L652 693 L652 654 L495 654 Q469 591 438 533 Q407 475 376 427 L583 441 Q546 500 513 544 ZM859 789 L902 789 L902 14 Q903 -87 800 -86 Q763 -86 720 -81 Q719 -57 706 -35 Q726 -38 751 -41 Q776 -44 796 -44 Q859 -45 859 20 L859 789 ZM271 8 L461 45 L461 218 L321 218 L321 257 L461 257 L461 356 L504 356 L504 257 L634 257 L634 218 L504 218 L504 53 L650 82 L670 46 L297 -31 L271 8 ZM713 639 L756 639 L756 125 L713 125 L713 639 Z" /><glyph glyph-name="" unicode="&#x503c;" d="M601 795 L646 795 L632 679 L914 679 L914 640 L627 640 L615 540 L839 540 L839 -20 L951 -20 L951 -60 L296 -60 L296 -20 L404 -20 L404 540 L570 540 L582 640 L340 640 L340 679 L587 679 L601 795 ZM272 793 L312 769 Q283 685 239 597 L239 -96 L194 -96 L194 516 Q137 421 82 358 Q65 373 35 378 Q115 462 178 574 Q240 687 272 793 ZM449 82 L449 -20 L794 -20 L794 82 L449 82 ZM449 361 L449 259 L794 259 L794 361 L449 361 ZM449 501 L449 399 L794 399 L794 501 L449 501 ZM449 222 L449 120 L794 120 L794 222 L449 222 Z" /><glyph glyph-name="" unicode="&#x505c;" d="M412 585 L808 585 L808 411 L412 411 L412 585 ZM264 796 L304 771 Q272 666 222 569 L222 -96 L179 -96 L179 491 Q131 414 80 357 Q61 372 35 377 Q110 452 173 567 Q235 682 264 796 ZM299 345 L920 345 L920 189 L877 189 L877 306 L342 306 L342 188 L299 188 L299 345 ZM400 210 L819 210 L819 171 L650 171 L650 4 Q649 -41 622 -62 Q595 -84 551 -84 Q518 -84 486 -81 Q482 -56 471 -33 Q518 -42 546 -41 Q606 -41 607 8 L607 171 L400 171 L400 210 ZM765 546 L455 546 L455 450 L765 450 L765 546 ZM331 688 L638 688 Q613 710 583 736 Q553 761 524 781 L559 805 Q587 786 617 762 Q647 739 670 717 L648 688 L889 688 L889 649 L331 649 L331 688 Z" /><glyph glyph-name="" unicode="&#x5076;" d="M435 97 Q517 101 601 110 L601 252 L394 252 L394 -96 L351 -96 L351 291 L601 291 L601 397 L396 397 L396 745 L849 745 L849 397 L644 397 L644 291 L905 291 L905 19 Q904 -84 797 -85 Q753 -85 719 -81 Q718 -56 700 -35 Q720 -38 746 -41 Q771 -43 794 -43 Q863 -44 862 22 L862 252 L644 252 L644 114 Q703 121 752 127 Q732 159 713 187 L751 199 Q772 170 793 135 Q814 100 830 68 L797 44 Q784 71 770 96 Q700 84 615 74 Q530 63 462 57 L435 97 ZM285 797 L327 773 Q312 727 288 673 Q263 619 233 564 L233 -96 L190 -96 L190 488 Q135 398 84 346 Q63 362 35 362 Q90 417 140 494 Q189 570 227 650 Q265 731 285 797 ZM644 436 L806 436 L806 553 L644 553 L644 436 ZM439 553 L439 436 L601 436 L601 553 L439 553 ZM439 706 L439 590 L601 590 L601 706 L439 706 ZM806 706 L644 706 L644 590 L806 590 L806 706 Z" /><glyph glyph-name="" unicode="&#x5077;" d="M350 426 L583 426 L583 -6 Q585 -93 505 -91 Q482 -91 453 -86 Q453 -61 438 -41 Q474 -49 502 -50 Q542 -55 540 -2 L540 99 L393 99 L393 -96 L350 -96 L350 426 ZM285 797 L327 773 Q312 727 288 673 Q263 619 233 564 L233 -96 L190 -96 L190 488 Q135 398 84 346 Q63 362 35 362 Q90 417 140 494 Q189 570 227 650 Q265 731 285 797 ZM600 802 L641 778 Q634 767 627 755 Q689 673 774 613 Q859 553 957 523 Q927 512 914 486 Q815 530 741 586 Q667 641 606 720 Q500 568 324 477 Q306 499 277 505 Q519 618 600 802 ZM820 433 L866 433 L866 -3 Q865 -89 781 -89 Q750 -89 720 -84 Q717 -58 702 -37 Q742 -45 778 -46 Q822 -49 820 0 L820 433 ZM393 387 L393 280 L540 280 L540 387 L393 387 ZM393 243 L393 136 L540 136 L540 243 L393 243 ZM679 374 L722 374 L722 77 L679 77 L679 374 ZM455 549 L779 549 L779 510 L455 510 L455 549 Z" /><glyph glyph-name="" unicode="&#x507f;" d="M696 124 L732 143 Q776 100 827 39 Q878 -21 909 -64 L878 -99 Q853 -62 822 -22 L452 -56 Q419 -59 391 -68 L366 -30 Q383 -21 397 -10 Q411 0 428 22 Q458 56 492 107 Q526 158 555 211 L322 211 L322 250 L938 250 L938 211 L605 211 Q572 151 532 92 Q492 32 454 -15 L794 12 Q744 73 696 124 ZM266 794 L307 772 Q282 689 235 589 L235 -96 L190 -96 L190 501 Q137 402 86 347 Q67 361 37 365 Q115 451 177 572 Q238 693 266 794 ZM335 581 L607 581 L607 787 L650 787 L650 581 L921 581 L921 426 L878 426 L878 542 L378 542 L378 426 L335 426 L335 581 ZM439 414 L821 414 L821 374 L439 374 L439 414 ZM845 764 L881 739 Q856 708 820 671 Q783 634 752 609 Q738 621 716 628 Q753 659 787 694 Q821 730 845 764 ZM377 735 L414 757 Q476 706 533 643 L510 610 Q481 642 445 675 Q409 709 377 735 Z" /><glyph glyph-name="" unicode="&#x50a8;" d="M478 472 L656 472 L656 611 L527 611 L527 651 L656 651 L656 793 L699 793 L699 651 L819 651 L819 611 L699 611 L699 472 L747 472 Q832 570 889 701 L929 686 Q875 563 803 472 L951 472 L951 432 L770 432 Q718 370 658 322 L884 322 L884 -96 L841 -96 L841 -42 L623 -42 L623 -96 L580 -96 L580 263 Q527 227 471 196 Q458 215 432 226 Q579 295 713 432 L478 432 L478 472 ZM267 793 L305 766 Q274 678 224 586 L224 -96 L181 -96 L181 513 Q126 427 77 374 Q58 388 35 394 Q108 468 173 581 Q237 694 267 793 ZM263 475 L409 475 L409 47 L511 129 L539 105 L399 -18 Q381 -32 369 -50 L338 -12 Q354 4 360 20 Q366 35 366 58 L366 436 L263 436 L263 475 ZM623 122 L623 -3 L841 -3 L841 122 L623 122 ZM623 282 L623 159 L841 159 L841 282 L623 282 ZM315 694 L351 717 Q379 693 412 661 Q445 629 470 600 L442 568 Q416 600 380 636 Q343 672 315 694 Z" /><glyph glyph-name="" unicode="&#x50cf;" d="M865 364 L898 336 Q840 288 772 255 Q799 180 846 117 Q894 54 965 15 Q938 7 919 -12 Q855 33 809 98 Q764 163 736 237 Q709 224 679 213 Q701 153 701 80 Q701 -12 666 -52 Q630 -92 554 -91 Q530 -91 509 -89 Q510 -88 507 -74 Q503 -60 489 -44 Q521 -49 551 -50 Q608 -51 633 -23 Q658 5 658 80 Q658 117 651 152 Q591 86 495 28 Q400 -28 319 -54 Q303 -30 276 -20 Q385 9 482 70 Q579 132 638 197 Q625 233 603 264 Q544 205 471 165 Q398 125 321 98 Q306 124 280 131 Q363 153 440 194 Q517 234 578 295 Q558 319 532 337 Q440 268 326 227 Q326 228 317 239 Q308 250 288 259 Q354 279 415 311 Q477 342 526 386 L390 386 L390 553 Q365 531 336 514 Q318 531 293 537 Q450 635 536 797 L573 771 Q554 736 530 704 L800 704 L800 673 L698 572 L882 572 L882 386 L586 386 Q575 373 562 362 Q632 313 665 246 Q775 289 865 364 ZM285 797 L327 773 Q312 727 288 673 Q263 619 233 564 L233 -96 L190 -96 L190 489 Q135 397 84 346 Q63 362 35 362 Q90 417 140 494 Q189 570 227 650 Q265 731 285 797 ZM503 667 Q462 615 413 572 L640 572 L733 667 L503 667 ZM839 535 L673 535 Q656 474 618 423 L839 423 L839 535 ZM433 535 L433 423 L564 423 Q609 474 628 535 L433 535 Z" /><glyph glyph-name="" unicode="&#x513f;" d="M336 769 L383 769 L383 572 Q384 377 359 258 Q334 139 272 63 Q211 -12 101 -77 Q85 -60 59 -48 Q173 24 233 96 Q294 168 316 277 Q337 386 336 571 L336 769 ZM601 769 L648 769 L648 47 Q650 -9 711 -11 L824 -12 Q854 -12 870 1 Q886 14 894 55 Q901 93 907 130 Q925 106 948 96 Q943 69 937 40 Q926 -14 901 -35 Q876 -57 831 -56 L712 -57 Q658 -57 630 -34 Q601 -10 601 47 L601 769 Z" /><glyph glyph-name="" unicode="&#x5143;" d="M77 452 L924 452 L924 411 L628 411 L628 54 Q627 -26 700 -22 L820 -23 Q856 -23 876 -8 Q895 5 902 41 Q909 76 912 110 Q930 88 953 80 Q949 51 944 28 Q927 -70 824 -66 L695 -67 Q639 -67 611 -40 Q583 -12 583 52 L583 411 L411 411 Q409 265 378 172 Q347 79 276 18 Q206 -41 87 -88 Q75 -68 50 -50 Q166 -9 235 46 Q304 102 335 189 Q365 276 366 411 L77 411 L77 452 ZM183 717 L816 717 L816 676 L183 676 L183 717 Z" /><glyph glyph-name="" unicode="&#x5144;" d="M201 733 L802 733 L802 347 L623 347 L623 54 Q622 -26 695 -22 L816 -23 Q852 -23 871 -8 Q891 5 897 41 Q904 76 907 110 Q925 88 948 80 Q944 51 939 28 Q922 -70 819 -66 L690 -67 Q634 -67 606 -40 Q578 -12 578 52 L578 347 L413 347 Q412 300 407 258 Q393 116 319 32 Q244 -50 92 -94 Q80 -74 52 -55 Q202 -21 277 54 Q353 130 363 265 Q366 304 367 347 L201 347 L201 733 ZM757 692 L246 692 L246 388 L757 388 L757 692 Z" /><glyph glyph-name="" unicode="&#x5145;" d="M84 663 L540 663 Q470 723 393 775 L429 801 Q502 755 566 700 L547 663 L916 663 L916 621 L467 621 L491 608 Q444 555 378 488 Q312 421 263 379 L721 396 Q654 459 589 515 L628 537 Q747 439 856 328 L830 289 Q800 321 763 357 L623 352 L623 29 Q625 -25 677 -26 L816 -27 Q871 -27 885 32 Q892 59 897 96 Q916 74 937 66 Q931 34 926 16 Q905 -72 820 -69 L678 -70 Q580 -67 578 28 L578 350 L422 344 L419 262 Q408 127 334 40 Q261 -46 104 -92 Q92 -68 67 -55 Q226 -12 294 64 Q363 141 374 270 L377 342 L265 338 Q233 337 215 334 Q196 331 182 327 L157 372 Q179 376 197 385 Q215 394 235 411 Q259 431 297 468 Q335 505 375 546 Q414 588 443 621 L84 621 L84 663 Z" /><glyph glyph-name="" unicode="&#x5148;" d="M485 796 L530 796 L530 607 L843 607 L843 566 L530 566 L530 385 L934 385 L934 344 L634 344 L634 35 Q635 -22 697 -23 L798 -24 Q859 -26 877 34 Q881 50 886 74 Q891 98 894 116 Q911 95 931 85 Q928 72 923 51 Q918 29 916 18 Q891 -69 801 -66 L699 -67 Q585 -66 589 29 L589 344 L401 344 Q402 174 330 69 Q258 -35 90 -95 Q77 -72 51 -54 Q218 -4 288 89 Q357 182 356 344 L65 344 L65 385 L485 385 L485 566 L267 566 Q212 481 155 437 Q133 453 107 457 Q250 565 301 756 L344 730 Q321 663 291 607 L485 607 L485 796 Z" /><glyph glyph-name="" unicode="&#x5149;" d="M485 796 L530 796 L530 420 L930 420 L930 378 L634 378 L634 36 Q634 -23 699 -23 L801 -24 Q861 -26 877 34 Q881 50 886 74 Q891 98 894 116 Q911 95 931 85 Q928 72 923 51 Q918 29 916 18 Q892 -69 803 -66 L698 -67 Q587 -66 589 29 L589 378 L403 378 Q404 196 332 83 Q259 -29 92 -95 Q78 -76 50 -62 Q213 -5 286 98 Q359 202 358 378 L69 378 L69 420 L485 420 L485 796 ZM806 738 L847 717 Q812 660 764 597 Q715 533 664 481 Q648 495 622 501 Q677 555 726 619 Q775 683 806 738 ZM154 711 L195 730 Q238 686 291 626 Q344 565 380 519 L349 484 Q310 537 253 604 Q196 670 154 711 Z" /><glyph glyph-name="" unicode="&#x514b;" d="M476 796 L522 796 L522 669 L918 669 L918 628 L522 628 L522 498 L776 498 L776 224 L621 224 L621 31 Q618 -29 678 -26 L808 -27 Q837 -27 854 -13 Q871 0 880 34 Q886 60 891 91 Q906 71 929 62 Q924 38 918 16 Q905 -31 879 -50 Q853 -70 809 -69 L677 -70 Q574 -71 575 30 L575 224 L426 224 Q425 198 423 177 Q414 66 336 0 Q259 -67 107 -98 Q95 -71 72 -56 Q227 -29 299 27 Q371 84 378 182 Q379 201 379 224 L223 224 L223 498 L476 498 L476 628 L82 628 L82 669 L476 669 L476 796 ZM731 459 L268 459 L268 263 L731 263 L731 459 Z" /><glyph glyph-name="" unicode="&#x514d;" d="M405 810 L444 779 Q419 736 387 698 L760 698 L760 663 L587 517 L841 517 L841 260 L602 260 L602 26 Q604 -23 656 -22 L831 -23 Q888 -24 899 36 Q905 64 911 97 Q927 77 949 67 Q943 34 934 4 Q916 -67 834 -66 L656 -67 Q559 -68 557 24 L557 260 L511 260 Q474 126 375 40 Q275 -46 103 -95 Q91 -74 66 -57 Q236 -12 332 66 Q428 145 464 260 L203 260 L203 517 L521 517 L686 657 L351 657 Q295 597 234 552 Q173 507 117 479 Q102 496 75 509 Q167 552 258 630 Q350 708 405 810 ZM796 475 L540 475 Q538 380 522 301 L796 301 L796 475 ZM476 301 Q494 380 495 475 L248 475 L248 301 L476 301 Z" /><glyph glyph-name="" unicode="&#x5165;" d="M326 719 L352 760 Q430 740 471 703 Q512 665 530 603 Q592 392 700 226 Q808 60 967 -22 Q928 -39 912 -62 Q776 23 674 177 Q572 330 511 523 Q480 402 417 286 Q354 171 271 77 Q187 -16 92 -72 Q74 -55 42 -42 Q147 15 237 115 Q328 214 393 341 Q458 467 486 605 Q470 649 433 676 Q396 702 326 719 Z" /><glyph glyph-name="" unicode="&#x5168;" d="M224 212 L476 212 L476 398 L221 398 L221 439 L778 439 L778 398 L522 398 L522 212 L775 212 L775 171 L522 171 L522 -25 L893 -25 L893 -67 L106 -67 L106 -25 L476 -25 L476 171 L224 171 L224 212 ZM499 805 L535 778 Q528 765 520 752 Q603 647 720 561 Q838 476 972 433 Q943 411 929 391 Q783 452 673 541 Q563 630 498 718 Q423 610 313 521 Q203 431 76 378 Q62 398 34 413 Q185 473 310 581 Q436 688 499 805 Z" /><glyph glyph-name="" unicode="&#x516b;" d="M343 730 L389 718 Q380 418 299 217 Q218 16 80 -81 Q59 -64 30 -58 Q179 42 258 243 Q336 443 343 730 ZM591 758 L637 767 Q647 504 730 290 Q813 76 978 -43 Q949 -54 926 -75 Q762 69 683 283 Q604 497 591 758 Z" /><glyph glyph-name="" unicode="&#x516c;" d="M574 214 L617 234 Q643 203 683 149 Q723 94 764 35 Q804 -22 831 -66 L795 -100 Q774 -63 737 -10 L273 -49 Q233 -51 197 -62 L176 -22 Q209 -14 244 29 Q277 69 323 139 Q369 209 412 289 Q455 369 480 438 L525 408 Q496 344 453 266 Q411 189 364 117 Q318 45 278 -3 L711 28 Q673 83 636 133 Q599 184 574 214 ZM579 760 L622 776 Q672 606 769 486 Q866 367 974 322 Q943 310 920 286 Q809 355 723 468 Q638 581 579 760 ZM363 758 L409 736 Q359 583 274 462 Q189 342 88 276 Q72 293 41 302 Q112 343 178 416 Q245 490 294 579 Q343 668 363 758 Z" /><glyph glyph-name="" unicode="&#x516d;" d="M376 752 L416 774 Q453 745 503 697 Q553 649 581 615 L552 580 Q517 620 465 671 Q414 721 376 752 ZM84 522 L920 522 L920 479 L84 479 L84 522 ZM359 328 L402 309 Q357 210 279 106 Q202 1 122 -69 Q102 -56 72 -48 Q158 26 232 123 Q306 221 359 328 ZM596 314 L639 331 Q680 282 732 215 Q783 148 832 80 Q881 11 916 -41 L878 -77 Q843 -20 792 52 Q740 125 688 196 Q635 266 596 314 Z" /><glyph glyph-name="" unicode="&#x5170;" d="M727 783 L770 762 Q726 698 683 646 Q640 595 591 548 L881 548 L881 505 L118 505 L118 548 L532 548 Q650 660 727 783 ZM67 -2 L931 -2 L931 -45 L67 -45 L67 -2 ZM193 277 L806 277 L806 234 L193 234 L193 277 ZM215 755 L257 775 Q298 742 343 697 Q388 651 424 606 L395 569 Q359 614 311 664 Q263 714 215 755 Z" /><glyph glyph-name="" unicode="&#x5171;" d="M659 793 L704 793 L704 581 L879 581 L879 540 L704 540 L704 276 L943 276 L943 235 L58 235 L58 276 L296 276 L296 540 L122 540 L122 581 L296 581 L296 793 L341 793 L341 581 L659 581 L659 793 ZM341 540 L341 276 L659 276 L659 540 L341 540 ZM370 178 L407 147 Q350 77 280 14 Q210 -49 132 -100 Q121 -79 91 -69 Q173 -20 244 42 Q316 106 370 178 ZM595 150 L629 178 Q699 124 769 64 Q839 4 901 -55 L875 -95 Q811 -30 739 32 Q666 95 595 150 Z" /><glyph glyph-name="" unicode="&#x5173;" d="M146 577 L528 577 Q581 625 634 684 Q687 743 724 794 L767 768 Q734 726 685 673 Q635 621 588 577 L853 577 L853 534 L525 534 Q525 483 524 432 Q523 382 521 344 L905 344 L905 301 L525 301 Q632 31 938 -43 Q912 -62 899 -90 Q754 -46 653 40 Q552 128 502 254 Q422 2 107 -97 Q92 -73 67 -57 Q227 -14 334 77 Q440 170 468 301 L94 301 L94 344 L474 344 L474 345 Q476 383 477 432 Q477 482 477 534 L146 534 L146 577 ZM223 765 L262 789 Q295 764 345 718 Q394 672 424 641 L395 603 Q362 641 311 688 Q260 735 223 765 Z" /><glyph glyph-name="" unicode="&#x5176;" d="M680 796 L725 796 L725 676 L882 676 L882 635 L725 635 L725 179 L943 179 L943 138 L57 138 L57 179 L275 179 L275 635 L118 635 L118 676 L275 676 L275 796 L320 796 L320 676 L680 676 L680 796 ZM320 306 L320 179 L680 179 L680 306 L320 306 ZM320 471 L320 345 L680 345 L680 471 L320 471 ZM320 635 L320 510 L680 510 L680 635 L320 635 ZM388 108 L425 79 Q367 29 294 -16 Q220 -62 138 -96 Q126 -73 95 -61 Q275 7 388 108 ZM573 78 L606 107 Q756 36 885 -48 L868 -94 Q734 -3 573 78 Z" /><glyph glyph-name="" unicode="&#x5177;" d="M228 742 L772 742 L772 151 L947 151 L947 110 L53 110 L53 151 L228 151 L228 742 ZM273 260 L273 151 L727 151 L727 260 L273 260 ZM273 554 L273 446 L727 446 L727 554 L273 554 ZM273 701 L273 593 L727 593 L727 701 L273 701 ZM273 407 L273 299 L727 299 L727 407 L273 407 ZM592 54 L627 86 Q687 60 766 20 Q845 -19 898 -50 L879 -95 Q822 -60 739 -17 Q657 24 592 54 ZM368 86 L405 56 Q358 16 285 -25 Q213 -67 134 -97 Q121 -76 90 -63 Q173 -34 245 4 Q317 43 368 86 Z" /><glyph glyph-name="" unicode="&#x5178;" d="M53 197 L181 197 L181 657 L378 657 L378 796 L423 796 L423 657 L576 657 L576 796 L622 796 L622 657 L819 657 L819 197 L947 197 L947 156 L53 156 L53 197 ZM622 387 L622 197 L776 197 L776 387 L622 387 ZM776 616 L622 616 L622 426 L776 426 L776 616 ZM224 387 L224 197 L378 197 L378 387 L224 387 ZM423 387 L423 197 L576 197 L576 387 L423 387 ZM423 616 L423 426 L576 426 L576 616 L423 616 ZM224 616 L224 426 L378 426 L378 616 L224 616 ZM583 91 L618 120 Q677 85 755 33 Q833 -18 887 -60 L865 -102 Q802 -53 721 2 Q639 58 583 91 ZM364 119 L401 92 Q346 35 270 -17 Q195 -70 133 -100 Q117 -79 91 -69 Q155 -40 233 11 Q311 63 364 119 Z" /><glyph glyph-name="" unicode="&#x5185;" d="M483 798 L529 793 Q529 702 526 622 L863 622 L863 21 Q862 -86 748 -88 Q706 -88 665 -83 Q664 -61 649 -35 Q703 -43 747 -44 Q821 -46 818 24 L818 581 L525 581 Q523 555 521 532 Q513 461 497 404 L524 416 Q557 382 601 333 Q646 283 689 232 Q733 181 762 143 L730 106 Q668 185 606 258 Q544 331 492 386 Q464 290 408 220 Q351 150 266 93 Q252 113 225 121 Q344 199 403 296 Q462 394 476 535 Q476 557 478 581 L182 581 L182 -96 L136 -96 L136 622 L480 622 Q483 691 483 798 Z" /><glyph glyph-name="" unicode="&#x518c;" d="M563 744 L836 744 L836 400 L945 400 L945 359 L836 359 L836 10 Q837 -40 815 -61 Q794 -83 741 -82 Q722 -82 691 -79 Q688 -56 675 -33 Q693 -35 712 -37 Q731 -38 742 -38 Q769 -39 780 -27 Q791 -15 791 15 L791 359 L608 359 L608 280 Q608 33 522 -96 Q499 -83 474 -80 Q521 -14 542 72 Q563 158 563 290 L563 359 L439 359 L439 10 Q440 -40 418 -61 Q397 -83 344 -82 Q326 -82 295 -79 Q291 -56 280 -33 Q297 -35 316 -37 Q334 -38 345 -38 Q372 -39 383 -27 Q394 -15 394 15 L394 359 L224 359 L224 298 Q224 173 198 72 Q171 -28 123 -96 Q104 -84 75 -78 Q178 58 179 299 L179 359 L55 359 L55 400 L179 400 L179 744 L439 744 L439 400 L563 400 L563 744 ZM608 703 L608 400 L791 400 L791 703 L608 703 ZM224 703 L224 400 L394 400 L394 703 L224 703 Z" /><glyph glyph-name="" unicode="&#x518d;" d="M54 184 L194 184 L194 556 L476 556 L476 690 L92 690 L92 731 L908 731 L908 690 L522 690 L522 556 L805 556 L805 184 L945 184 L945 143 L805 143 L805 20 Q805 -84 702 -84 Q665 -84 632 -78 Q630 -54 617 -31 Q635 -35 658 -37 Q681 -40 696 -40 Q760 -41 760 26 L760 143 L239 143 L239 -96 L194 -96 L194 143 L54 143 L54 184 ZM522 331 L522 184 L760 184 L760 331 L522 331 ZM239 331 L239 184 L476 184 L476 331 L239 331 ZM760 517 L522 517 L522 371 L760 371 L760 517 ZM239 517 L239 371 L476 371 L476 517 L239 517 Z" /><glyph glyph-name="" unicode="&#x5199;" d="M302 644 L347 642 L338 532 L785 532 L785 491 L335 491 L323 333 L846 333 L827 32 Q819 -88 686 -87 Q639 -87 585 -80 Q583 -55 571 -32 Q600 -37 630 -40 Q660 -44 683 -44 Q778 -44 782 38 L798 292 L275 292 L302 644 ZM115 742 L884 742 L884 536 L839 536 L839 701 L160 701 L160 534 L115 534 L115 742 ZM81 159 L724 159 L724 118 L81 118 L81 159 Z" /><glyph glyph-name="" unicode="&#x51b3;" d="M552 797 L598 791 Q598 701 597 621 L830 621 L830 324 L937 324 L937 282 L615 282 Q668 154 750 72 Q832 -8 955 -53 Q925 -66 909 -93 Q785 -33 705 52 Q625 137 577 269 Q539 32 263 -97 Q247 -74 218 -62 Q356 -4 434 79 Q512 162 533 282 L296 282 L296 324 L539 324 Q540 330 541 338 Q549 423 550 580 L329 580 L329 621 L551 621 Q552 700 552 797 ZM596 580 Q593 422 585 324 L785 324 L785 580 L596 580 ZM43 46 Q91 111 137 195 Q183 280 220 370 L254 340 Q221 257 175 169 Q129 80 84 15 L43 46 ZM77 701 L119 718 Q188 611 249 484 L214 454 Q146 596 77 701 Z" /><glyph glyph-name="" unicode="&#x51b5;" d="M359 733 L831 733 L831 347 L700 347 L700 32 Q697 -23 759 -21 L825 -22 Q887 -25 897 37 Q905 69 909 106 Q927 80 949 74 Q945 47 940 25 Q929 -26 904 -46 Q879 -66 833 -65 L752 -66 Q654 -67 655 29 L655 347 L525 347 Q525 163 459 61 Q392 -39 235 -98 Q226 -77 195 -64 Q352 -11 417 80 Q482 172 481 347 L359 347 L359 733 ZM786 692 L404 692 L404 388 L786 388 L786 692 ZM56 62 Q112 140 158 219 Q203 299 244 386 L277 354 Q240 274 194 191 Q148 108 95 30 L56 62 ZM80 717 L121 734 Q157 681 193 620 Q229 560 259 500 L224 470 Q153 610 80 717 Z" /><glyph glyph-name="" unicode="&#x51c6;" d="M477 789 L517 762 Q489 688 442 604 L918 604 L918 565 L704 565 L704 413 L900 413 L900 374 L704 374 L704 220 L901 220 L901 180 L704 180 L704 21 L941 21 L941 -18 L431 -18 L431 -96 L386 -96 L386 511 Q335 431 280 374 Q262 388 236 395 Q311 470 377 578 Q442 686 477 789 ZM431 180 L431 21 L659 21 L659 180 L431 180 ZM431 374 L431 220 L659 220 L659 374 L431 374 ZM431 565 L431 413 L659 413 L659 565 L431 565 ZM227 343 L259 311 Q229 227 183 135 Q137 43 93 -24 L57 11 Q155 154 227 343 ZM74 710 L116 726 Q186 618 246 491 L211 462 Q145 602 74 710 ZM587 757 L623 776 Q648 754 680 720 Q711 686 731 661 L704 627 Q681 658 649 692 Q618 727 587 757 Z" /><glyph glyph-name="" unicode="&#x51e0;" d="M287 735 L667 735 L667 71 Q666 23 684 5 Q702 -13 748 -12 L809 -13 Q874 -14 887 49 Q898 99 906 152 Q922 132 943 124 Q935 75 926 34 Q906 -57 811 -55 L744 -56 Q679 -56 650 -27 Q621 2 622 67 L622 694 L335 694 Q337 544 331 366 Q324 203 266 92 Q208 -19 89 -89 Q69 -67 43 -55 Q270 48 286 362 Q290 438 290 541 Q290 643 287 735 Z" /><glyph glyph-name="" unicode="&#x51ed;" d="M321 558 L592 558 L592 689 Q486 678 396 675 Q388 695 370 714 Q431 713 514 720 Q597 727 676 739 Q756 751 807 765 L842 728 Q754 710 635 694 L635 558 L925 558 L925 519 L635 519 L635 382 L869 382 L869 343 L364 343 L364 382 L592 382 L592 519 L321 519 L321 558 ZM332 252 L682 252 L682 22 Q681 -26 727 -24 L838 -25 Q892 -27 902 30 Q908 60 913 94 Q931 73 950 65 Q946 36 941 14 Q933 -29 909 -48 Q886 -67 837 -66 L726 -67 Q679 -67 659 -46 Q638 -26 639 21 L639 213 L378 213 Q378 175 376 147 Q374 120 368 95 Q349 18 284 -27 Q219 -74 121 -95 Q106 -73 78 -59 Q190 -38 249 0 Q309 39 326 107 Q337 151 332 252 ZM298 797 L332 766 Q293 699 240 638 L240 283 L197 283 L197 591 Q133 525 74 484 Q58 500 35 506 Q116 561 189 645 Q262 728 298 797 Z" /><glyph glyph-name="" unicode="&#x51ef;" d="M555 735 L811 735 L811 27 Q808 -27 858 -23 L869 -24 Q891 -24 904 -12 Q917 0 921 32 Q929 81 933 132 Q951 115 972 105 Q968 59 962 19 Q954 -28 933 -47 Q912 -66 872 -65 L857 -66 Q810 -66 789 -45 Q768 -24 768 23 L768 694 L601 694 Q601 620 601 529 Q601 439 598 351 Q592 180 552 77 Q511 -25 431 -96 Q410 -84 384 -77 Q471 -6 511 89 Q551 184 555 349 Q557 425 558 534 Q558 644 555 735 ZM102 431 L452 431 L452 227 L164 227 L164 12 L427 109 L453 77 L193 -24 Q159 -36 130 -63 L105 -29 Q121 -8 121 31 L121 266 L409 266 L409 392 L102 392 L102 431 ZM102 732 L143 732 L143 574 L261 574 L261 796 L304 796 L304 574 L423 574 L423 732 L464 732 L464 535 L102 535 L102 732 Z" /><glyph glyph-name="" unicode="&#x51fa;" d="M819 257 L864 257 L864 -96 L819 -96 L819 -56 L135 -56 L135 262 L181 262 L181 -13 L476 -13 L476 368 L164 368 L164 700 L209 700 L209 411 L476 411 L476 796 L523 796 L523 411 L790 411 L790 699 L835 699 L835 368 L523 368 L523 -13 L819 -13 L819 257 Z" /><glyph glyph-name="" unicode="&#x51fb;" d="M173 242 L218 242 L218 -13 L476 -13 L476 348 L58 348 L58 391 L476 391 L476 582 L146 582 L146 625 L476 625 L476 795 L524 795 L524 625 L855 625 L855 582 L524 582 L524 391 L943 391 L943 348 L524 348 L524 -13 L783 -13 L783 248 L828 248 L828 -96 L783 -96 L783 -56 L173 -56 L173 242 Z" /><glyph glyph-name="" unicode="&#x5206;" d="M244 389 L762 389 L741 33 Q732 -76 622 -77 Q603 -77 579 -75 Q554 -72 532 -69 Q531 -48 521 -25 Q545 -28 571 -31 Q598 -33 618 -33 Q692 -35 696 38 L715 348 L450 348 Q434 180 358 73 Q283 -34 134 -95 Q122 -78 92 -63 Q245 -6 318 94 Q390 195 405 348 L244 348 L244 389 ZM598 766 L638 782 Q684 622 779 514 Q874 406 981 369 Q950 356 930 331 Q815 393 731 501 Q646 609 598 766 ZM374 766 L417 741 Q369 606 285 496 Q200 386 99 327 Q84 346 53 355 Q161 416 246 521 Q331 626 374 766 Z" /><glyph glyph-name="" unicode="&#x5207;" d="M426 687 L904 687 L880 90 Q877 7 843 -28 Q809 -63 738 -62 Q702 -62 659 -57 Q656 -31 643 -8 Q662 -11 690 -14 Q718 -17 740 -17 Q786 -18 810 7 Q833 32 835 91 L857 646 L626 646 Q624 542 621 460 Q611 310 580 211 Q549 111 489 39 Q429 -32 333 -100 Q315 -83 285 -71 Q383 -6 444 63 Q505 133 536 229 Q567 324 575 463 Q581 544 580 646 L426 646 L426 687 ZM45 532 L199 550 L199 791 L244 791 L244 555 L424 575 L428 534 L244 513 L244 142 L409 280 L442 251 L249 85 Q227 66 207 38 L179 77 Q191 94 195 111 Q199 127 199 155 L199 508 L50 491 L45 532 Z" /><glyph glyph-name="" unicode="&#x5212;" d="M492 399 L526 368 Q462 260 352 168 Q354 165 355 161 Q393 58 429 14 Q465 -29 493 -28 Q521 -28 536 6 Q555 46 570 108 Q584 84 605 72 Q591 20 577 -9 Q548 -78 491 -74 Q451 -75 407 -28 Q363 19 321 126 Q318 131 316 138 Q213 60 102 14 Q83 34 60 44 Q187 93 301 181 Q263 301 243 465 L66 441 L57 481 L239 505 Q227 632 226 789 L272 794 Q272 638 283 511 L549 546 L558 506 L287 471 Q305 322 337 212 Q439 300 492 399 ZM843 793 L888 793 L888 21 Q889 -87 778 -87 Q740 -86 700 -81 Q699 -58 686 -34 Q737 -42 777 -43 Q845 -46 843 26 L843 793 ZM652 659 L695 659 L695 150 L652 150 L652 659 ZM340 724 L378 749 Q413 718 447 684 Q480 649 506 618 L476 587 Q410 664 340 724 Z" /><glyph glyph-name="" unicode="&#x5217;" d="M207 267 L240 295 Q274 277 315 250 Q355 224 392 196 Q461 314 484 459 L273 459 Q213 325 116 232 Q97 245 71 251 Q166 342 218 447 Q271 553 293 679 L91 679 L91 720 L581 720 L581 679 L339 679 Q321 581 290 500 L529 500 L529 463 Q500 270 405 130 Q311 -9 146 -102 Q130 -84 100 -74 Q277 21 369 158 Q296 215 207 267 ZM847 795 L892 795 L892 24 Q891 -34 861 -60 Q831 -86 779 -85 Q740 -85 699 -81 Q696 -58 684 -33 Q737 -42 776 -42 Q848 -44 847 27 L847 795 ZM653 649 L696 649 L696 141 L653 141 L653 649 Z" /><glyph glyph-name="" unicode="&#x5219;" d="M145 743 L529 743 L529 170 L484 170 L484 702 L190 702 L190 148 L145 148 L145 743 ZM364 126 L401 148 Q498 76 588 -5 L567 -45 Q471 47 364 126 ZM315 607 L360 607 L360 316 Q362 177 306 80 Q249 -16 107 -91 Q90 -70 64 -64 Q210 8 264 97 Q318 187 315 321 L315 607 ZM657 701 L702 701 L702 149 L657 149 L657 701 ZM843 795 L888 795 L888 23 Q890 -84 780 -85 Q741 -85 700 -80 Q699 -54 684 -31 Q743 -40 777 -40 Q847 -42 843 28 L843 795 Z" /><glyph glyph-name="" unicode="&#x521b;" d="M165 442 L482 442 L482 251 Q483 148 377 148 Q343 148 308 153 Q307 171 295 196 Q337 190 375 189 Q440 189 439 252 L439 403 L208 403 L208 40 Q208 -24 278 -24 L418 -25 Q462 -25 484 -11 Q506 1 515 36 Q523 64 527 96 Q543 73 564 63 Q558 34 550 10 Q537 -31 508 -49 Q478 -67 423 -66 L276 -67 Q164 -65 165 40 L165 442 ZM843 793 L888 793 L888 21 Q889 -87 778 -87 Q740 -86 700 -81 Q699 -58 686 -34 Q737 -42 777 -43 Q845 -46 843 26 L843 793 ZM327 800 L367 777 Q357 753 345 729 Q380 700 425 659 Q470 619 512 579 Q554 539 581 511 L556 471 Q509 521 446 582 Q383 643 326 693 Q279 613 217 545 Q154 478 86 432 Q70 452 43 461 Q135 517 211 606 Q287 694 327 800 ZM648 659 L691 659 L691 150 L648 150 L648 659 Z" /><glyph glyph-name="" unicode="&#x5220;" d="M71 403 L147 403 L147 743 L340 743 L340 403 L414 403 L414 743 L605 743 L605 403 L674 403 L674 364 L605 364 L605 15 Q605 -37 584 -59 Q563 -81 519 -80 Q498 -80 476 -78 Q473 -53 458 -33 Q488 -39 517 -39 Q564 -42 562 15 L562 364 L457 364 L457 287 Q457 151 441 61 Q424 -28 390 -89 Q378 -83 369 -80 Q359 -78 343 -77 Q380 -18 397 66 Q414 152 414 294 L414 364 L340 364 L340 28 Q343 -73 254 -69 Q230 -69 211 -66 Q207 -44 192 -23 Q225 -28 250 -28 Q298 -32 297 27 L297 364 L190 364 L190 282 Q191 42 98 -88 Q80 -78 52 -76 Q148 55 147 283 L147 364 L71 364 L71 403 ZM855 785 L900 785 L900 27 Q901 -85 796 -83 Q757 -83 722 -76 Q722 -57 709 -30 Q762 -39 794 -39 Q827 -40 841 -24 Q855 -8 855 29 L855 785 ZM190 704 L190 403 L297 403 L297 704 L190 704 ZM457 704 L457 403 L562 403 L562 704 L457 704 ZM712 668 L755 668 L755 127 L712 127 L712 668 Z" /><glyph glyph-name="" unicode="&#x5229;" d="M81 508 L310 508 L310 695 Q225 681 148 676 Q140 696 122 716 Q231 723 327 739 Q424 755 490 777 L520 742 Q453 720 355 702 L355 508 L555 508 L555 467 L355 467 L355 366 L378 376 Q416 339 463 290 Q509 242 543 201 L518 167 Q485 206 441 255 Q397 303 355 345 L355 -95 L310 -95 L310 380 Q274 297 213 216 Q153 135 99 87 Q80 102 51 106 Q113 158 187 258 Q261 359 302 467 L81 467 L81 508 ZM823 781 L868 781 L868 25 Q868 -88 756 -87 Q723 -87 680 -83 Q676 -58 665 -35 Q714 -43 756 -43 Q825 -46 823 31 L823 781 ZM634 666 L677 666 L677 122 L634 122 L634 666 Z" /><glyph glyph-name="" unicode="&#x522b;" d="M154 742 L533 742 L533 470 L154 470 L154 742 ZM289 423 L332 419 Q332 401 331 374 Q331 348 329 320 L541 320 L525 36 Q516 -76 410 -74 Q382 -74 342 -71 Q340 -50 329 -25 Q374 -32 409 -32 Q478 -32 483 43 L496 280 L325 280 Q295 42 101 -95 Q83 -79 58 -71 Q250 55 280 280 L90 280 L90 320 L285 320 Q289 381 289 423 ZM490 703 L197 703 L197 509 L490 509 L490 703 ZM843 793 L888 793 L888 21 Q889 -87 778 -87 Q740 -86 700 -81 Q699 -58 686 -34 Q737 -42 777 -43 Q845 -46 843 26 L843 793 ZM661 659 L704 659 L704 150 L661 150 L661 659 Z" /><glyph glyph-name="" unicode="&#x5230;" d="M370 575 L409 589 Q486 498 550 400 L520 368 Q501 396 481 424 L187 401 Q148 398 116 389 L93 431 Q124 441 155 478 Q187 516 227 573 Q266 630 299 687 L84 687 L84 728 L555 728 L555 687 L316 687 L344 674 Q269 551 178 440 L456 462 Q414 520 370 575 ZM62 -16 L303 34 L303 218 L105 218 L105 259 L303 259 L303 375 L348 375 L348 259 L536 259 L536 218 L348 218 L348 43 L554 86 L574 52 L87 -58 L62 -16 ZM842 795 L887 795 L887 25 Q888 -83 778 -85 Q739 -85 699 -80 Q698 -54 683 -31 Q740 -40 773 -40 Q844 -41 842 30 L842 795 ZM644 673 L689 673 L689 149 L644 149 L644 673 Z" /><glyph glyph-name="" unicode="&#x5236;" d="M349 795 L394 795 L394 636 L595 636 L595 595 L394 595 L394 460 L622 460 L622 419 L394 419 L394 297 L588 297 L588 77 Q588 -14 504 -17 Q473 -17 444 -12 Q444 10 432 32 Q474 25 502 25 Q545 22 545 78 L545 256 L394 256 L394 -96 L349 -96 L349 256 L200 256 L200 -26 L157 -26 L157 297 L349 297 L349 419 L82 419 L82 460 L349 460 L349 595 L205 595 Q175 537 138 493 Q121 505 91 509 Q186 619 220 761 L262 740 Q246 686 225 636 L349 636 L349 795 ZM842 795 L887 795 L887 22 Q888 -85 777 -85 Q740 -85 700 -79 Q698 -56 686 -32 Q707 -36 732 -39 Q757 -42 773 -42 Q842 -42 842 27 L842 795 ZM686 666 L729 666 L729 125 L686 125 L686 666 Z" /><glyph glyph-name="" unicode="&#x523b;" d="M64 643 L587 643 L587 603 L333 603 Q302 549 261 495 Q220 441 181 399 L376 404 Q420 465 454 531 L489 504 Q363 254 93 114 Q79 134 51 146 Q232 228 344 365 L188 359 Q147 357 116 347 L94 392 Q130 403 164 441 Q196 476 226 518 Q256 560 281 603 L64 603 L64 643 ZM839 791 L884 791 L884 18 Q887 -90 770 -87 Q732 -88 696 -81 Q694 -59 682 -36 Q725 -42 767 -43 Q844 -44 839 21 L839 791 ZM536 372 L570 342 Q505 233 419 144 Q506 71 589 -20 L565 -61 Q523 -15 478 30 Q433 76 390 115 Q249 -18 102 -81 Q89 -64 61 -48 Q209 12 332 122 Q454 232 536 372 ZM665 659 L708 659 L708 139 L665 139 L665 659 ZM220 770 L254 797 Q289 773 326 743 Q362 712 391 682 L369 645 Q335 679 296 712 Q256 745 220 770 Z" /><glyph glyph-name="" unicode="&#x524d;" d="M151 501 L480 501 L480 1 Q482 -88 398 -85 Q384 -85 365 -83 Q347 -82 332 -80 Q330 -57 317 -35 Q334 -38 355 -41 Q377 -44 393 -44 Q437 -47 435 6 L435 107 L196 107 L196 -94 L151 -94 L151 501 ZM693 798 L735 776 Q715 744 684 705 Q653 667 621 634 L924 634 L924 593 L65 593 L65 634 L393 634 Q358 671 320 706 Q282 740 248 767 L286 793 Q321 763 359 729 Q397 694 427 660 L406 634 L563 634 Q596 666 633 712 Q670 758 693 798 ZM196 460 L196 323 L435 323 L435 460 L196 460 ZM196 283 L196 146 L435 146 L435 283 L196 283 ZM795 512 L840 512 L840 0 Q842 -90 750 -87 Q734 -87 711 -85 Q688 -83 672 -81 Q671 -57 656 -34 Q676 -37 703 -41 Q729 -44 746 -44 Q795 -45 795 8 L795 512 ZM613 452 L656 452 L656 84 L613 84 L613 452 Z" /><glyph glyph-name="" unicode="&#x5267;" d="M242 238 L389 238 L389 365 L191 365 Q178 119 84 -31 Q61 -19 37 -17 Q99 80 126 193 Q152 307 151 479 L151 743 L590 743 L590 533 L194 533 L194 469 Q194 434 193 404 L389 404 L389 511 L432 511 L432 404 L628 404 L628 365 L432 365 L432 238 L579 238 L579 -82 L536 -82 L536 -13 L285 -13 L285 -82 L242 -82 L242 238 ZM194 704 L194 572 L547 572 L547 704 L194 704 ZM838 793 L883 793 L883 22 Q883 -87 780 -85 Q739 -85 710 -80 Q708 -57 696 -33 Q716 -37 738 -39 Q759 -42 774 -42 Q838 -45 838 27 L838 793 ZM285 199 L285 27 L536 27 L536 199 L285 199 ZM685 666 L728 666 L728 125 L685 125 L685 666 Z" /><glyph glyph-name="" unicode="&#x527d;" d="M77 745 L605 745 L605 706 L430 706 L430 615 L566 615 L566 414 L119 414 L119 615 L253 615 L253 706 L77 706 L77 745 ZM842 795 L887 795 L887 14 Q887 -80 794 -80 Q749 -79 700 -72 Q698 -51 685 -28 Q742 -37 789 -38 Q843 -38 842 19 L842 795 ZM74 224 L609 224 L609 184 L371 184 L371 5 Q373 -84 290 -80 Q268 -80 235 -76 Q232 -54 219 -31 Q238 -34 258 -37 Q277 -39 289 -39 Q329 -42 328 10 L328 184 L74 184 L74 224 ZM677 668 L721 668 L721 155 L677 155 L677 668 ZM145 336 L540 336 L540 297 L145 297 L145 336 ZM523 577 L430 577 L430 451 L523 451 L523 577 ZM296 577 L296 451 L387 451 L387 577 L296 577 ZM162 577 L162 451 L253 451 L253 577 L162 577 ZM219 143 L253 115 Q217 64 172 22 Q126 -19 87 -42 Q76 -32 68 -27 Q60 -22 46 -17 Q91 5 141 51 Q191 96 219 143 ZM434 117 L467 140 Q502 114 543 72 Q584 30 606 3 L579 -32 Q554 1 512 44 Q470 87 434 117 ZM296 706 L296 615 L387 615 L387 706 L296 706 Z" /><glyph glyph-name="" unicode="&#x529b;" d="M137 587 L449 587 Q453 683 452 796 L501 793 Q500 681 495 587 L858 587 L833 77 Q822 -66 678 -66 Q631 -66 589 -59 Q587 -32 572 -9 Q595 -13 624 -15 Q653 -18 678 -18 Q785 -20 789 83 L811 544 L492 544 Q459 94 130 -91 Q109 -71 82 -64 Q258 37 345 188 Q433 340 446 544 L137 544 L137 587 Z" /><glyph glyph-name="" unicode="&#x529f;" d="M445 568 L609 568 Q613 689 613 798 L659 793 Q659 675 655 568 L902 568 L889 82 Q887 3 854 -31 Q820 -67 758 -66 Q718 -65 678 -60 Q677 -31 660 -11 Q719 -20 757 -20 Q840 -24 844 82 L856 526 L653 526 Q652 500 651 474 Q644 328 616 226 Q589 123 535 46 Q481 -29 393 -97 Q374 -81 342 -72 Q479 26 538 149 Q598 272 605 474 Q607 500 607 526 L445 526 L445 568 ZM78 676 L441 676 L441 635 L284 635 L284 163 L452 214 L472 179 L74 51 L43 90 L237 149 L237 635 L78 635 L78 676 Z" /><glyph glyph-name="" unicode="&#x52a0;" d="M577 687 L887 687 L887 -56 L842 -56 L842 21 L623 21 L623 -56 L577 -56 L577 687 ZM623 646 L623 62 L842 62 L842 646 L623 646 ZM227 797 L272 792 Q272 715 271 630 L472 630 L462 66 Q463 -54 339 -53 Q302 -53 260 -48 Q258 -24 243 -1 Q264 -4 291 -7 Q318 -10 340 -10 Q382 -11 401 8 Q419 27 419 71 L427 589 L270 589 Q270 565 269 543 Q264 333 223 184 Q183 36 95 -75 Q74 -60 46 -56 Q141 56 180 195 Q218 335 224 548 Q225 567 225 589 L72 589 L72 630 L226 630 Q227 719 227 797 Z" /><glyph glyph-name="" unicode="&#x52a1;" d="M382 804 L423 777 Q401 737 375 699 L772 699 L772 663 Q689 539 551 452 Q714 366 961 337 Q935 316 923 290 Q795 313 693 347 Q592 380 509 426 Q317 320 74 276 Q64 297 38 317 Q278 352 465 453 Q372 512 293 594 Q236 531 169 479 Q150 495 125 504 Q212 569 275 642 Q338 714 382 804 ZM174 238 L423 238 Q428 266 430 294 Q432 322 433 360 L479 354 Q477 293 468 238 L799 238 L784 37 Q777 -88 652 -83 Q615 -83 574 -77 Q574 -54 559 -31 Q608 -39 649 -40 Q733 -42 739 41 L751 197 L459 197 Q413 -10 150 -100 Q134 -79 105 -65 Q236 -25 311 39 Q386 103 413 197 L174 197 L174 238 ZM345 658 Q333 642 320 625 Q404 539 508 476 Q641 556 714 658 L345 658 Z" /><glyph glyph-name="" unicode="&#x52a8;" d="M649 796 L694 791 Q694 703 692 597 L911 597 L894 55 Q890 -72 770 -71 Q730 -70 689 -66 Q688 -43 675 -18 Q728 -26 770 -27 Q808 -28 828 -9 Q848 10 849 57 L865 556 L691 556 Q689 532 689 512 Q681 352 657 241 Q632 131 586 51 Q540 -28 467 -98 Q451 -81 423 -74 Q498 -6 544 70 Q591 148 614 254 Q637 361 644 515 Q644 535 646 556 L500 556 L500 597 L647 597 Q649 694 649 796 ZM334 324 L378 329 Q407 274 440 198 Q474 122 499 56 L462 31 Q453 55 439 89 L165 44 Q132 38 98 25 L70 64 Q92 76 104 90 Q115 105 126 127 Q153 180 185 261 Q217 342 240 414 L55 414 L55 455 L504 455 L504 414 L287 414 Q259 333 223 240 Q186 148 156 87 L424 128 Q400 184 376 238 Q351 292 334 324 ZM115 698 L468 698 L468 657 L115 657 L115 698 Z" /><glyph glyph-name="" unicode="&#x52a9;" d="M43 33 L136 55 L136 728 L439 728 L439 125 L501 139 L519 106 L72 -7 L43 33 ZM492 584 L636 584 Q640 702 640 798 L686 793 Q686 748 685 694 Q684 639 682 584 L892 584 L879 62 Q873 -68 748 -66 Q708 -65 669 -60 Q667 -31 650 -11 Q706 -20 747 -20 Q830 -21 834 66 L846 543 L680 543 Q679 506 677 474 Q667 268 607 130 Q547 -7 437 -97 Q418 -81 386 -72 Q504 15 563 147 Q622 278 632 474 Q634 509 635 543 L492 543 L492 584 ZM182 269 L182 65 L394 115 L394 269 L182 269 ZM182 478 L182 308 L394 308 L394 478 L182 478 ZM182 687 L182 518 L394 518 L394 687 L182 687 Z" /><glyph glyph-name="" unicode="&#x52c3;" d="M692 798 L736 793 Q736 747 734 687 Q732 627 730 567 L907 567 L889 44 Q889 -78 780 -75 Q765 -75 744 -73 Q724 -71 705 -69 Q704 -46 687 -23 Q736 -32 775 -33 Q844 -35 847 53 L863 527 L728 527 Q727 499 726 474 Q717 273 659 134 Q600 -4 487 -97 Q476 -88 466 -83 Q456 -78 439 -73 Q558 16 617 147 Q676 278 684 474 Q686 500 686 527 L583 527 L583 567 L687 567 Q689 633 691 695 Q692 756 692 798 ZM89 537 L301 537 L301 640 L92 640 L92 679 L301 679 L301 797 L344 797 L344 679 L553 679 L553 640 L344 640 L344 537 L554 537 L554 375 L511 375 L511 498 L133 498 L133 375 L89 375 L89 537 ZM63 145 L305 189 L305 256 Q368 293 427 356 L175 356 L175 395 L483 395 L483 361 Q426 291 348 236 L348 197 L543 233 L557 197 L348 157 L348 5 Q350 -86 252 -84 Q222 -84 196 -80 Q195 -55 180 -33 Q224 -41 252 -41 Q305 -40 305 6 L305 148 L88 107 L63 145 Z" /><glyph glyph-name="" unicode="&#x52d2;" d="M116 406 L278 406 L278 499 L170 499 L170 633 L74 633 L74 672 L170 672 L170 793 L213 793 L213 672 L386 672 L386 793 L429 793 L429 672 L523 672 L523 633 L429 633 L429 499 L321 499 L321 406 L482 406 L482 220 L321 220 L321 119 L517 119 L517 80 L321 80 L321 -96 L278 -96 L278 80 L61 80 L61 119 L278 119 L278 220 L116 220 L116 406 ZM658 797 L704 792 Q705 682 702 568 L904 568 L886 44 Q882 -78 777 -75 Q762 -75 740 -74 Q719 -72 700 -70 Q699 -48 685 -23 Q735 -31 772 -32 Q837 -35 841 49 L858 526 L701 526 Q696 367 675 257 Q654 146 611 63 Q568 -19 497 -96 Q476 -83 445 -78 Q520 -3 566 76 Q611 157 632 264 Q654 371 657 526 L517 526 L517 568 L658 568 Q659 614 659 676 Q659 738 658 797 ZM213 536 L386 536 L386 633 L213 633 L213 536 ZM441 367 L321 367 L321 259 L441 259 L441 367 ZM157 367 L157 259 L278 259 L278 367 L157 367 Z" /><glyph glyph-name="" unicode="&#x5305;" d="M233 494 L610 494 L610 223 L279 223 L279 40 Q277 -23 345 -23 L791 -24 Q864 -24 882 46 Q893 81 900 126 Q917 102 937 92 Q935 79 931 61 Q927 43 923 29 Q900 -65 796 -66 L346 -67 Q232 -66 233 39 L233 494 ZM333 795 L372 771 Q352 720 326 670 L832 670 L819 233 Q815 108 696 111 Q654 111 620 114 Q618 139 602 163 Q624 160 650 158 Q675 156 695 156 Q769 154 774 238 L786 629 L303 629 Q260 557 209 494 Q158 431 106 384 Q84 400 59 406 Q143 476 217 579 Q291 683 333 795 ZM279 453 L279 264 L567 264 L567 453 L279 453 Z" /><glyph glyph-name="" unicode="&#x5308;" d="M325 803 L364 778 Q333 712 294 653 L894 653 L875 56 Q869 -86 727 -84 Q705 -84 678 -82 Q652 -80 631 -75 Q630 -50 616 -28 Q639 -33 670 -37 Q700 -41 724 -41 Q829 -46 831 63 L847 612 L268 612 Q186 494 94 420 Q75 435 46 440 Q140 512 211 605 Q281 697 325 803 ZM661 461 L704 461 L704 65 L182 65 L182 461 L225 461 L225 106 L661 106 L661 461 ZM561 554 L598 531 Q547 441 479 356 Q553 274 607 205 L577 172 Q524 243 452 323 Q380 237 298 168 Q282 182 259 189 Q341 254 425 354 Q334 452 260 520 L298 539 Q326 514 366 475 Q406 435 451 387 Q515 469 561 554 Z" /><glyph glyph-name="" unicode="&#x5316;" d="M877 645 L918 621 Q851 538 770 462 Q688 385 603 321 L603 53 Q602 -25 671 -22 L820 -23 Q855 -22 872 -3 Q890 15 900 57 Q908 88 914 127 Q932 103 952 95 Q948 67 940 37 Q915 -70 821 -66 L672 -67 Q559 -66 558 54 L558 286 Q453 211 368 165 Q353 185 330 194 Q441 255 558 342 L558 795 L603 795 L603 377 Q685 442 755 511 Q826 579 877 645 ZM321 798 L363 771 Q321 662 268 573 L268 -95 L223 -95 L223 503 Q147 395 84 338 Q63 353 39 357 Q122 436 203 558 Q283 679 321 798 Z" /><glyph glyph-name="" unicode="&#x5339;" d="M140 716 L868 716 L868 674 L644 674 L644 248 Q644 213 655 200 Q667 187 695 188 L758 188 Q805 185 818 246 Q823 279 827 309 Q846 288 866 278 Q863 254 858 232 Q842 145 761 147 L698 147 Q598 144 601 245 L601 674 L444 674 L444 472 Q444 349 404 263 Q364 178 280 110 Q261 128 235 133 Q323 202 362 282 Q402 363 401 473 L401 674 L185 674 L185 -25 L901 -25 L901 -67 L140 -67 L140 716 Z" /><glyph glyph-name="" unicode="&#x533a;" d="M144 729 L856 729 L856 686 L191 686 L191 -13 L895 -13 L895 -56 L144 -56 L144 729 ZM299 553 L338 578 Q372 548 428 494 Q485 440 550 374 Q648 494 703 606 L742 583 Q683 465 582 341 Q652 271 710 211 Q769 151 799 117 L770 78 Q731 120 673 180 Q616 240 552 306 Q495 240 431 182 Q368 124 304 81 Q288 98 259 108 Q399 201 520 338 Q453 406 395 463 Q336 520 299 553 Z" /><glyph glyph-name="" unicode="&#x533b;" d="M131 732 L883 732 L883 689 L178 689 L178 -13 L920 -13 L920 -56 L131 -56 L131 732 ZM234 351 L527 351 Q533 388 535 427 Q537 466 538 518 L387 518 Q349 449 287 385 Q269 400 241 405 Q358 510 403 663 L442 641 Q426 595 408 557 L811 557 L811 518 L583 518 Q582 433 573 351 L877 351 L877 312 L566 312 Q545 216 472 147 Q398 78 269 28 Q255 50 229 66 Q478 149 520 312 L234 312 L234 351 ZM544 227 L575 256 Q721 176 852 82 L829 38 Q693 142 544 227 Z" /><glyph glyph-name="" unicode="&#x5341;" d="M475 796 L524 796 L524 410 L940 410 L940 365 L524 365 L524 -96 L475 -96 L475 365 L59 365 L59 410 L475 410 L475 796 Z" /><glyph glyph-name="" unicode="&#x534e;" d="M810 729 L845 702 Q791 651 720 602 Q650 554 576 514 L576 408 Q576 347 635 348 L770 348 Q829 347 840 397 Q845 413 850 439 Q855 465 859 492 Q873 471 896 459 Q889 414 879 379 Q857 301 770 305 L636 305 Q528 302 531 407 L531 490 Q447 447 380 428 Q371 452 347 464 Q435 490 531 538 L531 795 L576 795 L576 563 Q716 639 810 729 ZM478 294 L524 294 L524 186 L944 186 L944 143 L524 143 L524 -96 L478 -96 L478 143 L55 143 L55 186 L478 186 L478 294 ZM317 798 L350 767 Q310 701 261 641 L261 283 L216 283 L216 590 Q157 528 94 484 Q77 501 53 508 Q135 565 208 647 Q280 730 317 798 Z" /><glyph glyph-name="" unicode="&#x534f;" d="M391 593 L549 593 Q552 694 552 795 L598 790 Q597 683 594 593 L819 593 L805 61 Q798 -69 673 -66 Q634 -66 594 -61 Q592 -32 575 -12 Q632 -20 672 -21 Q756 -22 760 65 L772 552 L592 552 Q590 513 588 473 Q577 280 518 143 Q458 5 339 -96 Q323 -80 293 -72 Q417 30 474 159 Q531 289 543 472 Q546 511 547 552 L391 552 L391 593 ZM182 791 L227 791 L227 524 L349 524 L349 483 L227 483 L227 -94 L182 -94 L182 483 L53 483 L53 524 L182 524 L182 791 ZM400 430 L438 410 Q405 276 329 172 L297 204 Q365 295 400 430 ZM829 409 L870 423 Q925 315 964 207 L928 179 Q885 300 829 409 Z" /><glyph glyph-name="" unicode="&#x5353;" d="M66 113 L477 113 L477 218 L193 218 L193 554 L463 554 L463 796 L508 796 L508 691 L863 691 L863 652 L508 652 L508 554 L807 554 L807 218 L523 218 L523 113 L933 113 L933 74 L523 74 L523 -96 L477 -96 L477 74 L66 74 L66 113 ZM236 257 L764 257 L764 368 L236 368 L236 257 ZM764 515 L236 515 L236 405 L764 405 L764 515 Z" /><glyph glyph-name="" unicode="&#x5355;" d="M707 799 L748 773 Q689 698 619 634 L820 634 L820 263 L523 263 L523 153 L945 153 L945 112 L523 112 L523 -96 L477 -96 L477 112 L55 112 L55 153 L477 153 L477 263 L180 263 L180 634 L390 634 Q358 669 317 706 Q276 743 242 770 L281 795 Q314 771 355 733 Q397 695 426 665 L403 634 L561 634 Q642 708 707 799 ZM523 304 L777 304 L777 429 L523 429 L523 304 ZM223 429 L223 304 L477 304 L477 429 L223 429 ZM223 593 L223 469 L477 469 L477 593 L223 593 ZM777 593 L523 593 L523 469 L777 469 L777 593 Z" /><glyph glyph-name="" unicode="&#x5357;" d="M488 796 L533 793 L524 677 L934 677 L934 636 L521 636 L510 504 L869 504 L869 23 Q869 -89 764 -87 Q734 -87 706 -84 Q704 -60 689 -37 Q735 -43 763 -43 Q827 -47 824 24 L824 463 L178 463 L178 -96 L133 -96 L133 504 L465 504 L476 636 L64 636 L64 677 L478 677 L488 796 ZM235 151 L477 151 L477 265 L256 265 L256 304 L424 304 Q398 333 368 365 Q338 397 311 423 L348 442 Q375 418 405 386 Q436 355 456 330 L434 304 L538 304 Q566 335 595 372 Q624 409 645 443 L684 424 Q665 396 640 364 Q615 332 590 304 L742 304 L742 265 L521 265 L521 151 L764 151 L764 112 L521 112 L521 -74 L477 -74 L477 112 L235 112 L235 151 Z" /><glyph glyph-name="" unicode="&#x535a;" d="M692 763 L721 789 Q780 759 824 722 L807 687 L920 687 L920 648 L640 648 L640 568 L865 568 L865 212 L821 212 L821 278 L640 278 L640 214 L597 214 L597 278 L416 278 L416 212 L373 212 L373 568 L597 568 L597 648 L323 648 L323 687 L597 687 L597 795 L640 795 L640 687 L805 687 Q748 731 692 763 ZM51 489 L173 489 L173 795 L216 795 L216 489 L329 489 L329 450 L216 450 L216 -96 L173 -96 L173 450 L51 450 L51 489 ZM748 231 L791 231 L791 170 L950 170 L950 130 L791 130 L791 5 Q790 -87 703 -87 Q672 -87 637 -84 Q634 -61 621 -38 Q665 -45 702 -45 Q748 -47 748 8 L748 130 L297 130 L297 170 L748 170 L748 231 ZM640 404 L640 316 L821 316 L821 404 L640 404 ZM416 404 L416 316 L597 316 L597 404 L416 404 ZM416 528 L416 441 L597 441 L597 528 L416 528 ZM821 528 L640 528 L640 441 L821 441 L821 528 ZM434 93 L473 112 Q498 92 526 63 Q555 34 575 9 L548 -24 Q526 3 496 36 Q465 68 434 93 Z" /><glyph glyph-name="" unicode="&#x5360;" d="M443 796 L490 796 L490 618 L911 618 L911 574 L490 574 L490 365 L819 365 L819 -96 L771 -96 L771 -19 L221 -19 L221 -96 L174 -96 L174 365 L443 365 L443 796 ZM221 322 L221 24 L771 24 L771 322 L221 322 Z" /><glyph glyph-name="" unicode="&#x5361;" d="M436 795 L481 795 L481 632 L818 632 L818 591 L481 591 L481 423 L928 423 L928 382 L72 382 L72 423 L436 423 L436 795 ZM435 349 L482 349 L482 -97 L435 -97 L435 349 ZM534 257 Q618 214 701 168 Q783 121 834 89 L814 49 Q747 93 665 139 Q583 186 505 223 L534 257 Z" /><glyph glyph-name="" unicode="&#x5373;" d="M329 232 L370 249 Q412 197 459 132 Q505 66 535 17 L502 -14 Q475 32 435 89 L183 -26 Q157 -38 137 -56 L112 -17 Q132 5 131 44 L131 728 L480 728 L480 311 L176 311 L176 19 L412 123 Q368 184 329 232 ZM599 722 L894 722 L894 148 Q894 36 786 35 Q770 35 747 37 Q725 38 714 40 Q713 62 702 85 Q740 79 783 78 Q849 77 851 153 L851 681 L644 681 L644 -96 L599 -96 L599 722 ZM176 687 L176 539 L437 539 L437 687 L176 687 ZM176 352 L437 352 L437 500 L176 500 L176 352 Z" /><glyph glyph-name="" unicode="&#x5378;" d="M84 471 L338 471 L338 634 L226 634 Q175 552 125 502 Q108 516 83 521 Q138 573 186 650 Q235 726 261 802 L299 776 Q279 726 249 673 L566 673 L566 634 L381 634 L381 471 L579 471 L579 431 L381 431 L381 289 L564 289 L564 250 L381 250 L381 77 L572 102 L587 66 L91 -9 L70 34 L174 48 L174 331 L217 331 L217 54 L338 71 L338 431 L84 431 L84 471 ZM624 700 L903 700 L903 137 Q903 26 795 25 Q779 25 756 27 Q733 28 722 30 Q722 50 711 75 Q749 68 792 67 Q858 66 860 142 L860 661 L668 661 L668 -96 L624 -96 L624 700 Z" /><glyph glyph-name="" unicode="&#x5382;" d="M179 721 L905 721 L905 678 L226 678 L226 389 Q226 249 188 128 Q150 6 79 -85 Q54 -73 28 -71 Q100 12 140 131 Q179 249 179 392 L179 721 Z" /><glyph glyph-name="" unicode="&#x5386;" d="M521 656 L567 651 Q566 597 566 556 Q566 515 563 455 L868 455 L848 35 Q841 -77 728 -75 Q710 -75 685 -73 Q661 -70 639 -67 Q638 -46 627 -23 Q652 -26 678 -29 Q705 -31 724 -31 Q799 -33 803 40 L821 414 L560 414 Q547 237 484 112 Q421 -13 293 -97 Q274 -81 242 -72 Q376 5 440 124 Q504 243 515 414 L288 414 L288 455 L517 455 Q519 492 520 548 Q521 603 521 656 ZM160 734 L926 734 L926 693 L205 693 L205 367 Q204 72 79 -66 Q54 -54 29 -50 Q161 78 160 368 L160 734 Z" /><glyph glyph-name="" unicode="&#x539a;" d="M314 632 L820 632 L820 375 L314 375 L314 632 ZM297 304 L837 304 L837 269 Q799 242 740 213 Q680 184 612 159 L612 145 L937 145 L937 106 L612 106 L612 6 Q613 -45 589 -67 Q566 -90 510 -89 Q480 -89 451 -84 Q447 -61 436 -39 Q471 -46 511 -46 Q544 -46 557 -34 Q570 -22 569 6 L569 106 L230 106 L230 145 L569 145 L569 181 Q623 202 674 223 Q724 245 761 265 L297 265 L297 304 ZM157 742 L918 742 L918 703 L202 703 L202 381 Q203 218 176 107 Q149 -4 86 -92 Q63 -80 36 -76 Q105 13 131 116 Q158 219 157 375 L157 742 ZM777 593 L357 593 L357 522 L777 522 L777 593 ZM357 415 L777 415 L777 485 L357 485 L357 415 Z" /><glyph glyph-name="" unicode="&#x539f;" d="M553 689 L595 668 Q572 614 542 564 L839 564 L839 215 L617 215 L617 2 Q616 -90 521 -89 Q507 -89 489 -88 Q471 -87 458 -85 Q455 -62 442 -38 Q459 -41 481 -44 Q502 -46 519 -46 Q573 -48 572 8 L572 215 L333 215 L333 564 L493 564 Q529 624 553 689 ZM182 736 L910 736 L910 695 L227 695 L227 376 Q227 242 190 125 Q154 9 85 -79 Q64 -67 36 -66 Q106 14 144 128 Q182 242 182 379 L182 736 ZM794 524 L378 524 L378 409 L794 409 L794 524 ZM378 254 L794 254 L794 370 L378 370 L378 254 ZM418 156 L455 129 Q420 81 371 32 Q322 -15 270 -53 Q253 -38 228 -26 Q356 62 418 156 ZM719 136 L756 160 Q801 122 850 77 Q899 31 939 -10 L915 -47 Q871 0 819 48 Q768 96 719 136 Z" /><glyph glyph-name="" unicode="&#x53bb;" d="M66 365 L476 365 L476 581 L159 581 L159 622 L476 622 L476 795 L522 795 L522 622 L841 622 L841 581 L522 581 L522 365 L933 365 L933 324 L507 324 Q458 249 388 163 Q318 77 255 12 L742 36 Q667 127 602 197 L643 217 Q690 169 753 95 Q817 20 868 -48 L838 -84 Q808 -42 773 -1 L256 -30 Q239 -30 218 -33 Q196 -36 180 -41 L158 -2 Q176 4 191 15 Q205 26 227 47 Q281 102 342 177 Q403 252 452 324 L66 324 L66 365 Z" /><glyph glyph-name="" unicode="&#x53c2;" d="M442 802 L481 779 Q393 685 292 605 L700 621 Q666 652 635 678 Q603 704 580 719 L615 743 Q657 714 718 661 Q779 607 819 569 L797 531 Q774 553 741 584 L466 571 L484 565 Q467 517 440 475 L913 475 L913 434 L633 434 Q697 369 777 324 Q857 280 965 249 Q932 228 922 208 Q805 253 723 308 Q641 363 579 434 L414 434 Q295 276 88 192 Q73 210 43 223 Q138 255 221 309 Q303 362 362 434 L78 434 L78 475 L392 475 Q422 520 439 570 L301 565 Q283 564 261 561 Q239 559 222 554 L195 597 Q214 601 228 609 Q243 617 264 633 Q313 672 362 719 Q411 767 442 802 ZM763 178 L802 151 Q693 51 538 -13 Q382 -77 201 -99 Q193 -76 166 -60 Q353 -42 508 21 Q663 85 763 178 ZM641 275 L677 248 Q603 184 497 133 Q391 81 269 56 Q261 76 235 89 Q359 116 464 164 Q569 212 641 275 ZM541 374 L576 346 Q517 295 436 255 Q355 215 260 191 Q252 213 228 226 Q436 277 541 374 Z" /><glyph glyph-name="" unicode="&#x53c8;" d="M134 701 L794 701 L794 658 Q766 535 703 421 Q640 307 545 209 Q715 40 953 -30 Q920 -54 904 -81 Q669 14 509 172 Q338 8 95 -84 Q79 -58 47 -40 Q303 45 474 209 Q307 390 218 656 L134 656 L134 701 ZM741 656 L272 656 Q350 421 510 245 Q598 339 657 443 Q715 547 741 656 Z" /><glyph glyph-name="" unicode="&#x53ca;" d="M159 725 L763 725 L763 691 L647 435 L837 435 L837 399 Q777 222 638 99 Q778 -2 969 -40 Q945 -58 932 -87 Q748 -38 602 69 Q461 -40 249 -98 Q240 -75 209 -58 Q419 -10 564 99 Q417 220 342 381 Q302 243 232 147 Q162 51 69 -12 Q53 6 26 14 Q171 105 250 268 Q330 431 338 684 L159 684 L159 725 ZM385 684 Q381 554 358 448 Q438 262 600 129 Q734 243 789 396 L638 396 Q612 396 585 392 L571 426 Q586 432 596 442 Q606 453 616 475 L709 684 L385 684 Z" /><glyph glyph-name="" unicode="&#x53cb;" d="M478 788 Q467 691 448 612 L920 612 L920 572 L438 572 Q434 557 430 543 Q410 473 380 408 L783 408 L783 372 Q724 208 602 97 Q747 -7 953 -49 Q921 -70 908 -92 Q703 -36 567 68 Q434 -37 221 -100 Q207 -78 183 -64 Q399 -3 530 97 Q417 196 342 331 Q252 169 83 46 Q64 63 35 70 Q171 158 257 282 Q343 405 385 550 Q389 561 392 572 L98 572 L98 612 L402 612 Q424 695 433 798 L478 788 ZM736 369 L369 369 Q450 223 566 127 Q681 228 736 369 Z" /><glyph glyph-name="" unicode="&#x53cc;" d="M469 700 L874 700 L874 664 Q843 390 717 195 Q819 46 976 -41 Q942 -55 924 -73 Q778 24 688 154 Q583 11 416 -82 Q399 -64 367 -53 Q539 28 662 196 Q549 383 516 659 L469 659 L469 700 ZM827 659 L558 659 Q594 401 690 239 Q799 410 827 659 ZM100 485 L136 511 Q166 482 210 434 Q253 386 301 330 Q367 485 378 645 L96 645 L96 686 L425 686 L425 649 Q405 453 334 291 Q378 240 414 196 Q450 151 470 124 L437 88 Q419 114 387 155 Q354 197 313 246 Q228 76 85 -38 Q66 -22 35 -17 Q113 39 175 117 Q236 194 280 285 Q230 345 182 399 Q134 452 100 485 Z" /><glyph glyph-name="" unicode="&#x53cd;" d="M831 763 L865 724 Q757 701 596 685 Q434 669 251 667 L251 468 L820 468 L820 429 Q749 247 611 115 Q745 5 950 -56 Q922 -70 907 -95 Q713 -30 576 84 Q449 -23 263 -95 Q246 -73 215 -61 Q409 3 542 115 Q409 239 329 426 L251 426 L251 392 Q252 238 215 128 Q178 19 97 -78 Q77 -63 47 -61 Q135 37 171 142 Q207 248 206 392 L206 707 Q398 709 561 724 Q724 739 831 763 ZM773 426 L377 426 Q461 254 576 145 Q701 263 773 426 Z" /><glyph glyph-name="" unicode="&#x53d1;" d="M471 796 L517 783 Q494 642 466 540 L904 540 L904 499 L452 499 Q432 439 405 381 L781 381 L781 345 Q726 203 614 98 Q764 -1 951 -41 Q919 -62 906 -84 Q720 -30 578 68 Q443 -42 240 -97 Q227 -76 204 -63 Q402 -15 542 95 Q428 184 356 290 Q262 131 89 15 Q73 33 41 40 Q178 123 267 241 Q355 359 404 499 L123 499 L123 538 Q147 569 178 632 Q210 694 226 744 L267 722 Q247 671 223 622 Q199 573 177 540 L418 540 Q451 649 471 796 ZM385 342 Q382 335 378 327 Q455 213 577 124 Q689 224 734 342 L385 342 ZM633 729 L669 756 Q706 730 753 694 Q800 659 834 628 L810 592 Q772 626 722 665 Q671 703 633 729 Z" /><glyph glyph-name="" unicode="&#x53d6;" d="M40 74 L144 99 L144 702 L69 702 L69 741 L514 741 L514 702 L443 702 L443 174 L525 194 L545 159 L443 131 L443 -65 Q589 18 691 172 Q582 360 544 643 L504 643 L504 682 L889 682 L889 648 Q856 360 741 171 Q837 24 975 -55 Q943 -68 927 -86 Q803 0 717 131 Q623 -6 487 -95 Q472 -76 443 -66 L443 -94 L400 -94 L400 120 L69 32 L40 74 ZM844 643 L586 643 Q623 379 717 213 Q815 385 844 643 ZM187 702 L187 535 L400 535 L400 702 L187 702 ZM187 301 L187 110 L400 163 L400 301 L187 301 ZM187 498 L187 338 L400 338 L400 498 L187 498 Z" /><glyph glyph-name="" unicode="&#x53d7;" d="M202 334 L750 334 L750 300 Q673 159 549 71 Q707 -22 927 -49 Q915 -58 907 -68 Q899 -77 890 -94 Q673 -56 512 43 Q343 -60 101 -101 Q92 -77 67 -62 Q180 -44 283 -11 Q386 20 473 71 Q352 158 273 293 L202 293 L202 334 ZM99 506 L599 506 Q640 545 691 605 Q743 665 770 704 L808 679 Q779 643 736 594 Q692 545 652 506 L901 506 L901 322 L856 322 L856 465 L144 465 L144 322 L99 322 L99 506 ZM693 293 L320 293 Q402 172 511 95 Q625 172 693 293 ZM815 786 L849 747 Q762 731 637 720 Q513 708 386 703 Q259 697 165 698 Q160 721 144 739 Q237 737 360 742 Q482 747 603 758 Q725 769 815 786 ZM190 649 L230 668 Q256 643 288 607 Q319 571 341 542 L311 517 Q289 544 255 583 Q221 622 190 649 ZM429 669 L469 684 Q491 659 516 624 Q541 588 562 555 L530 530 Q510 561 483 600 Q455 638 429 669 Z" /><glyph glyph-name="" unicode="&#x53d8;" d="M181 323 L764 323 L764 288 Q678 157 545 70 Q712 -19 929 -48 Q907 -63 890 -92 Q673 -53 504 44 Q327 -56 93 -99 Q84 -76 59 -60 Q284 -24 462 71 Q335 156 251 281 L181 281 L181 323 ZM391 775 L428 804 Q459 783 494 753 Q530 722 559 693 L540 664 L911 664 L911 622 L639 622 L639 363 L594 363 L594 622 L406 622 L406 363 L361 363 L361 622 L86 622 L86 664 L525 664 Q497 691 460 722 Q424 752 391 775 ZM706 281 L302 281 Q382 170 503 94 Q623 169 706 281 ZM265 554 L293 521 Q252 474 197 424 Q141 374 93 339 L69 376 Q117 412 171 460 Q224 508 265 554 ZM702 529 L738 555 Q775 528 829 481 Q883 435 926 393 L902 354 Q865 391 807 443 Q748 494 702 529 Z" /><glyph glyph-name="" unicode="&#x53e3;" d="M161 689 L833 689 L833 -48 L786 -48 L786 48 L208 48 L208 -48 L161 -48 L161 689 ZM208 646 L208 91 L786 91 L786 646 L208 646 Z" /><glyph glyph-name="" unicode="&#x53e6;" d="M220 742 L815 742 L815 450 L220 450 L220 742 ZM770 701 L265 701 L265 491 L770 491 L770 701 ZM145 304 L423 304 Q429 353 428 425 L475 420 Q472 352 468 304 L857 304 L836 37 Q829 -88 704 -83 Q667 -83 626 -77 Q625 -54 611 -31 Q660 -39 701 -40 Q784 -42 791 41 L809 263 L462 263 Q457 230 448 201 Q415 91 332 14 Q249 -61 122 -100 Q106 -78 77 -64 Q201 -33 287 39 Q374 112 407 219 Q413 237 418 263 L145 263 L145 304 Z" /><glyph glyph-name="" unicode="&#x53ea;" d="M196 726 L804 726 L804 281 L196 281 L196 726 ZM757 683 L243 683 L243 325 L757 325 L757 683 ZM349 206 L391 184 Q331 100 254 26 Q176 -47 112 -87 Q94 -68 66 -59 Q138 -14 218 58 Q299 131 349 206 ZM607 179 L649 203 Q710 153 787 82 Q865 11 922 -47 L895 -89 Q828 -18 749 54 Q671 127 607 179 Z" /><glyph glyph-name="" unicode="&#x53eb;" d="M386 697 L386 75 L341 75 L341 131 L158 131 L158 55 L113 55 L113 697 L386 697 ZM158 656 L158 173 L341 173 L341 656 L158 656 ZM818 792 L863 792 L863 -96 L818 -96 L818 179 L602 127 Q571 118 539 96 L519 132 Q530 145 534 162 Q538 179 538 211 L538 696 L583 696 L583 168 L818 222 L818 792 Z" /><glyph glyph-name="" unicode="&#x53ef;" d="M206 521 L555 521 L555 163 L206 163 L206 521 ZM61 715 L939 715 L939 671 L770 671 L770 31 Q774 -88 647 -86 Q628 -86 600 -84 Q572 -81 553 -78 Q553 -58 539 -29 Q562 -33 593 -36 Q624 -40 646 -40 Q689 -41 706 -22 Q723 -4 722 38 L722 671 L61 671 L61 715 ZM510 479 L251 479 L251 204 L510 204 L510 479 Z" /><glyph glyph-name="" unicode="&#x53f0;" d="M804 302 L804 -96 L757 -96 L757 -27 L242 -27 L242 -96 L195 -96 L195 302 L804 302 ZM242 259 L242 16 L757 16 L757 259 L242 259 ZM610 629 L648 655 Q704 608 776 538 Q849 467 910 400 L882 363 Q847 402 807 442 L221 422 Q201 421 173 417 Q145 412 127 406 L102 451 Q150 463 189 496 Q234 535 286 589 Q339 644 386 700 Q433 756 463 800 L507 775 Q451 700 377 620 Q304 540 226 466 L766 483 Q687 561 610 629 Z" /><glyph glyph-name="" unicode="&#x53f2;" d="M223 254 L255 285 Q336 175 427 109 Q480 176 488 326 L182 326 L182 619 L490 619 L490 795 L535 795 L535 619 L829 619 L829 326 L533 326 Q523 161 465 83 Q532 44 619 19 Q707 -6 797 -19 Q886 -32 960 -32 Q937 -54 929 -84 Q601 -51 434 50 Q377 -2 282 -41 Q187 -80 78 -98 Q66 -76 38 -60 Q154 -43 249 -6 Q343 30 396 77 Q307 142 223 254 ZM225 577 L225 368 L490 368 L490 394 L490 577 L225 577 ZM786 577 L535 577 L535 393 L535 368 L786 368 L786 577 Z" /><glyph glyph-name="" unicode="&#x53f3;" d="M463 797 L508 784 Q490 696 462 613 L941 613 L941 570 L446 570 Q402 456 330 354 L836 354 L836 -96 L791 -96 L791 -20 L335 -20 L335 -96 L290 -96 L290 299 Q204 191 83 100 Q65 117 38 126 Q171 227 258 336 Q345 445 396 570 L87 570 L87 613 L412 613 Q444 698 463 797 ZM791 313 L335 313 L335 21 L791 21 L791 313 Z" /><glyph glyph-name="" unicode="&#x53f6;" d="M369 689 L369 68 L324 68 L324 123 L152 123 L152 46 L107 46 L107 689 L369 689 ZM152 648 L152 164 L324 164 L324 648 L152 648 ZM414 455 L658 455 L658 792 L703 792 L703 455 L951 455 L951 414 L703 414 L703 -96 L658 -96 L658 414 L414 414 L414 455 Z" /><glyph glyph-name="" unicode="&#x53f7;" d="M226 744 L773 744 L773 499 L226 499 L226 744 ZM62 393 L938 393 L938 352 L341 352 L304 233 L803 233 L772 40 Q762 -30 728 -59 Q693 -88 627 -87 Q596 -87 565 -83 Q534 -79 513 -74 Q512 -53 501 -30 Q525 -35 560 -40 Q595 -44 628 -44 Q714 -48 727 44 L751 192 L243 192 L295 352 L62 352 L62 393 ZM728 703 L271 703 L271 540 L728 540 L728 703 Z" /><glyph glyph-name="" unicode="&#x53f8;" d="M93 553 L731 553 L731 510 L93 510 L93 553 ZM138 742 L851 742 L851 57 Q851 -88 718 -86 Q697 -86 673 -84 Q650 -81 633 -79 Q632 -55 619 -30 Q670 -38 715 -39 Q805 -43 804 63 L804 699 L138 699 L138 742 ZM588 334 L231 334 L231 129 L588 129 L588 334 ZM185 87 L185 375 L633 375 L633 87 L185 87 Z" /><glyph glyph-name="" unicode="&#x5404;" d="M233 260 L769 260 L769 -95 L723 -95 L723 -41 L279 -41 L279 -95 L233 -95 L233 260 ZM382 802 L423 775 Q402 737 375 697 L772 697 L772 661 Q691 534 548 438 Q710 349 961 321 Q932 296 926 270 Q797 292 695 328 Q592 363 508 413 Q322 300 70 248 Q61 270 36 288 Q290 337 468 438 Q371 501 287 584 Q223 512 155 460 Q137 476 111 484 Q290 618 382 802 ZM279 219 L279 0 L723 0 L723 219 L279 219 ZM345 656 Q329 634 312 614 Q401 527 507 462 Q645 549 718 656 L345 656 Z" /><glyph glyph-name="" unicode="&#x5408;" d="M221 276 L787 276 L787 -97 L742 -97 L742 -30 L266 -30 L266 -97 L221 -97 L221 276 ZM266 234 L266 11 L742 11 L742 234 L266 234 ZM502 805 L539 778 Q529 762 521 747 Q602 643 717 560 Q832 476 963 434 Q933 412 919 392 Q777 452 669 539 Q562 626 497 713 Q422 607 312 518 Q202 430 77 377 Q62 397 34 412 Q186 472 312 580 Q439 688 502 805 ZM271 451 L743 451 L743 410 L271 410 L271 451 Z" /><glyph glyph-name="" unicode="&#x540c;" d="M138 724 L866 724 L866 29 Q865 -90 750 -89 Q731 -89 709 -87 Q686 -84 671 -82 Q668 -59 657 -36 Q702 -44 743 -45 Q823 -47 820 30 L820 683 L183 683 L183 -96 L138 -96 L138 724 ZM272 554 L732 554 L732 515 L272 515 L272 554 ZM331 383 L672 383 L672 97 L331 97 L331 383 ZM628 344 L375 344 L375 136 L628 136 L628 344 Z" /><glyph glyph-name="" unicode="&#x540d;" d="M311 499 L347 525 Q374 509 427 470 Q480 432 512 405 Q673 511 780 641 L393 641 Q303 536 186 453 Q175 470 145 476 Q246 548 327 635 Q408 722 458 807 L501 790 Q467 735 427 682 L839 682 L839 646 Q668 419 389 284 L858 284 L858 -93 L813 -93 L813 -40 L333 -40 L333 -93 L288 -93 L288 238 Q190 199 83 168 Q75 188 49 204 Q294 271 472 379 Q436 409 387 445 Q339 481 311 499 ZM813 243 L333 243 L333 1 L813 1 L813 243 Z" /><glyph glyph-name="" unicode="&#x540e;" d="M320 308 L835 308 L835 -96 L790 -96 L790 -20 L365 -20 L365 -96 L320 -96 L320 308 ZM365 267 L365 21 L790 21 L790 267 L365 267 ZM801 762 L834 723 Q729 699 572 683 Q414 667 235 663 L235 511 L933 511 L933 470 L235 470 L235 383 Q236 241 201 134 Q167 27 90 -68 Q70 -55 40 -50 Q120 36 155 139 Q191 241 190 382 L190 702 Q392 705 559 722 Q726 738 801 762 Z" /><glyph glyph-name="" unicode="&#x5411;" d="M326 432 L673 432 L673 121 L326 121 L326 432 ZM439 796 L484 782 Q443 696 395 626 L866 626 L866 29 Q864 -88 748 -86 Q708 -86 662 -82 Q659 -59 648 -35 Q670 -38 696 -41 Q721 -43 741 -43 Q822 -46 820 30 L820 585 L180 585 L180 -96 L134 -96 L134 626 L342 626 Q370 666 397 713 Q425 759 439 796 ZM630 393 L369 393 L369 160 L630 160 L630 393 Z" /><glyph glyph-name="" unicode="&#x542b;" d="M195 429 L772 429 L772 391 Q733 347 658 296 Q584 245 520 214 L800 214 L800 -96 L755 -96 L755 -41 L249 -41 L249 -96 L204 -96 L204 214 L514 214 Q497 230 473 241 Q540 271 605 313 Q670 354 707 388 L195 388 L195 429 ZM249 173 L249 0 L755 0 L755 173 L249 173 ZM501 808 L540 783 Q531 769 524 756 Q615 656 729 587 Q843 517 974 486 Q947 466 934 442 Q804 483 694 555 Q583 627 500 722 Q419 617 308 545 Q198 473 79 428 Q63 449 35 463 Q185 513 312 604 Q440 695 501 808 ZM408 571 L444 598 Q515 554 576 497 L552 458 Q524 484 484 516 Q444 548 408 571 Z" /><glyph glyph-name="" unicode="&#x542c;" d="M347 700 L347 80 L304 80 L304 124 L150 124 L150 58 L107 58 L107 700 L347 700 ZM857 750 L887 711 Q827 697 730 685 Q632 674 516 668 L516 448 L953 448 L953 407 L777 407 L777 -93 L732 -93 L732 407 L516 407 L516 355 Q517 201 483 101 Q448 0 364 -81 Q343 -68 316 -64 Q402 16 437 110 Q472 205 471 355 L471 708 Q587 712 686 723 Q785 734 857 750 ZM150 659 L150 165 L304 165 L304 659 L150 659 Z" /><glyph glyph-name="" unicode="&#x542f;" d="M389 768 L427 801 Q464 780 510 752 Q556 723 586 700 L567 664 L847 664 L847 419 L217 419 L217 355 Q218 206 188 104 Q158 1 90 -87 Q69 -73 41 -71 Q113 18 143 112 Q173 206 172 349 L172 664 L562 664 Q522 693 474 721 Q427 750 389 768 ZM313 281 L859 281 L859 -93 L814 -93 L814 -11 L358 -11 L358 -93 L313 -93 L313 281 ZM358 240 L358 31 L814 31 L814 240 L358 240 ZM217 622 L217 460 L802 460 L802 622 L217 622 Z" /><glyph glyph-name="" unicode="&#x544a;" d="M211 254 L789 254 L789 -95 L744 -95 L744 -35 L256 -35 L256 -95 L211 -95 L211 254 ZM256 213 L256 6 L744 6 L744 213 L256 213 ZM492 796 L537 796 L537 622 L836 622 L836 581 L537 581 L537 412 L944 412 L944 371 L57 371 L57 412 L492 412 L492 581 L250 581 Q210 507 160 450 Q138 462 110 465 Q166 525 207 597 Q249 670 271 749 L311 725 Q293 671 271 622 L492 622 L492 796 Z" /><glyph glyph-name="" unicode="&#x5468;" d="M167 742 L843 742 L843 20 Q840 -84 730 -84 Q715 -84 696 -83 Q677 -82 661 -80 Q659 -56 645 -33 Q696 -40 724 -40 Q796 -40 798 26 L798 701 L212 701 L212 311 Q212 168 189 72 Q166 -23 114 -95 Q94 -83 64 -80 Q121 -5 144 83 Q168 173 167 313 L167 742 ZM335 299 L676 299 L676 68 L335 68 L335 299 ZM483 669 L525 669 L525 570 L716 570 L716 531 L525 531 L525 428 L751 428 L751 389 L259 389 L259 428 L483 428 L483 531 L292 531 L292 570 L483 570 L483 669 ZM633 260 L378 260 L378 107 L633 107 L633 260 Z" /><glyph glyph-name="" unicode="&#x5473;" d="M342 700 L342 80 L299 80 L299 124 L156 124 L156 39 L113 39 L113 700 L342 700 ZM623 796 L667 796 L667 619 L871 619 L871 580 L667 580 L667 398 L919 398 L919 359 L687 359 Q733 256 806 173 Q878 89 963 40 Q931 25 917 8 Q840 62 775 141 Q710 221 667 325 L667 -96 L623 -96 L623 324 Q582 228 514 141 Q445 54 358 -11 Q340 5 314 15 Q403 76 481 168 Q558 259 602 359 L378 359 L378 398 L623 398 L623 580 L427 580 L427 619 L623 619 L623 796 ZM156 659 L156 165 L299 165 L299 659 L156 659 Z" /><glyph glyph-name="" unicode="&#x547c;" d="M333 704 L333 75 L290 75 L290 123 L150 123 L150 48 L107 48 L107 704 L333 704 ZM875 761 L907 720 Q819 700 676 688 L676 325 L945 325 L945 284 L676 284 L676 12 Q675 -87 574 -85 Q558 -85 535 -83 Q511 -81 492 -77 Q488 -52 475 -30 Q500 -35 526 -38 Q552 -41 572 -41 Q630 -42 631 15 L631 284 L371 284 L371 325 L631 325 L631 684 Q528 675 414 672 Q408 695 391 715 Q531 716 661 728 Q792 739 875 761 ZM150 663 L150 164 L290 164 L290 663 L150 663 ZM865 610 L906 590 Q845 476 770 395 Q752 409 728 412 Q771 458 807 511 Q843 565 865 610 ZM398 573 L439 593 Q474 556 509 512 Q544 469 573 426 L541 394 Q510 441 472 488 Q435 534 398 573 Z" /><glyph glyph-name="" unicode="&#x548c;" d="M567 697 L900 697 L900 -46 L855 -46 L855 22 L612 22 L612 -46 L567 -46 L567 697 ZM612 656 L612 63 L855 63 L855 656 L612 656 ZM68 506 L296 506 L296 686 Q209 672 139 668 Q132 689 114 706 Q201 710 300 727 Q398 743 461 765 L491 731 Q433 710 341 693 L341 506 L523 506 L523 465 L341 465 L341 371 L365 382 Q403 347 441 309 Q478 270 505 236 L478 202 Q419 275 341 353 L341 -96 L296 -96 L296 387 Q261 308 202 228 Q144 149 89 101 Q68 115 39 116 Q118 184 184 277 Q250 369 286 465 L68 465 L68 506 Z" /><glyph glyph-name="" unicode="&#x54c1;" d="M253 736 L751 736 L751 438 L253 438 L253 736 ZM549 326 L880 326 L880 -86 L837 -86 L837 -16 L592 -16 L592 -86 L549 -86 L549 326 ZM447 326 L447 -86 L404 -86 L404 -16 L168 -16 L168 -86 L125 -86 L125 326 L447 326 ZM706 695 L298 695 L298 479 L706 479 L706 695 ZM592 287 L592 24 L837 24 L837 287 L592 287 ZM168 287 L168 24 L404 24 L404 287 L168 287 Z" /><glyph glyph-name="" unicode="&#x54c8;" d="M106 692 L329 692 L329 45 L286 45 L286 110 L149 110 L149 28 L106 28 L106 692 ZM437 278 L853 278 L853 -95 L808 -95 L808 -26 L482 -26 L482 -95 L437 -95 L437 278 ZM482 237 L482 15 L808 15 L808 237 L482 237 ZM149 653 L149 149 L286 149 L286 653 L149 653 ZM628 799 L671 780 Q667 767 662 756 Q713 646 788 572 Q864 497 962 446 Q934 432 920 413 Q731 528 641 707 Q550 520 378 404 Q361 422 334 429 Q439 496 517 589 Q594 683 628 799 ZM480 443 L809 443 L809 402 L480 402 L480 443 Z" /><glyph glyph-name="" unicode="&#x54cd;" d="M104 691 L320 691 L320 42 L277 42 L277 105 L147 105 L147 5 L104 5 L104 691 ZM633 797 L674 777 Q645 700 611 635 L899 635 L899 15 Q900 -87 799 -85 Q783 -85 764 -84 Q745 -83 730 -81 Q728 -58 717 -37 Q736 -40 758 -42 Q780 -44 796 -44 Q855 -48 856 18 L856 596 L461 596 L461 -97 L418 -97 L418 635 L561 635 Q606 713 633 797 ZM552 468 L765 468 L765 107 L552 107 L552 468 ZM147 652 L147 144 L277 144 L277 652 L147 652 ZM723 430 L593 430 L593 144 L723 144 L723 430 Z" /><glyph glyph-name="" unicode="&#x54ea;" d="M357 521 L442 521 L442 698 L341 698 L341 737 L629 737 L621 80 Q620 -29 529 -26 Q507 -26 475 -23 Q472 -3 458 21 Q502 15 526 14 Q553 13 566 30 Q578 47 579 90 L581 264 L469 264 Q453 159 417 83 Q382 6 324 -52 Q304 -40 280 -35 Q338 19 373 92 Q409 164 426 264 L344 264 L344 303 L431 303 Q441 382 442 481 L357 481 L357 521 ZM105 703 L304 703 L304 88 L261 88 L261 140 L148 140 L148 51 L105 51 L105 703 ZM698 735 L938 735 L938 704 L831 426 Q940 304 944 181 Q944 55 824 51 Q803 51 777 56 Q777 76 762 101 Q796 93 827 92 Q868 93 886 117 Q904 141 903 181 Q900 248 865 310 Q830 371 784 420 L890 696 L739 696 L739 -96 L698 -96 L698 735 ZM148 664 L148 179 L261 179 L261 664 L148 664 ZM483 481 Q482 382 474 303 L582 303 L584 481 L483 481 ZM588 698 L483 698 L483 521 L585 521 L588 698 Z" /><glyph glyph-name="" unicode="&#x5524;" d="M432 499 L637 499 L753 649 L521 649 Q458 560 391 503 Q374 519 350 523 Q492 642 557 799 L592 771 Q573 730 546 688 L809 688 L809 655 L688 499 L861 499 L861 227 L943 227 L943 188 L672 188 Q714 103 783 41 Q853 -20 959 -65 Q924 -79 912 -95 Q814 -46 750 16 Q686 79 641 171 Q614 85 544 15 Q474 -53 357 -98 Q340 -82 310 -70 Q433 -29 506 37 Q578 104 603 188 L356 188 L356 227 L432 227 L432 499 ZM101 685 L321 685 L321 80 L278 80 L278 134 L144 134 L144 59 L101 59 L101 685 ZM144 646 L144 174 L278 174 L278 646 L144 646 ZM817 460 L666 460 Q667 406 664 341 Q661 277 656 227 L817 227 L817 460 ZM476 460 L476 227 L613 227 Q616 244 617 260 Q625 362 623 460 L476 460 Z" /><glyph glyph-name="" unicode="&#x552e;" d="M461 779 L499 802 Q525 785 559 757 Q593 730 618 704 L593 668 L880 668 L880 631 L575 631 L575 547 L852 547 L852 510 L575 510 L575 425 L852 425 L852 388 L575 388 L575 301 L904 301 L904 264 L261 264 L261 221 L218 221 L218 573 Q154 502 90 458 Q77 474 50 482 Q138 547 208 628 Q278 709 317 798 L357 772 Q326 717 292 668 L592 668 Q566 693 529 725 Q492 757 461 779 ZM198 178 L822 178 L822 -97 L777 -97 L777 -39 L243 -39 L243 -97 L198 -97 L198 178 ZM243 137 L243 0 L777 0 L777 137 L243 137 ZM261 388 L261 301 L532 301 L532 388 L261 388 ZM261 510 L261 425 L532 425 L532 510 L261 510 ZM265 631 Q263 628 261 625 L261 547 L532 547 L532 631 L265 631 Z" /><glyph glyph-name="" unicode="&#x552f;" d="M542 797 L583 772 Q559 694 517 604 L918 604 L918 565 L734 565 L734 413 L903 413 L903 374 L734 374 L734 221 L904 221 L904 181 L734 181 L734 22 L942 22 L942 -18 L508 -18 L508 -96 L465 -96 L465 505 Q420 427 371 369 Q351 383 328 387 Q398 467 456 580 Q514 692 542 797 ZM108 710 L326 710 L326 62 L282 62 L282 117 L151 117 L151 31 L108 31 L108 710 ZM151 670 L151 156 L282 156 L282 670 L151 670 ZM508 181 L508 22 L691 22 L691 181 L508 181 ZM508 374 L508 221 L691 221 L691 374 L508 374 ZM508 565 L508 413 L691 413 L691 565 L508 565 ZM638 746 L672 768 Q698 748 728 721 Q757 693 778 670 L754 635 Q728 662 696 693 Q664 724 638 746 Z" /><glyph glyph-name="" unicode="&#x5531;" d="M418 328 L898 328 L898 -96 L855 -96 L855 -34 L461 -34 L461 -96 L418 -96 L418 328 ZM108 703 L328 703 L328 54 L284 54 L284 117 L151 117 L151 32 L108 32 L108 703 ZM449 742 L861 742 L861 422 L449 422 L449 742 ZM151 664 L151 156 L284 156 L284 664 L151 664 ZM461 129 L461 5 L855 5 L855 129 L461 129 ZM461 289 L461 168 L855 168 L855 289 L461 289 ZM818 702 L492 702 L492 600 L818 600 L818 702 ZM492 461 L818 461 L818 563 L492 563 L492 461 Z" /><glyph glyph-name="" unicode="&#x5546;" d="M678 627 L719 607 Q695 579 666 547 Q637 515 608 487 L838 487 L838 24 Q837 -89 736 -87 Q721 -87 700 -86 Q678 -85 663 -83 Q659 -60 644 -37 Q664 -40 689 -43 Q715 -45 731 -45 Q795 -47 795 25 L795 448 L205 448 L205 -96 L162 -96 L162 487 L551 487 Q586 519 620 556 Q654 593 678 627 ZM340 31 L340 258 L659 258 L659 31 L340 31 ZM410 784 L446 811 Q473 792 507 765 Q541 738 570 711 L546 684 L919 684 L919 643 L81 643 L81 684 L533 684 Q469 745 410 784 ZM618 69 L618 221 L381 221 L381 69 L618 69 ZM408 412 L442 388 Q366 296 264 227 Q251 244 228 253 Q340 325 408 412 ZM559 388 L593 412 Q636 379 682 339 Q728 299 759 268 L736 232 Q642 325 559 388 ZM274 595 L308 619 Q371 576 428 522 L404 489 Q338 552 274 595 Z" /><glyph glyph-name="" unicode="&#x559c;" d="M59 241 L357 241 Q325 277 288 312 L316 327 L207 327 L207 487 L792 487 L792 327 L682 327 L714 311 Q682 272 649 241 L941 241 L941 202 L59 202 L59 241 ZM190 136 L809 136 L809 -96 L766 -96 L766 -41 L233 -41 L233 -96 L190 -96 L190 136 ZM155 593 L477 593 L477 668 L97 668 L97 708 L477 708 L477 794 L523 794 L523 708 L903 708 L903 668 L523 668 L523 593 L843 593 L843 554 L155 554 L155 593 ZM233 99 L233 -4 L766 -4 L766 99 L233 99 ZM749 450 L250 450 L250 365 L749 365 L749 450 ZM332 327 Q374 286 412 241 L593 241 Q641 286 671 327 L332 327 Z" /><glyph glyph-name="" unicode="&#x5668;" d="M544 197 L853 197 L853 -96 L812 -96 L812 -40 L585 -40 L585 -96 L544 -96 L544 197 ZM151 197 L458 197 L458 -96 L417 -96 L417 -40 L192 -40 L192 -96 L151 -96 L151 197 ZM88 416 L459 416 Q478 454 487 511 L528 499 Q521 455 504 416 L729 416 Q687 444 635 471 L664 495 Q723 467 772 429 L764 416 L911 416 L911 376 L568 376 Q721 257 965 259 Q944 233 938 212 Q654 230 514 376 L484 376 Q430 298 316 257 Q202 215 76 210 Q64 231 44 249 Q191 256 287 290 Q382 324 430 376 L88 376 L88 416 ZM549 742 L852 742 L852 506 L549 506 L549 742 ZM152 742 L454 742 L454 506 L152 506 L152 742 ZM585 160 L585 -3 L812 -3 L812 160 L585 160 ZM192 160 L192 -3 L417 -3 L417 160 L192 160 ZM811 705 L590 705 L590 543 L811 543 L811 705 ZM413 705 L193 705 L193 543 L413 543 L413 705 Z" /><glyph glyph-name="" unicode="&#x56db;" d="M132 701 L867 701 L867 -67 L821 -67 L821 28 L177 28 L177 -67 L132 -67 L132 701 ZM177 660 L177 69 L821 69 L821 660 L618 660 L618 322 Q620 273 662 271 Q711 268 786 274 Q776 251 774 229 Q710 227 661 227 Q572 230 574 323 L574 660 L423 660 L423 489 Q423 377 382 302 Q342 227 257 176 Q239 191 213 203 Q303 253 341 322 Q380 391 379 488 L379 660 L177 660 Z" /><glyph glyph-name="" unicode="&#x56de;" d="M126 718 L873 718 L873 -81 L826 -81 L826 0 L173 0 L173 -80 L126 -80 L126 718 ZM173 675 L173 43 L826 43 L826 675 L173 675 ZM336 515 L662 515 L662 205 L336 205 L336 515 ZM617 473 L381 473 L381 246 L617 246 L617 473 Z" /><glyph glyph-name="" unicode="&#x56e0;" d="M127 727 L874 727 L874 -92 L829 -92 L829 -34 L172 -34 L172 -92 L127 -92 L127 727 ZM172 686 L172 7 L829 7 L829 686 L172 686 ZM535 361 Q596 297 652 235 Q707 173 748 121 L717 88 Q633 195 501 337 Q454 188 287 89 Q269 106 244 113 Q467 243 476 444 L245 444 L245 483 L477 483 L477 633 L521 633 L521 483 L755 483 L755 444 L520 444 Q518 392 504 345 L535 361 Z" /><glyph glyph-name="" unicode="&#x56e2;" d="M133 742 L867 742 L867 -96 L821 -96 L821 -38 L178 -38 L178 -96 L133 -96 L133 742 ZM178 701 L178 3 L821 3 L821 701 L178 701 ZM251 527 L563 527 L563 658 L606 658 L606 527 L771 527 L771 486 L606 486 L606 162 Q606 66 512 70 Q497 70 473 71 Q449 72 434 74 Q431 96 421 119 Q466 114 504 113 Q567 112 563 163 L563 486 L561 486 Q514 384 439 299 Q364 214 273 147 Q254 164 229 171 Q326 237 400 319 Q473 400 520 486 L251 486 L251 527 Z" /><glyph glyph-name="" unicode="&#x56fd;" d="M123 742 L874 742 L874 -96 L829 -96 L829 -39 L168 -39 L168 -96 L123 -96 L123 742 ZM168 701 L168 2 L829 2 L829 701 L168 701 ZM245 590 L750 590 L750 551 L518 551 L518 396 L728 396 L728 357 L518 357 L518 155 L769 155 L769 116 L224 116 L224 155 L475 155 L475 357 L270 357 L270 396 L475 396 L475 551 L245 551 L245 590 ZM578 300 L613 323 Q644 301 677 273 Q711 245 735 220 L712 186 Q685 212 647 246 Q608 280 578 300 Z" /><glyph glyph-name="" unicode="&#x56fe;" d="M120 742 L880 742 L880 -96 L837 -96 L837 -43 L163 -43 L163 -96 L120 -96 L120 742 ZM163 703 L163 -4 L837 -4 L837 703 L163 703 ZM417 690 L453 663 Q439 633 421 604 L686 604 L686 572 Q636 480 543 411 Q659 343 814 318 Q789 299 778 276 Q618 317 508 386 Q389 310 224 266 Q212 287 185 300 Q348 335 471 411 Q406 457 358 518 Q316 470 271 435 Q254 449 231 457 Q293 503 343 565 Q393 627 417 690 ZM631 565 L394 565 Q389 558 383 550 Q432 486 507 434 Q592 496 631 565 ZM340 135 L369 170 Q439 147 500 123 Q562 98 626 66 L615 24 Q481 94 340 135 ZM412 264 L440 294 Q480 279 527 256 Q573 233 613 208 L601 168 Q509 224 412 264 Z" /><glyph glyph-name="" unicode="&#x5708;" d="M120 742 L880 742 L880 -96 L837 -96 L837 -43 L163 -43 L163 -96 L120 -96 L120 742 ZM163 703 L163 -4 L837 -4 L837 703 L163 703 ZM223 411 L418 411 Q436 447 450 489 L247 489 L247 526 L460 526 Q477 596 483 680 L525 670 Q517 592 502 526 L754 526 L754 489 L492 489 Q480 448 464 411 L779 411 L779 374 L608 374 Q681 281 820 231 Q797 221 780 198 Q696 236 632 294 L627 223 Q625 182 607 165 Q590 147 549 148 Q522 149 497 152 Q496 172 485 189 Q515 185 545 184 Q569 184 579 193 Q588 202 589 227 L591 261 L392 261 L392 129 Q393 85 438 85 L611 85 Q664 84 674 136 Q680 160 685 189 Q700 172 719 163 Q715 138 710 121 Q693 50 618 50 L435 50 Q350 48 353 133 L353 261 Q300 212 221 170 Q208 186 182 197 Q332 271 396 374 L223 374 L223 411 ZM444 374 Q421 333 388 296 L630 296 Q594 331 566 374 L444 374 ZM688 667 L721 642 Q700 618 668 590 Q637 562 611 544 Q597 557 575 566 Q645 614 688 667 ZM271 636 L301 661 Q326 643 354 621 Q382 598 402 578 L377 547 Q332 592 271 636 Z" /><glyph glyph-name="" unicode="&#x5723;" d="M145 742 L787 742 L787 706 Q694 576 548 488 Q722 392 952 367 Q929 349 920 324 Q678 362 506 464 Q310 357 77 315 Q69 339 47 354 Q154 369 260 404 Q367 439 464 490 Q339 574 249 701 L145 701 L145 742 ZM481 377 L526 377 L526 226 L803 226 L803 184 L526 184 L526 -15 L935 -15 L935 -56 L65 -56 L65 -15 L481 -15 L481 184 L197 184 L197 226 L481 226 L481 377 ZM729 701 L299 701 Q387 589 506 514 Q642 593 729 701 Z" /><glyph glyph-name="" unicode="&#x5728;" d="M101 661 L399 661 Q433 734 455 807 L500 786 Q483 724 453 661 L932 661 L932 618 L432 618 Q371 497 282 390 L282 -96 L237 -96 L237 339 Q163 261 82 209 Q65 227 35 242 Q145 306 232 405 Q318 503 378 618 L101 618 L101 661 ZM610 537 L655 537 L655 345 L892 345 L892 304 L655 304 L655 3 L935 3 L935 -38 L332 -38 L332 3 L610 3 L610 304 L374 304 L374 345 L610 345 L610 537 Z" /><glyph glyph-name="" unicode="&#x5730;" d="M649 795 L692 795 L692 541 L894 599 L887 259 Q887 169 804 169 Q775 170 744 173 Q741 195 727 215 Q766 210 801 209 Q844 208 846 261 L853 546 L692 500 L692 101 L649 101 L649 488 L489 442 L489 39 Q489 12 507 -5 Q525 -23 555 -24 L809 -25 Q879 -26 896 29 Q907 60 917 108 Q931 85 954 76 Q946 42 934 7 Q908 -70 813 -66 L553 -67 Q498 -65 472 -35 Q446 -5 446 44 L446 430 L360 406 L342 441 L446 471 L446 732 L489 732 L489 483 L649 528 L649 795 ZM64 543 L205 543 L205 789 L248 789 L248 543 L380 543 L380 504 L248 504 L248 116 L371 167 L393 135 L75 -4 L42 31 L205 98 L205 504 L64 504 L64 543 Z" /><glyph glyph-name="" unicode="&#x573a;" d="M409 734 L865 734 L865 700 Q799 641 700 574 Q602 506 498 450 L919 450 L891 44 Q884 -87 766 -84 Q727 -84 693 -79 Q691 -55 677 -32 Q726 -40 765 -41 Q806 -42 826 -21 Q845 0 848 49 L873 411 L767 411 Q734 238 654 119 Q575 0 436 -86 Q422 -69 390 -60 Q664 90 723 411 L610 411 Q570 297 505 217 Q440 136 343 76 Q328 91 300 102 Q398 156 466 236 Q533 315 566 411 L500 411 Q454 411 414 403 L393 448 Q425 457 458 474 Q549 525 637 582 Q725 640 796 695 L409 695 L409 734 ZM195 794 L240 794 L240 557 L363 557 L363 516 L240 516 L240 187 L359 244 L385 215 L68 55 L35 90 L195 166 L195 516 L66 516 L66 557 L195 557 L195 794 Z" /><glyph glyph-name="" unicode="&#x5740;" d="M661 794 L706 794 L706 464 L918 464 L918 423 L706 423 L706 -15 L951 -15 L951 -56 L310 -56 L310 -15 L463 -15 L463 584 L508 584 L508 -15 L661 -15 L661 794 ZM205 795 L250 795 L250 543 L385 543 L385 502 L250 502 L250 136 L380 190 L407 160 L64 9 L31 46 L205 118 L205 502 L64 502 L64 543 L205 543 L205 795 Z" /><glyph glyph-name="" unicode="&#x5747;" d="M541 799 L584 782 Q564 701 530 626 L891 626 L876 57 Q873 -88 739 -86 Q696 -86 654 -81 Q653 -59 638 -33 Q691 -43 737 -43 Q831 -46 831 59 L845 585 L511 585 Q458 478 385 397 Q370 410 341 415 Q416 499 467 598 Q517 697 541 799 ZM203 795 L248 795 L248 544 L367 544 L367 503 L248 503 L248 144 L377 193 L399 161 L75 31 L43 66 L203 127 L203 503 L69 503 L69 544 L203 544 L203 795 ZM371 75 Q469 122 569 180 Q669 238 747 290 L778 260 Q689 200 591 142 Q493 83 404 38 L371 75 ZM469 439 L504 464 Q539 435 576 400 Q613 364 642 331 L615 297 Q582 334 544 371 Q505 409 469 439 Z" /><glyph glyph-name="" unicode="&#x5757;" d="M590 798 L636 792 Q636 697 635 621 L860 621 L860 324 L948 324 L948 282 L649 282 Q736 34 954 -55 Q927 -70 911 -94 Q679 33 617 260 Q594 151 526 64 Q457 -22 335 -95 Q323 -73 290 -62 Q408 -2 482 83 Q555 168 577 282 L359 282 L359 324 L583 324 Q583 329 584 337 Q590 417 590 580 L398 580 L398 621 L590 621 L590 798 ZM192 795 L237 795 L237 534 L364 534 L364 493 L237 493 L237 143 L361 187 L382 154 L69 35 L38 73 L192 128 L192 493 L62 493 L62 534 L192 534 L192 795 ZM635 580 Q634 415 629 324 L815 324 L815 580 L635 580 Z" /><glyph glyph-name="" unicode="&#x575a;" d="M424 720 L855 720 L855 688 Q796 555 682 456 Q789 363 942 317 Q912 296 903 276 Q757 330 648 427 Q554 356 438 316 Q426 335 401 348 Q517 385 616 459 Q522 554 472 681 L424 681 L424 720 ZM481 284 L526 284 L526 181 L802 181 L802 140 L526 140 L526 -25 L934 -25 L934 -67 L65 -67 L65 -25 L481 -25 L481 140 L197 140 L197 181 L481 181 L481 284 ZM803 681 L516 681 Q561 575 650 486 Q754 574 803 681 ZM311 795 L354 795 L354 269 L311 269 L311 795 ZM128 727 L171 727 L171 308 L128 308 L128 727 Z" /><glyph glyph-name="" unicode="&#x575b;" d="M711 186 L750 201 Q777 170 814 121 Q851 72 886 21 Q922 -29 944 -65 L913 -97 Q889 -58 860 -16 L453 -44 Q418 -46 384 -57 L362 -18 Q398 -5 424 32 Q473 103 528 199 Q584 294 623 371 L376 371 L376 412 L947 412 L947 371 L673 371 Q632 286 569 182 Q507 77 452 0 L832 22 Q800 68 769 110 Q737 153 711 186 ZM192 794 L237 794 L237 528 L366 528 L366 487 L237 487 L237 116 L363 169 L386 136 L65 -5 L31 31 L192 97 L192 487 L50 487 L50 528 L192 528 L192 794 ZM432 700 L889 700 L889 659 L432 659 L432 700 Z" /><glyph glyph-name="" unicode="&#x578b;" d="M80 528 L252 528 L252 532 L252 703 L121 703 L121 742 L593 742 L593 703 L483 703 L483 528 L607 528 L607 489 L483 489 L483 292 L440 292 L440 489 L293 489 Q286 413 249 353 Q212 293 138 240 Q124 258 101 266 Q174 318 209 370 Q244 423 250 489 L80 489 L80 528 ZM184 163 L479 163 L479 272 L525 272 L525 163 L814 163 L814 122 L525 122 L525 -25 L929 -25 L929 -67 L70 -67 L70 -25 L479 -25 L479 122 L184 122 L184 163 ZM826 794 L871 794 L871 345 Q871 251 777 251 Q761 251 742 252 Q722 253 708 255 Q706 281 691 301 Q741 295 776 294 Q828 292 826 348 L826 794 ZM295 532 L295 528 L440 528 L440 703 L295 703 L295 532 ZM664 729 L707 729 L707 382 L664 382 L664 729 Z" /><glyph glyph-name="" unicode="&#x57ce;" d="M866 462 L904 436 Q863 257 770 121 Q820 -38 873 -34 Q892 -38 910 9 Q920 40 929 77 Q942 55 965 45 Q961 30 956 14 Q951 -2 947 -12 Q920 -81 874 -79 Q790 -79 738 78 Q666 -11 563 -84 Q541 -67 516 -61 Q644 23 722 130 Q682 281 671 569 L423 569 L423 414 L600 414 L589 152 Q585 51 485 51 Q454 52 434 56 Q432 76 424 98 Q455 92 484 91 Q547 89 548 155 L557 376 L423 376 Q424 211 395 101 Q365 -8 300 -94 Q278 -79 251 -79 Q320 2 350 107 Q380 212 379 376 L379 608 L670 608 Q668 693 668 792 L713 797 Q711 699 714 608 L931 608 L931 569 L716 569 Q720 448 730 347 Q741 247 755 178 Q832 303 866 462 ZM187 793 L231 793 L231 545 L342 545 L342 506 L231 506 L231 196 L330 238 L356 206 L71 79 L39 116 L187 178 L187 506 L60 506 L60 545 L187 545 L187 793 ZM772 753 L809 773 Q831 753 855 726 Q878 698 897 673 L867 641 Q820 706 772 753 Z" /><glyph glyph-name="" unicode="&#x57df;" d="M860 443 L900 424 Q866 255 776 113 Q782 85 789 59 Q819 -44 854 -41 Q878 -44 900 19 Q911 52 921 105 Q940 82 958 77 Q950 36 938 0 Q922 -48 902 -67 Q881 -87 854 -86 Q821 -87 793 -56 Q766 -26 748 41 L742 65 Q672 -30 580 -94 Q568 -79 537 -72 Q650 8 728 123 Q694 295 681 559 L361 559 L361 600 L679 600 Q676 691 676 792 L721 797 Q721 691 724 600 L930 600 L930 559 L725 559 Q736 330 764 178 Q835 304 860 443 ZM388 459 L610 459 L610 193 L388 193 L388 459 ZM63 526 L182 526 L182 795 L227 795 L227 526 L331 526 L331 485 L227 485 L227 142 L329 185 L355 154 L69 27 L38 64 L182 124 L182 485 L63 485 L63 526 ZM567 420 L431 420 L431 232 L567 232 L567 420 ZM322 39 L634 129 L657 96 L348 -1 L322 39 ZM770 744 L808 766 Q859 718 903 664 L876 629 Q853 659 825 689 Q797 719 770 744 Z" /><glyph glyph-name="" unicode="&#x57fa;" d="M74 318 L292 318 L292 647 L131 647 L131 688 L292 688 L292 796 L337 796 L337 688 L670 688 L670 796 L715 796 L715 688 L867 688 L867 647 L715 647 L715 318 L922 318 L922 276 L660 276 Q781 168 971 116 Q947 99 931 75 Q836 108 750 159 Q664 210 599 276 L400 276 Q335 203 246 149 Q157 95 71 62 Q53 83 28 94 Q118 124 200 171 Q281 218 340 276 L74 276 L74 318 ZM156 -25 L476 -25 L476 89 L268 89 L268 130 L476 130 L476 221 L522 221 L522 130 L731 130 L731 89 L522 89 L522 -25 L848 -25 L848 -67 L156 -67 L156 -25 ZM337 402 L337 318 L670 318 L670 402 L337 402 ZM337 524 L337 441 L670 441 L670 524 L337 524 ZM337 647 L337 564 L670 564 L670 647 L337 647 Z" /><glyph glyph-name="" unicode="&#x5883;" d="M405 422 L858 422 L858 146 L728 146 L728 23 Q728 -27 777 -26 L844 -27 Q868 -27 883 -14 Q898 -1 907 31 Q915 56 919 89 Q933 69 955 60 Q950 29 944 7 Q932 -33 909 -51 Q886 -68 847 -67 L776 -68 Q685 -68 685 22 L685 146 L574 146 Q563 53 496 -5 Q429 -63 314 -96 Q303 -71 279 -59 Q392 -29 456 18 Q519 66 530 146 L405 146 L405 422 ZM57 566 L180 566 L180 795 L223 795 L223 566 L324 566 L324 526 L223 526 L223 178 L337 222 L356 188 L67 72 L41 109 L180 161 L180 526 L57 526 L57 566 ZM345 534 L541 534 Q502 585 455 626 L493 645 Q540 605 578 555 L560 534 L681 534 Q738 593 776 654 L814 631 Q780 581 737 534 L939 534 L939 495 L345 495 L345 534 ZM448 183 L815 183 L815 267 L448 267 L448 183 ZM815 384 L448 384 L448 302 L815 302 L815 384 ZM378 698 L633 698 Q610 718 583 739 Q556 760 533 775 L569 801 Q591 786 622 762 Q653 737 676 716 L664 698 L901 698 L901 659 L378 659 L378 698 Z" /><glyph glyph-name="" unicode="&#x5899;" d="M404 341 L890 341 L890 -96 L847 -96 L847 -36 L447 -36 L447 -96 L404 -96 L404 341 ZM447 302 L447 3 L847 3 L847 302 L447 302 ZM346 464 L625 464 L625 652 L398 652 L398 691 L625 691 L625 796 L669 796 L669 691 L899 691 L899 652 L669 652 L669 464 L950 464 L950 424 L346 424 L346 464 ZM190 793 L233 793 L233 538 L343 538 L343 499 L233 499 L233 146 L332 187 L359 159 L76 33 L43 69 L190 129 L190 499 L61 499 L61 538 L190 538 L190 793 ZM530 232 L763 232 L763 73 L530 73 L530 232 ZM721 195 L572 195 L572 110 L721 110 L721 195 ZM828 628 L863 607 Q839 573 811 540 Q783 506 758 481 Q744 493 720 501 Q753 530 782 565 Q811 599 828 628 ZM419 602 L456 618 Q507 570 555 509 L525 481 Q479 545 419 602 Z" /><glyph glyph-name="" unicode="&#x589e;" d="M796 797 L835 778 Q782 715 721 657 L901 657 L901 361 L372 361 L372 657 L666 657 Q736 721 796 797 ZM854 -96 L811 -96 L811 -46 L470 -46 L470 -96 L427 -96 L427 280 L854 280 L854 -96 ZM60 540 L185 540 L185 793 L229 793 L229 540 L340 540 L340 501 L229 501 L229 131 L353 174 L375 141 L67 29 L41 68 L185 117 L185 501 L60 501 L60 540 ZM860 619 L658 619 L658 398 L860 398 L860 619 ZM415 619 L415 398 L617 398 L617 619 L415 619 ZM470 99 L470 -9 L811 -9 L811 99 L470 99 ZM811 243 L470 243 L470 136 L811 136 L811 243 ZM429 770 L465 792 Q526 748 580 694 L555 662 Q497 720 429 770 ZM783 572 L818 551 Q782 495 735 447 Q720 462 699 465 Q746 513 783 572 ZM456 553 L493 570 Q535 527 568 478 L539 447 Q504 504 456 553 Z" /><glyph glyph-name="" unicode="&#x58c1;" d="M134 735 L457 735 L457 524 L175 524 Q162 391 84 283 Q63 295 36 296 Q135 414 134 585 L134 735 ZM155 130 L477 130 L477 209 L523 209 L523 130 L845 130 L845 89 L523 89 L523 -25 L934 -25 L934 -67 L65 -67 L65 -25 L477 -25 L477 89 L155 89 L155 130 ZM179 438 L455 438 L455 234 L179 234 L179 438 ZM499 356 L678 356 L678 460 L476 460 L476 499 L707 499 Q764 562 810 639 L848 619 Q805 554 756 499 L932 499 L932 460 L721 460 L721 356 L903 356 L903 317 L721 317 L721 205 L678 205 L678 317 L499 317 L499 356 ZM178 587 Q178 575 177 564 L414 564 L414 696 L178 696 L178 587 ZM412 399 L222 399 L222 274 L412 274 L412 399 ZM622 781 L659 802 Q703 765 746 721 L722 697 L903 697 L903 658 L500 658 L500 697 L713 697 Q671 741 622 781 ZM552 616 L588 634 Q606 617 626 592 Q647 566 664 543 L634 516 Q618 539 595 567 Q572 594 552 616 Z" /><glyph glyph-name="" unicode="&#x58eb;" d="M149 -11 L476 -11 L476 407 L57 407 L57 450 L476 450 L476 792 L524 792 L524 450 L943 450 L943 407 L524 407 L524 -11 L851 -11 L851 -54 L149 -54 L149 -11 Z" /><glyph glyph-name="" unicode="&#x58f0;" d="M169 414 L842 414 L842 117 L799 117 L799 178 L208 178 Q201 90 171 26 Q141 -37 81 -98 Q74 -93 60 -87 Q47 -81 34 -78 Q111 -6 141 67 Q170 140 169 262 L169 414 ZM157 545 L483 545 L483 651 L78 651 L78 692 L483 692 L483 797 L528 797 L528 692 L934 692 L934 651 L528 651 L528 545 L856 545 L856 506 L157 506 L157 545 ZM212 260 Q212 236 211 217 L484 217 L484 374 L212 374 L212 260 ZM799 374 L527 374 L527 217 L799 217 L799 374 Z" /><glyph glyph-name="" unicode="&#x58f3;" d="M185 540 L468 540 L468 644 L100 644 L100 685 L468 685 L468 793 L513 793 L513 685 L881 685 L881 644 L513 644 L513 540 L796 540 L796 501 L185 501 L185 540 ZM322 279 L652 279 L652 41 Q651 2 666 -11 Q681 -26 719 -25 L829 -26 Q861 -26 878 -13 Q895 -1 901 34 Q908 69 911 103 Q928 81 950 74 Q946 44 941 21 Q932 -28 906 -48 Q880 -67 832 -66 L714 -67 Q656 -67 632 -44 Q608 -21 609 33 L609 240 L368 240 Q369 213 366 173 Q360 67 303 5 Q245 -56 104 -95 Q89 -73 61 -60 Q205 -28 261 25 Q318 79 323 180 Q324 191 324 220 Q323 249 322 279 ZM109 414 L874 414 L874 243 L829 243 L829 373 L154 373 L154 242 L109 242 L109 414 Z" /><glyph glyph-name="" unicode="&#x5904;" d="M249 791 L293 774 Q277 688 247 598 L477 598 L477 561 Q463 323 348 138 Q452 28 640 1 Q784 -19 954 -19 Q939 -43 932 -69 Q792 -65 663 -48 Q548 -32 464 3 Q381 39 322 100 Q237 -13 93 -97 Q79 -78 51 -66 Q204 18 290 136 Q213 237 169 407 Q131 332 85 271 Q66 281 41 287 Q123 402 174 526 Q224 651 249 791 ZM233 557 Q217 510 196 466 Q241 278 317 175 Q421 343 432 557 L233 557 ZM619 794 L664 794 L664 61 L619 61 L619 794 ZM685 546 L726 567 Q836 450 928 325 L898 287 Q853 351 798 419 Q742 487 685 546 Z" /><glyph glyph-name="" unicode="&#x5907;" d="M799 -95 L756 -95 L756 -34 L245 -34 L245 -95 L202 -95 L202 316 L799 316 L799 -95 ZM370 812 L410 785 Q388 746 362 709 L779 709 L779 672 Q693 558 555 476 Q635 437 733 409 Q831 380 954 362 Q928 340 922 317 Q794 341 693 374 Q592 406 509 451 Q334 360 73 308 Q63 329 40 347 Q291 395 463 477 Q368 535 283 614 Q222 548 147 496 Q129 513 103 521 Q198 585 261 655 Q325 725 370 812 ZM330 668 Q322 656 311 644 Q402 561 509 501 Q641 573 721 668 L330 668 ZM521 123 L521 5 L756 5 L756 123 L521 123 ZM245 123 L245 5 L479 5 L479 123 L245 123 ZM756 276 L521 276 L521 160 L756 160 L756 276 ZM245 276 L245 160 L479 160 L479 276 L245 276 Z" /><glyph glyph-name="" unicode="&#x590d;" d="M237 579 L798 579 L798 287 L410 287 Q382 247 346 212 L802 212 L802 175 Q711 80 580 20 Q744 -37 949 -45 Q922 -64 912 -93 Q686 -70 524 -3 Q349 -71 92 -96 Q78 -70 55 -55 Q287 -38 467 21 Q359 74 275 149 Q212 101 138 65 Q126 82 95 93 Q258 162 357 287 L237 287 L237 579 ZM280 326 L755 326 L755 415 L280 415 L280 326 ZM755 540 L280 540 L280 452 L755 452 L755 540 ZM311 804 L350 776 Q331 732 306 691 L888 691 L888 652 L281 652 Q209 548 116 475 Q98 493 71 499 Q149 554 213 632 Q276 710 311 804 ZM741 173 L314 173 Q403 95 524 42 Q652 95 741 173 Z" /><glyph glyph-name="" unicode="&#x5916;" d="M164 346 L199 376 Q235 354 278 323 Q321 293 355 267 Q427 394 450 560 L237 560 Q202 492 162 434 Q123 376 84 338 Q62 350 35 355 Q118 436 184 556 Q251 675 275 787 L320 770 Q298 689 258 601 L496 601 L496 564 Q470 357 370 203 Q270 48 81 -71 Q62 -53 34 -40 Q235 84 331 229 Q293 260 246 293 Q199 325 164 346 ZM625 789 L671 789 L671 490 L693 504 Q725 476 774 430 Q823 384 871 337 Q920 289 951 256 L924 218 Q875 271 801 342 Q728 413 671 466 L671 -101 L625 -101 L625 789 Z" /><glyph glyph-name="" unicode="&#x591a;" d="M443 164 L479 188 Q508 169 549 136 Q590 103 622 74 Q757 153 839 277 L518 277 Q396 190 234 141 Q222 161 198 176 Q330 212 437 277 Q544 342 614 423 L655 403 Q617 358 571 319 L893 319 L893 280 Q784 99 601 11 Q417 -76 179 -98 Q171 -77 144 -58 Q418 -31 583 53 Q550 84 511 113 Q472 143 443 164 ZM370 551 L405 576 Q433 558 471 530 Q509 503 540 478 Q693 558 775 659 L412 659 Q318 559 199 497 Q181 514 159 525 Q259 575 339 649 Q419 723 465 803 L508 786 Q480 741 447 700 L834 700 L834 664 Q739 530 555 436 Q371 341 152 307 Q141 329 119 346 Q331 378 498 457 Q434 509 370 551 Z" /><glyph glyph-name="" unicode="&#x591f;" d="M126 462 L320 462 L320 135 L126 135 L126 462 ZM220 793 L257 773 Q238 714 213 660 L443 660 L443 55 Q445 -75 329 -74 Q309 -74 293 -73 Q277 -72 257 -69 Q255 -46 241 -22 Q286 -30 328 -30 Q367 -31 384 -11 Q400 8 400 58 L400 619 L193 619 Q148 525 84 449 Q69 464 44 469 Q100 532 147 618 Q193 704 220 793 ZM607 155 L640 177 Q665 159 694 134 Q723 109 747 85 Q841 165 892 276 L685 276 Q612 209 511 157 Q499 175 471 186 Q568 233 645 299 Q721 365 768 438 L806 419 Q772 363 725 315 L941 315 L941 279 Q825 -5 474 -96 Q463 -75 436 -59 Q602 -21 716 62 Q691 85 662 110 Q633 135 607 155 ZM576 547 L607 571 Q657 536 701 498 Q798 579 843 657 L628 657 Q573 590 525 552 Q508 567 480 573 Q533 610 585 672 Q637 734 669 798 L707 777 Q687 736 658 696 L894 696 L894 661 Q837 558 738 473 Q639 388 519 335 Q504 355 476 367 Q586 411 669 472 Q628 511 576 547 ZM279 424 L167 424 L167 173 L279 173 L279 424 Z" /><glyph glyph-name="" unicode="&#x5927;" d="M102 508 L470 508 Q473 570 474 646 Q475 722 474 793 L522 788 Q522 725 520 651 Q518 577 514 508 L894 508 L894 465 L518 465 Q563 286 680 153 Q797 19 957 -41 Q923 -59 906 -81 Q764 -15 654 110 Q544 236 499 394 Q466 238 358 112 Q249 -13 89 -87 Q73 -68 43 -54 Q221 19 336 158 Q451 298 467 465 L102 465 L102 508 Z" /><glyph glyph-name="" unicode="&#x5929;" d="M97 409 L470 409 Q472 447 474 515 Q476 584 476 673 L155 673 L155 715 L843 715 L843 673 L522 673 Q521 609 520 534 Q518 459 516 409 L898 409 L898 368 L525 368 Q577 231 682 125 Q787 20 944 -31 Q911 -51 898 -73 Q763 -20 658 82 Q553 186 499 328 Q459 181 362 81 Q264 -18 107 -80 Q92 -61 63 -43 Q227 11 331 119 Q435 226 464 368 L97 368 L97 409 Z" /><glyph glyph-name="" unicode="&#x5931;" d="M487 796 L534 791 Q534 689 532 584 L844 584 L844 541 L531 541 Q527 438 525 367 Q524 357 523 346 L905 346 L905 303 L536 303 Q590 166 693 82 Q795 -1 948 -38 Q928 -50 918 -62 Q909 -73 902 -86 Q593 20 507 267 Q470 137 364 43 Q258 -50 95 -103 Q87 -91 79 -83 Q71 -75 55 -65 Q227 -12 333 82 Q439 177 470 303 L92 303 L92 346 L476 346 Q478 358 479 371 Q482 439 485 541 L254 541 Q215 458 172 405 Q150 415 124 417 Q173 476 214 561 Q254 645 271 732 L315 711 Q298 646 273 584 L486 584 Q487 691 487 796 Z" /><glyph glyph-name="" unicode="&#x5934;" d="M590 789 L639 782 Q635 695 629 600 Q623 505 616 428 Q610 362 595 306 L940 306 L940 263 L582 263 Q533 119 423 35 Q314 -48 151 -87 Q137 -63 110 -50 Q278 -9 383 66 Q487 143 532 263 L62 263 L62 306 L547 306 Q564 363 570 430 Q586 606 590 789 ZM598 129 L633 162 Q696 121 772 65 Q849 9 908 -40 L882 -84 Q813 -25 737 32 Q661 91 598 129 ZM182 521 L213 555 Q266 528 327 493 Q388 458 429 429 L410 388 Q359 422 297 459 Q235 495 182 521 ZM249 708 L280 739 Q321 716 377 679 Q434 643 471 612 L450 573 Q406 606 349 644 Q291 683 249 708 Z" /><glyph glyph-name="" unicode="&#x594f;" d="M183 570 L428 570 Q441 611 450 659 L135 659 L135 700 L457 700 Q464 747 466 798 L511 789 Q507 742 501 700 L857 700 L857 659 L494 659 Q486 611 475 570 L809 570 L809 528 L461 528 Q445 480 422 437 L922 437 L922 396 L641 396 Q712 331 802 280 Q892 229 978 209 Q953 191 936 167 Q837 203 748 262 Q659 322 591 396 L397 396 Q346 319 267 260 Q188 201 76 154 Q57 171 28 181 Q236 258 340 396 L72 396 L72 437 L369 437 Q395 480 414 528 L183 528 L183 570 ZM163 153 L454 153 Q469 198 471 256 L336 256 L336 295 L665 295 L665 256 L514 256 Q510 199 496 153 L831 153 L831 114 L482 114 Q448 32 369 -18 Q290 -68 154 -96 Q141 -75 118 -59 Q247 -34 325 6 Q402 47 437 114 L163 114 L163 153 ZM495 36 L520 70 Q590 44 676 9 Q762 -26 828 -56 L814 -104 Q750 -68 659 -29 Q569 10 495 36 Z" /><glyph glyph-name="" unicode="&#x5965;" d="M480 237 L525 225 Q522 200 516 178 L948 178 L948 137 L535 137 Q604 56 702 13 Q800 -30 939 -46 Q913 -66 901 -93 Q783 -78 675 -26 Q568 25 497 129 Q451 36 352 -19 Q253 -75 108 -99 Q94 -75 64 -59 Q367 -14 451 137 L52 137 L52 178 L470 178 Q478 207 480 237 ZM178 690 L389 690 Q410 716 430 748 Q449 779 461 806 L508 782 Q485 735 450 690 L821 690 L821 222 L778 222 L778 651 L221 651 L221 222 L178 222 L178 690 ZM478 612 L520 612 L520 453 L723 453 L723 416 L520 416 L520 257 L478 257 L478 398 Q409 296 292 238 Q277 257 252 265 Q370 319 449 416 L276 416 L276 453 L478 453 L478 612 ZM536 360 L564 386 Q606 364 652 335 Q698 306 727 282 L712 246 Q676 273 624 308 Q571 342 536 360 ZM664 599 L696 574 Q672 550 640 523 Q607 496 583 480 Q572 493 552 502 Q577 519 610 548 Q642 576 664 599 ZM297 570 L327 595 Q381 562 437 514 L419 479 Q394 502 359 528 Q325 553 297 570 Z" /><glyph glyph-name="" unicode="&#x5982;" d="M569 664 L902 664 L902 -61 L857 -61 L857 7 L614 7 L614 -61 L569 -61 L569 664 ZM65 618 L221 618 Q241 721 251 806 L296 793 Q286 715 267 618 L470 618 L470 578 Q462 319 352 134 Q449 55 522 -12 L498 -55 Q424 14 327 95 Q248 -15 117 -96 Q100 -78 70 -69 Q212 15 290 126 Q197 204 129 253 Q152 320 173 404 Q195 489 213 576 L65 576 L65 618 ZM614 622 L614 48 L857 48 L857 622 L614 622 ZM181 269 Q235 229 316 164 Q414 325 427 576 L259 576 Q241 489 220 408 Q199 326 181 269 Z" /><glyph glyph-name="" unicode="&#x59c6;" d="M487 740 L875 740 L860 413 L951 413 L951 372 L858 372 L844 81 L926 81 L926 40 L842 40 Q836 -31 805 -62 Q775 -94 717 -93 Q676 -92 655 -88 Q651 -66 635 -42 Q686 -50 716 -49 Q753 -50 773 -30 Q792 -9 796 40 L419 40 L451 372 L378 372 L378 413 L455 413 L487 740 ZM192 791 L237 781 Q231 699 214 586 L356 586 L356 549 Q352 344 278 168 Q342 107 387 61 L360 18 Q311 70 256 125 Q201 19 97 -73 Q79 -62 48 -53 Q162 42 221 158 Q154 221 103 263 Q119 314 135 387 Q150 461 164 545 L49 545 L49 586 L171 586 Q186 696 192 791 ZM496 372 L469 81 L799 81 L813 372 L496 372 ZM528 699 L500 413 L815 413 L828 699 L528 699 ZM313 545 L207 545 Q195 466 181 396 Q168 325 155 279 Q191 248 241 201 Q307 361 313 545 ZM557 275 L595 297 Q668 243 722 176 L695 144 Q666 177 629 213 Q592 248 557 275 ZM582 598 L619 620 Q687 570 739 505 L713 472 Q685 505 650 539 Q615 573 582 598 Z" /><glyph glyph-name="" unicode="&#x59cb;" d="M473 300 L872 300 L872 -94 L827 -94 L827 -25 L518 -25 L518 -94 L473 -94 L473 300 ZM211 794 L256 782 Q248 705 231 595 L382 595 L382 559 Q377 311 297 146 Q335 111 370 78 Q404 45 428 20 L400 -22 Q345 39 275 105 Q214 1 109 -85 Q87 -68 57 -64 Q175 28 239 137 Q164 207 111 249 Q129 302 148 383 Q166 464 181 556 L65 556 L65 595 L186 595 Q203 704 211 794 ZM518 259 L518 16 L827 16 L827 259 L518 259 ZM717 625 L755 646 Q798 598 853 529 Q908 459 951 399 L918 366 Q900 393 875 425 L502 406 Q452 403 424 392 L403 432 Q418 438 429 446 Q439 454 451 470 Q497 530 553 618 Q609 706 649 788 L690 766 Q645 681 587 590 Q529 498 490 447 L847 464 Q812 509 778 552 Q743 595 717 625 ZM339 556 L225 556 Q210 469 194 392 Q178 314 163 266 Q201 233 262 178 Q333 329 339 556 Z" /><glyph glyph-name="" unicode="&#x59d3;" d="M52 576 L168 576 Q189 695 201 792 L245 783 Q232 686 213 576 L373 576 L373 539 Q360 314 283 161 Q346 118 404 74 L380 34 Q319 82 263 123 Q197 9 83 -81 Q69 -64 41 -56 Q160 36 226 149 Q151 201 91 233 Q129 375 160 535 L52 535 L52 576 ZM501 730 L542 717 Q532 646 514 572 L668 572 L668 796 L713 796 L713 572 L917 572 L917 531 L713 531 L713 288 L888 288 L888 247 L713 247 L713 -15 L951 -15 L951 -56 L391 -56 L391 -15 L668 -15 L668 247 L472 247 L472 288 L668 288 L668 531 L503 531 Q477 439 437 355 Q420 369 392 369 Q478 543 501 730 ZM141 254 Q192 223 245 187 Q320 338 329 535 L205 535 Q176 384 141 254 Z" /><glyph glyph-name="" unicode="&#x5a01;" d="M829 486 L873 467 Q839 284 749 130 Q778 50 810 11 Q842 -27 870 -27 Q897 -30 911 27 Q919 62 926 101 Q946 76 965 70 Q959 36 950 5 Q926 -76 873 -76 Q831 -76 791 -34 Q750 7 719 84 Q653 -9 551 -90 Q535 -73 503 -66 Q624 24 699 139 Q640 326 626 600 L195 600 L195 389 Q196 213 173 103 Q151 -6 91 -92 Q73 -78 40 -74 Q82 -19 106 39 Q130 98 140 182 Q150 267 150 398 L150 641 L624 641 Q621 713 620 792 L666 797 Q666 715 670 641 L913 641 L913 600 L672 600 Q685 352 730 190 Q804 322 829 486 ZM228 337 L346 337 Q364 385 378 431 L420 417 Q407 376 392 337 L567 337 L567 301 Q543 198 482 114 Q532 88 574 64 L562 19 Q508 50 455 79 Q380 -6 260 -66 Q247 -49 218 -37 Q339 19 414 100 Q339 139 269 167 Q303 230 331 298 L228 298 L228 337 ZM328 186 Q379 166 442 134 Q498 208 524 298 L378 298 Q354 238 328 186 ZM234 493 L581 493 L581 454 L234 454 L234 493 ZM706 749 L742 775 Q801 734 847 688 L822 651 Q766 706 706 749 Z" /><glyph glyph-name="" unicode="&#x5a31;" d="M65 570 L178 570 Q195 684 203 795 L247 783 Q237 675 220 570 L367 570 L367 533 Q362 335 291 167 Q358 115 405 77 L385 35 Q343 73 273 128 Q216 16 110 -82 Q92 -69 61 -62 Q178 36 237 155 Q197 184 162 209 Q127 234 104 249 Q122 305 139 377 Q157 449 171 529 L65 529 L65 570 ZM449 743 L867 743 L867 501 L449 501 L449 743 ZM435 397 L880 397 L880 356 L677 356 Q676 282 668 218 L936 218 L936 177 L689 177 Q733 93 802 36 Q872 -20 976 -52 Q950 -69 934 -91 Q724 -3 657 160 Q632 69 566 7 Q501 -54 388 -96 Q374 -78 340 -65 Q572 5 618 177 L383 177 L383 218 L625 218 Q629 252 631 284 Q632 316 632 356 L435 356 L435 397 ZM821 702 L494 702 L494 542 L821 542 L821 702 ZM155 268 Q196 240 256 194 Q318 348 324 529 L213 529 Q186 369 155 268 Z" /><glyph glyph-name="" unicode="&#x5b50;" d="M171 726 L811 726 L811 688 Q780 658 732 618 Q684 579 635 542 Q586 505 552 482 L552 370 L951 370 L951 326 L552 326 L552 24 Q552 -87 444 -86 Q422 -86 395 -84 Q367 -81 344 -78 Q339 -49 327 -28 Q352 -32 384 -36 Q417 -40 438 -40 Q507 -43 505 31 L505 326 L49 326 L49 370 L505 370 L505 506 Q537 526 582 559 Q627 592 670 626 Q713 660 739 683 L171 683 L171 726 Z" /><glyph glyph-name="" unicode="&#x5b54;" d="M37 276 L277 359 L277 513 Q324 555 366 600 Q408 645 430 678 L97 678 L97 719 L490 719 L490 682 Q462 643 411 585 Q360 528 322 494 L322 374 L531 446 L552 410 L322 328 L322 12 Q325 -85 230 -83 Q214 -83 192 -82 Q170 -80 152 -77 Q149 -54 134 -30 Q156 -34 184 -36 Q211 -39 231 -39 Q278 -41 277 13 L277 312 L70 239 L37 276 ZM603 786 L648 786 L648 40 Q647 -24 711 -22 L822 -23 Q850 -23 868 -7 Q885 7 895 48 Q904 85 910 137 Q927 115 949 106 Q945 69 936 31 Q910 -70 828 -66 L707 -67 Q600 -68 603 37 L603 786 Z" /><glyph glyph-name="" unicode="&#x5b57;" d="M59 241 L501 241 L501 335 Q548 359 599 391 Q649 422 681 446 L245 446 L245 487 L757 487 L757 453 Q711 412 652 374 Q594 336 546 311 L546 241 L938 241 L938 200 L546 200 L546 18 Q548 -85 438 -84 Q417 -84 393 -82 Q370 -80 354 -77 Q354 -54 340 -30 Q387 -39 438 -40 Q502 -40 501 20 L501 200 L59 200 L59 241 ZM103 658 L515 658 Q486 688 453 720 Q420 753 393 776 L431 800 Q459 778 495 743 Q532 708 558 676 L539 658 L894 658 L894 446 L849 446 L849 617 L148 617 L148 446 L103 446 L103 658 Z" /><glyph glyph-name="" unicode="&#x5b58;" d="M101 652 L396 652 Q434 730 456 807 L500 787 Q481 721 448 652 L924 652 L924 609 L427 609 Q367 493 282 391 L282 -96 L237 -96 L237 340 Q163 262 82 210 Q66 228 35 242 Q144 305 230 401 Q316 497 375 609 L101 609 L101 652 ZM431 466 L858 466 L858 429 Q785 356 692 290 L692 236 L935 236 L935 193 L692 193 L692 7 Q697 -87 590 -85 Q556 -84 521 -79 Q522 -59 509 -33 Q557 -41 588 -42 Q650 -43 647 10 L647 193 L378 193 L378 236 L647 236 L647 313 Q686 337 725 368 Q765 400 787 424 L431 424 L431 466 Z" /><glyph glyph-name="" unicode="&#x5b66;" d="M56 188 L511 188 L511 276 Q556 300 608 333 Q660 366 689 388 L250 388 L250 427 L763 427 L763 394 Q726 361 666 320 Q605 279 556 253 L556 188 L944 188 L944 147 L556 147 L556 2 Q557 -91 461 -90 Q439 -90 413 -88 Q386 -85 367 -83 Q364 -59 351 -35 Q375 -39 405 -43 Q434 -47 458 -47 Q510 -46 511 6 L511 147 L56 147 L56 188 ZM93 584 L622 584 Q667 624 718 683 Q769 742 795 784 L836 763 Q811 725 766 674 Q721 623 679 584 L904 584 L904 375 L859 375 L859 543 L138 543 L138 375 L93 375 L93 584 ZM161 758 L202 780 Q230 752 269 708 Q308 665 335 630 L305 599 Q274 638 235 681 Q196 725 161 758 ZM405 782 L443 800 Q468 773 499 732 Q530 692 553 655 L518 627 Q498 660 465 704 Q433 749 405 782 Z" /><glyph glyph-name="" unicode="&#x5b81;" d="M72 381 L928 381 L928 338 L545 338 L545 23 Q546 -89 430 -88 Q390 -88 344 -81 Q343 -59 329 -31 Q354 -36 381 -39 Q409 -43 429 -43 Q499 -46 498 29 L498 338 L72 338 L72 381 ZM104 658 L542 658 Q511 687 468 723 Q425 759 394 783 L431 808 Q460 788 500 754 Q540 720 570 691 L544 658 L895 658 L895 466 L850 466 L850 617 L149 617 L149 466 L104 466 L104 658 Z" /><glyph glyph-name="" unicode="&#x5b83;" d="M771 416 L810 382 Q749 350 660 313 Q571 277 481 246 Q391 215 328 198 L328 50 Q327 -22 401 -22 L713 -23 Q787 -23 806 36 Q811 54 816 79 Q821 105 826 130 Q845 109 866 100 Q857 55 844 15 Q816 -69 717 -66 L402 -67 Q280 -65 282 50 L282 505 L328 505 L328 241 Q400 261 486 291 Q571 322 648 355 Q725 388 771 416 ZM102 635 L901 635 L901 443 L856 443 L856 594 L147 594 L147 443 L102 443 L102 635 ZM403 780 L445 802 Q472 779 510 743 Q547 707 575 676 L546 640 Q515 675 475 714 Q435 754 403 780 Z" /><glyph glyph-name="" unicode="&#x5b89;" d="M442 557 L481 532 Q446 447 409 374 L937 374 L937 333 L740 333 Q696 174 578 75 Q660 43 739 10 Q818 -22 886 -52 L869 -100 Q702 -21 537 44 Q397 -50 124 -95 Q112 -72 85 -54 Q346 -19 487 65 Q356 117 228 163 Q288 246 336 333 L59 333 L59 374 L359 374 Q405 463 442 557 ZM530 93 Q648 182 693 333 L387 333 Q342 249 294 179 Q402 144 530 93 ZM133 647 L526 647 Q452 724 382 772 L420 800 Q455 774 495 740 Q534 706 560 678 L533 647 L867 647 L867 469 L821 469 L821 606 L178 606 L178 469 L133 469 L133 647 Z" /><glyph glyph-name="" unicode="&#x5b8c;" d="M130 309 L878 309 L878 268 L625 268 L625 28 Q627 -22 676 -23 L807 -24 Q864 -24 878 35 Q885 63 890 96 Q908 75 928 65 Q921 33 914 7 Q889 -70 806 -66 L677 -67 Q580 -66 580 25 L580 268 L430 268 Q428 227 426 197 Q410 73 333 2 Q255 -69 119 -97 Q107 -75 83 -58 Q216 -38 293 28 Q370 94 381 204 Q384 232 384 268 L130 268 L130 309 ZM120 664 L527 664 Q499 694 466 726 Q433 758 406 781 L444 803 Q471 781 507 747 Q542 713 569 682 L553 664 L888 664 L888 471 L843 471 L843 622 L165 622 L165 471 L120 471 L120 664 ZM248 489 L759 489 L759 448 L248 448 L248 489 Z" /><glyph glyph-name="" unicode="&#x5b98;" d="M241 509 L753 509 L753 299 L286 299 L286 202 L808 202 L808 -94 L763 -94 L763 -26 L286 -26 L286 -95 L241 -95 L241 509 ZM763 161 L286 161 L286 15 L763 15 L763 161 ZM286 468 L286 340 L708 340 L708 468 L286 468 ZM110 661 L553 661 Q519 691 480 721 Q440 751 402 776 L434 806 Q468 782 508 752 Q547 722 578 694 L556 661 L891 661 L891 498 L848 498 L848 621 L153 621 L153 498 L110 498 L110 661 Z" /><glyph glyph-name="" unicode="&#x5b9a;" d="M231 472 L786 472 L786 430 L536 430 L536 245 L842 245 L842 204 L536 204 L536 -6 Q562 -9 587 -12 Q671 -19 769 -20 Q866 -21 951 -16 Q934 -38 926 -68 Q751 -67 613 -59 Q479 -52 393 -9 Q307 33 258 115 Q209 -5 99 -95 Q84 -79 56 -73 Q150 2 198 93 Q246 184 259 304 L304 293 Q294 223 276 163 Q351 41 491 5 L491 430 L231 430 L231 472 ZM112 670 L525 670 Q502 699 474 730 Q447 761 422 785 L460 807 Q488 780 516 749 Q545 717 568 689 L548 670 L894 670 L894 461 L849 461 L849 629 L157 629 L157 461 L112 461 L112 670 Z" /><glyph glyph-name="" unicode="&#x5b9d;" d="M217 259 L474 259 L474 440 L203 440 L203 481 L796 481 L796 440 L519 440 L519 259 L782 259 L782 218 L519 218 L519 -18 L917 -18 L917 -59 L84 -59 L84 -18 L474 -18 L474 218 L217 218 L217 259 ZM397 781 L432 807 Q503 756 568 695 L548 669 L898 669 L898 476 L853 476 L853 628 L147 628 L147 476 L102 476 L102 669 L531 669 Q502 697 465 727 Q429 757 397 781 ZM623 154 L659 178 Q690 151 727 116 Q763 81 790 51 L765 17 Q732 53 695 89 Q658 125 623 154 Z" /><glyph glyph-name="" unicode="&#x5b9e;" d="M591 575 L636 570 Q634 522 629 462 Q624 402 618 352 Q606 267 576 198 L931 198 L931 157 L557 157 Q455 -28 169 -96 Q155 -73 131 -58 Q403 0 503 157 L75 157 L75 198 L526 198 Q561 267 573 357 Q587 468 591 575 ZM120 653 L551 653 Q517 683 474 716 Q430 750 398 773 L435 801 Q465 780 507 748 Q548 717 578 689 L555 653 L881 653 L881 464 L836 464 L836 612 L165 612 L165 468 L120 468 L120 653 ZM578 83 L612 114 Q681 79 763 30 Q845 -17 894 -52 L874 -97 Q840 -72 786 -37 Q732 -3 676 29 Q619 62 578 83 ZM231 374 L262 404 Q305 382 358 351 Q411 320 451 294 L432 256 Q388 286 333 318 Q278 350 231 374 ZM302 518 L332 547 Q369 526 417 495 Q466 464 498 439 L480 401 Q443 429 390 464 Q337 498 302 518 Z" /><glyph glyph-name="" unicode="&#x5ba1;" d="M476 586 L524 586 L524 482 L813 482 L813 20 L768 20 L768 78 L524 78 L524 -96 L476 -96 L476 78 L232 78 L232 20 L187 20 L187 482 L476 482 L476 586 ZM89 668 L516 668 Q485 695 447 726 Q409 756 381 774 L418 803 Q453 778 493 747 Q532 715 558 691 L539 668 L911 668 L911 500 L866 500 L866 626 L134 626 L134 500 L89 500 L89 668 ZM232 261 L232 119 L476 119 L476 261 L232 261 ZM524 261 L524 119 L768 119 L768 261 L524 261 ZM232 441 L232 300 L476 300 L476 441 L232 441 ZM768 441 L524 441 L524 300 L768 300 L768 441 Z" /><glyph glyph-name="" unicode="&#x5bab;" d="M180 203 L822 203 L822 -96 L777 -96 L777 -46 L225 -46 L225 -96 L180 -96 L180 203 ZM250 533 L751 533 L751 305 L250 305 L250 533 ZM225 162 L225 -5 L777 -5 L777 162 L225 162 ZM706 492 L295 492 L295 346 L706 346 L706 492 ZM394 775 L430 804 Q462 781 497 753 Q532 725 561 698 L545 675 L908 675 L908 477 L863 477 L863 634 L138 634 L138 477 L93 477 L93 675 L520 675 Q490 701 456 729 Q421 756 394 775 Z" /><glyph glyph-name="" unicode="&#x5bb3;" d="M205 177 L794 177 L794 -96 L749 -96 L749 -42 L250 -42 L250 -96 L205 -96 L205 177 ZM227 434 L478 434 L478 520 L211 520 L211 559 L478 559 L478 615 L522 615 L522 559 L789 559 L789 520 L522 520 L522 434 L772 434 L772 395 L522 395 L522 310 L921 310 L921 271 L522 271 L522 208 L478 208 L478 271 L78 271 L78 310 L478 310 L478 395 L227 395 L227 434 ZM250 136 L250 -3 L749 -3 L749 136 L250 136 ZM105 686 L518 686 Q454 741 392 780 L428 809 Q493 765 554 715 L533 686 L894 686 L894 521 L851 521 L851 647 L148 647 L148 521 L105 521 L105 686 Z" /><glyph glyph-name="" unicode="&#x5bb6;" d="M805 441 L843 416 Q814 387 770 355 Q727 323 679 293 Q727 190 801 122 Q875 55 959 28 Q927 10 913 -10 Q843 22 772 92 Q700 162 645 273 Q610 252 576 236 Q595 173 595 99 Q596 1 559 -43 Q522 -88 437 -87 Q415 -87 386 -84 Q383 -58 368 -34 Q405 -42 435 -43 Q498 -44 524 -10 Q551 22 550 98 Q550 151 538 200 Q495 146 428 96 Q361 46 286 7 Q211 -30 144 -50 Q135 -32 107 -16 Q186 3 269 45 Q351 88 420 141 Q489 193 525 243 Q513 279 492 311 Q423 244 316 188 Q209 131 105 102 Q96 119 68 138 Q173 160 286 217 Q399 274 470 341 Q446 370 417 394 Q350 350 273 318 Q196 286 126 269 Q119 286 89 306 Q190 322 296 372 Q402 423 473 489 L230 489 L230 530 L771 530 L771 489 L529 489 Q498 451 451 418 Q530 355 564 272 Q628 306 695 352 Q762 397 805 441 ZM111 680 L536 680 Q508 707 471 737 Q434 767 405 786 L444 813 Q475 792 509 764 Q544 736 570 710 L545 680 L888 680 L888 498 L843 498 L843 639 L156 639 L156 477 L111 477 L111 680 Z" /><glyph glyph-name="" unicode="&#x5bb9;" d="M244 226 L755 226 L755 -95 L710 -95 L710 -32 L289 -32 L289 -95 L244 -95 L244 226 ZM289 184 L289 9 L710 9 L710 184 L289 184 ZM117 680 L530 680 Q495 708 456 735 Q418 762 388 780 L423 810 Q500 761 564 709 L546 680 L882 680 L882 518 L837 518 L837 639 L162 639 L162 507 L117 507 L117 680 ZM506 487 L542 461 Q535 450 526 441 Q619 353 728 299 Q837 245 966 217 Q937 200 923 175 Q795 213 689 272 Q583 330 502 414 Q425 332 317 270 Q209 207 84 164 Q70 183 40 198 Q182 239 310 314 Q437 388 506 487 ZM378 578 L416 549 Q359 499 287 453 Q214 408 145 378 Q129 399 105 412 Q185 441 256 485 Q327 528 378 578 ZM593 541 L623 572 Q650 561 702 534 Q755 508 809 479 Q864 450 896 430 L882 387 Q851 406 796 436 Q741 466 684 495 Q628 525 593 541 Z" /><glyph glyph-name="" unicode="&#x5bbd;" d="M103 684 L525 684 Q498 708 464 734 Q431 759 405 777 L442 803 Q502 761 565 709 L546 684 L896 684 L896 537 L853 537 L853 645 L146 645 L146 531 L103 531 L103 684 ZM227 378 L780 378 L780 80 L735 80 L735 339 L272 339 L272 79 L227 79 L227 378 ZM605 614 L648 614 L648 532 L819 532 L819 493 L648 493 L648 412 L605 412 L605 493 L394 493 L394 412 L351 412 L351 493 L180 493 L180 532 L351 532 L351 614 L394 614 L394 532 L605 532 L605 614 ZM476 297 L521 292 Q514 226 498 174 Q461 50 365 -12 Q269 -75 103 -96 Q92 -71 70 -55 Q230 -39 325 18 Q420 76 455 185 Q472 236 476 297 ZM529 187 L573 187 L573 13 Q570 -31 623 -29 L801 -30 Q836 -30 853 -17 Q870 -5 878 30 Q887 67 890 90 Q905 70 928 59 Q923 34 918 17 Q905 -33 878 -52 Q851 -71 804 -70 L623 -71 Q526 -71 529 12 L529 187 Z" /><glyph glyph-name="" unicode="&#x5bc6;" d="M327 527 L370 527 L370 321 L370 306 Q471 355 552 417 Q632 480 681 549 L723 530 Q668 453 583 388 Q497 323 392 273 Q403 269 419 269 L623 269 Q690 267 708 331 Q715 352 721 378 Q733 353 756 342 Q749 319 741 299 Q726 260 699 244 Q672 228 630 229 L419 229 Q369 229 347 252 Q214 194 68 164 Q54 183 33 199 Q186 224 329 286 Q327 301 327 319 L327 527 ZM784 174 L827 174 L827 -96 L784 -96 L784 -56 L195 -56 L195 161 L238 161 L238 -17 L489 -17 L489 187 L532 187 L532 -17 L784 -17 L784 174 ZM401 775 L435 804 Q503 758 567 707 L546 678 L888 678 L888 506 L845 506 L845 639 L155 639 L155 494 L112 494 L112 678 L532 678 Q464 736 401 775 ZM232 495 L263 462 Q232 416 187 372 Q142 327 99 297 L75 331 Q117 361 161 406 Q205 450 232 495 ZM739 461 L777 484 Q862 412 937 333 L913 297 Q879 335 829 382 Q779 430 739 461 ZM401 579 L432 605 Q496 564 553 512 L531 473 Q500 502 466 529 Q432 557 401 579 Z" /><glyph glyph-name="" unicode="&#x5bcc;" d="M829 -96 L786 -96 L786 -47 L213 -47 L213 -96 L170 -96 L170 252 L829 252 L829 -96 ZM246 479 L753 479 L753 319 L246 319 L246 479 ZM95 693 L536 693 Q471 739 396 778 L431 806 Q463 790 499 768 Q535 746 567 724 L547 693 L906 693 L906 521 L863 521 L863 654 L138 654 L138 521 L95 521 L95 693 ZM710 442 L289 442 L289 356 L710 356 L710 442 ZM521 84 L521 -8 L786 -8 L786 84 L521 84 ZM213 84 L213 -8 L477 -8 L477 84 L213 84 ZM786 213 L521 213 L521 122 L786 122 L786 213 ZM213 213 L213 122 L477 122 L477 213 L213 213 ZM200 583 L799 583 L799 546 L200 546 L200 583 Z" /><glyph glyph-name="" unicode="&#x5bf8;" d="M633 791 L680 791 L680 568 L926 568 L926 524 L680 524 L680 28 Q680 -31 653 -58 Q626 -85 566 -84 Q510 -84 453 -77 Q449 -53 435 -28 Q504 -38 558 -39 Q637 -41 633 27 L633 524 L74 524 L74 568 L633 568 L633 791 ZM231 377 L273 400 Q312 359 362 298 Q411 237 445 189 L407 160 Q370 213 319 277 Q268 341 231 377 Z" /><glyph glyph-name="" unicode="&#x5bf9;" d="M87 481 L128 501 Q210 409 292 306 Q366 473 379 645 L86 645 L86 686 L425 686 L425 649 Q404 435 324 266 Q402 166 470 68 L441 31 Q379 121 301 222 Q219 68 85 -38 Q65 -22 38 -17 Q185 90 271 261 Q223 322 176 378 Q129 435 87 481 ZM765 791 L810 791 L810 575 L951 575 L951 534 L810 534 L810 22 Q812 -85 699 -87 Q662 -87 618 -82 Q618 -57 603 -34 Q631 -39 656 -41 Q681 -43 696 -43 Q767 -45 765 26 L765 534 L451 534 L451 575 L765 575 L765 791 ZM490 397 L531 415 Q557 382 595 326 Q633 269 658 229 L625 200 Q601 242 563 297 Q526 352 490 397 Z" /><glyph glyph-name="" unicode="&#x5bfc;" d="M57 244 L670 244 L670 351 L289 351 Q183 349 184 451 L184 742 L793 742 L793 525 L231 525 L231 453 Q230 393 293 394 L776 394 Q843 392 861 455 Q870 486 878 526 Q895 503 916 492 Q909 462 901 436 Q886 389 858 370 Q830 350 783 351 L717 351 L717 244 L944 244 L944 201 L717 201 L717 7 Q719 -94 624 -90 Q585 -89 540 -84 Q536 -59 523 -36 Q546 -40 573 -43 Q599 -47 617 -47 Q672 -50 670 9 L670 201 L57 201 L57 244 ZM231 701 L231 567 L748 567 L748 701 L231 701 ZM253 130 L286 159 Q328 133 371 100 Q415 67 445 38 L421 0 Q386 32 340 67 Q294 103 253 130 Z" /><glyph glyph-name="" unicode="&#x5c01;" d="M782 791 L827 791 L827 575 L949 575 L949 534 L827 534 L827 25 Q825 -90 714 -87 Q676 -87 630 -79 Q628 -55 618 -32 Q633 -35 664 -39 Q694 -42 711 -42 Q783 -47 782 30 L782 534 L531 534 L531 575 L782 575 L782 791 ZM285 376 L330 376 L330 248 L507 248 L507 209 L330 209 L330 41 L532 74 L553 36 L71 -48 L47 -5 L285 33 L285 209 L107 209 L107 248 L285 248 L285 376 ZM109 656 L285 656 L285 791 L330 791 L330 656 L505 656 L505 617 L330 617 L330 455 L541 455 L541 416 L62 416 L62 455 L285 455 L285 617 L109 617 L109 656 ZM556 397 L598 409 Q656 324 701 235 L666 207 Q643 252 615 301 Q587 351 556 397 Z" /><glyph glyph-name="" unicode="&#x5c06;" d="M497 564 L529 590 Q562 568 597 541 Q633 514 665 487 Q780 560 848 648 L539 648 Q477 587 390 536 Q380 554 354 565 Q528 664 604 798 L640 772 Q612 727 576 687 L903 687 L903 650 Q829 539 700 457 Q571 375 406 333 Q394 353 369 367 Q516 402 626 466 Q593 493 559 519 Q525 545 497 564 ZM42 135 L266 365 L266 793 L311 793 L311 -96 L266 -96 L266 304 L86 110 L42 135 ZM764 425 L809 425 L809 309 L951 309 L951 268 L809 268 L809 1 Q809 -84 718 -85 Q676 -84 633 -77 Q628 -54 616 -31 Q669 -41 715 -42 Q765 -45 764 14 L764 268 L356 268 L356 309 L764 309 L764 425 ZM69 650 L111 665 Q139 614 167 556 Q196 497 220 443 L181 420 Q157 477 128 537 Q98 598 69 650 ZM443 191 L477 218 Q512 189 549 155 Q586 120 616 88 L585 56 Q554 90 517 125 Q480 160 443 191 Z" /><glyph glyph-name="" unicode="&#x5c0f;" d="M229 571 L276 547 Q251 432 204 302 Q157 172 99 80 Q76 90 45 91 Q87 156 124 241 Q162 326 190 413 Q217 500 229 571 ZM486 787 L533 787 L533 20 Q532 -89 421 -87 Q378 -87 334 -80 Q332 -59 318 -32 Q341 -36 367 -39 Q393 -42 414 -42 Q490 -44 486 24 L486 787 ZM707 551 L755 563 Q782 511 819 426 Q857 342 894 254 Q931 166 954 102 L911 74 Q888 140 852 229 Q816 318 777 405 Q738 492 707 551 Z" /><glyph glyph-name="" unicode="&#x5c14;" d="M339 800 L382 776 Q356 711 320 648 L875 648 L875 610 L809 439 Q786 446 763 446 L825 605 L294 605 Q221 487 135 405 Q115 421 89 425 Q161 492 229 590 Q297 689 339 800 ZM490 501 L537 501 L537 20 Q538 -85 433 -84 Q393 -84 356 -79 Q354 -53 340 -30 Q394 -38 432 -39 Q492 -42 490 24 L490 501 ZM281 344 L326 329 Q291 243 232 155 Q173 66 117 12 Q97 27 71 31 Q137 96 194 181 Q250 266 281 344 ZM672 324 L714 343 Q759 291 819 209 Q880 127 927 56 L893 22 Q847 92 784 178 Q721 264 672 324 Z" /><glyph glyph-name="" unicode="&#x5c16;" d="M483 384 L528 379 Q526 321 520 274 L924 274 L924 232 L533 232 Q595 119 696 51 Q798 -16 948 -43 Q921 -59 909 -87 Q780 -60 672 12 Q563 85 503 199 L503 197 Q466 89 359 12 Q253 -63 84 -96 Q74 -69 47 -56 Q222 -26 326 45 Q430 117 462 216 Q464 223 466 232 L75 232 L75 274 L474 274 Q480 322 483 384 ZM477 794 L525 794 L525 423 L477 423 L477 794 ZM619 684 L654 711 Q786 608 903 492 L878 451 Q755 574 619 684 ZM328 712 L370 693 Q277 548 132 446 Q116 466 92 474 Q235 570 328 712 Z" /><glyph glyph-name="" unicode="&#x5c1d;" d="M590 126 L628 147 Q673 106 736 42 Q799 -21 839 -69 L808 -102 Q780 -69 749 -33 L258 -64 Q223 -65 189 -72 L171 -32 Q209 -20 249 15 Q282 45 329 98 Q376 152 415 205 L86 205 L86 246 L917 246 L917 205 L474 205 Q434 151 376 86 Q317 21 271 -20 L713 4 Q649 70 590 126 ZM478 796 L524 796 L524 590 L899 590 L899 388 L854 388 L854 549 L149 549 L149 388 L104 388 L104 590 L478 590 L478 796 ZM267 417 L735 417 L735 375 L267 375 L267 417 ZM770 774 L807 751 Q775 714 734 675 Q693 636 659 611 Q643 624 621 632 Q653 656 694 695 Q734 734 770 774 ZM204 747 L238 771 Q310 716 377 648 L351 613 Q317 648 278 684 Q239 720 204 747 Z" /><glyph glyph-name="" unicode="&#x5c31;" d="M129 499 L464 499 L464 276 L327 276 L327 6 Q329 -83 246 -79 Q223 -79 191 -75 Q187 -53 175 -30 Q194 -33 214 -36 Q233 -38 245 -38 Q284 -41 283 11 L283 276 L129 276 L129 499 ZM510 517 L627 517 L627 795 L671 795 L671 517 L932 517 L932 477 L671 477 Q669 404 666 355 Q665 339 663 325 Q648 191 599 88 Q550 -15 465 -97 Q444 -78 413 -74 Q528 30 577 156 Q626 281 627 477 L510 477 L510 517 ZM421 460 L172 460 L172 315 L421 315 L421 460 ZM707 413 L750 413 L750 16 Q750 -31 798 -30 L848 -31 Q893 -34 905 28 Q912 59 915 96 Q933 73 953 64 Q950 41 945 18 Q928 -74 850 -71 L794 -72 Q707 -71 707 14 L707 413 ZM52 636 L536 636 L536 597 L52 597 L52 636 ZM164 209 L203 194 Q162 81 82 -17 Q68 -2 40 1 Q127 102 164 209 ZM731 708 L767 728 Q801 699 831 665 Q861 631 882 602 L855 570 Q802 641 731 708 ZM224 774 L264 795 Q288 770 315 739 Q341 707 365 674 L333 644 Q310 677 279 713 Q249 749 224 774 ZM383 196 L422 213 Q471 146 503 81 L469 56 Q434 125 383 196 Z" /><glyph glyph-name="" unicode="&#x5c3a;" d="M207 729 L822 729 L822 422 L494 422 Q643 71 977 -25 Q947 -42 925 -68 Q745 5 629 129 Q514 252 450 422 L254 422 L254 348 Q254 219 211 107 Q167 -5 83 -86 Q65 -75 34 -68 Q117 2 162 109 Q207 215 207 345 L207 729 ZM254 686 L254 465 L777 465 L777 686 L254 686 Z" /><glyph glyph-name="" unicode="&#x5c40;" d="M186 742 L837 742 L837 528 L231 528 L231 409 L882 409 L873 24 Q868 -86 757 -87 Q740 -87 719 -86 Q698 -85 682 -83 Q680 -61 666 -37 Q689 -40 714 -42 Q738 -44 755 -44 Q828 -43 828 27 L836 368 L231 368 Q230 241 202 136 Q174 30 107 -69 Q87 -57 58 -54 Q128 37 157 145 Q187 252 186 407 L186 742 ZM331 266 L681 266 L681 46 L331 46 L331 266 ZM231 701 L231 570 L794 570 L794 701 L231 701 ZM638 227 L375 227 L375 85 L638 85 L638 227 Z" /><glyph glyph-name="" unicode="&#x5c42;" d="M171 742 L861 742 L861 521 L216 521 L216 384 Q217 263 188 141 Q159 19 84 -86 Q63 -73 35 -70 Q107 20 139 133 Q172 245 171 389 L171 742 ZM216 701 L216 562 L818 562 L818 701 L216 701 ZM659 133 L696 155 Q740 117 801 54 Q863 -9 906 -61 L877 -96 Q853 -66 824 -35 L357 -59 Q323 -60 288 -67 L270 -27 Q310 -15 347 20 Q377 49 421 99 Q464 149 504 200 L241 200 L241 241 L937 241 L937 200 L560 200 Q520 146 470 89 Q420 31 372 -15 L788 3 Q720 74 659 133 ZM324 408 L841 408 L841 367 L324 367 L324 408 Z" /><glyph glyph-name="" unicode="&#x5c45;" d="M294 223 L544 223 L544 349 L232 349 Q231 218 199 118 Q167 17 96 -77 Q76 -64 45 -64 Q123 28 156 133 Q189 239 188 389 L188 742 L851 742 L851 521 L589 521 L589 390 L921 390 L921 349 L589 349 L589 223 L845 223 L845 -97 L800 -97 L800 -31 L339 -31 L339 -97 L294 -97 L294 223 ZM233 701 L233 562 L808 562 L808 701 L233 701 ZM339 181 L339 10 L800 10 L800 181 L339 181 ZM233 521 L233 390 L544 390 L544 521 L233 521 Z" /><glyph glyph-name="" unicode="&#x5c4f;" d="M166 743 L867 743 L867 553 L211 553 L211 382 Q211 79 84 -82 Q62 -67 35 -66 Q102 9 134 117 Q166 226 166 382 L166 743 ZM228 192 L433 192 Q434 207 434 225 L434 345 L269 345 L269 384 L607 384 Q688 456 749 531 L788 508 Q730 442 665 384 L892 384 L892 345 L731 345 L731 192 L937 192 L937 153 L731 153 L731 -98 L688 -98 L688 153 L473 153 Q460 66 415 9 Q371 -47 294 -96 Q279 -80 248 -69 Q333 -23 375 30 Q418 83 428 153 L228 153 L228 192 ZM211 704 L211 592 L823 592 L823 704 L211 704 ZM477 227 Q477 209 476 192 L688 192 L688 345 L477 345 L477 227 ZM361 507 L397 529 Q462 483 520 424 L495 389 Q457 427 425 455 Q393 483 361 507 Z" /><glyph glyph-name="" unicode="&#x5c55;" d="M818 200 L855 175 Q827 147 791 119 Q755 92 722 73 Q836 -7 966 -36 Q942 -53 925 -77 Q792 -34 684 48 Q576 131 516 234 L378 234 L378 -18 L549 66 L575 36 L378 -67 Q358 -78 334 -100 L312 -63 Q325 -48 330 -34 Q334 -19 334 7 L334 234 L195 234 Q170 31 78 -89 Q54 -74 29 -73 Q94 3 127 114 Q159 225 159 382 L159 742 L843 742 L843 552 L204 552 L204 382 Q204 325 199 274 L396 274 L396 394 L261 394 L261 433 L396 433 L396 519 L439 519 L439 433 L660 433 L660 519 L703 519 L703 433 L855 433 L855 394 L703 394 L703 274 L912 274 L912 234 L560 234 Q609 161 690 96 Q770 148 818 200 ZM204 703 L204 591 L800 591 L800 703 L204 703 ZM439 394 L439 274 L660 274 L660 394 L439 394 Z" /><glyph glyph-name="" unicode="&#x5c61;" d="M166 743 L867 743 L867 580 L211 580 L211 381 Q211 79 84 -82 Q62 -67 35 -66 Q102 9 134 117 Q166 226 166 382 L166 743 ZM512 270 L551 249 Q530 217 508 186 L923 186 L923 147 L763 147 Q719 69 651 20 Q756 -8 878 -45 L872 -90 Q734 -44 603 -8 Q479 -71 251 -90 Q245 -70 223 -49 Q420 -35 539 8 Q443 34 341 56 Q388 102 425 147 L225 147 L225 186 L456 186 Q489 231 512 270 ZM551 549 L594 549 L594 425 L895 425 L895 386 L652 386 Q701 351 761 328 Q822 305 909 288 Q884 274 868 250 Q782 271 720 302 Q657 334 601 386 L594 386 L594 268 L551 268 L551 386 L548 386 Q490 327 424 293 Q358 258 266 238 Q251 257 225 272 Q317 291 383 319 Q449 346 499 386 L252 386 L252 425 L551 425 L551 549 ZM211 704 L211 619 L823 619 L823 704 L211 704 ZM596 35 Q670 78 713 147 L478 147 Q448 109 420 79 Q500 61 596 35 ZM767 547 L799 522 Q749 474 688 433 Q675 450 654 455 Q727 499 767 547 ZM330 523 L364 544 Q419 509 466 471 L443 437 Q393 485 330 523 Z" /><glyph glyph-name="" unicode="&#x5c71;" d="M819 606 L867 606 L867 -93 L819 -93 L819 -15 L133 -15 L133 606 L180 606 L180 29 L476 29 L476 781 L523 781 L523 29 L819 29 L819 606 Z" /><glyph glyph-name="" unicode="&#x5dde;" d="M148 531 L193 513 Q184 438 163 367 Q143 296 112 240 L73 268 Q105 320 124 392 Q143 464 148 531 ZM268 791 L313 791 L313 417 Q314 261 276 132 Q238 2 148 -98 Q126 -82 97 -76 Q190 11 229 138 Q269 265 268 419 L268 791 ZM367 479 L409 492 Q430 453 455 400 Q480 348 493 311 L457 285 Q439 330 415 382 Q391 434 367 479 ZM544 756 L589 756 L589 -58 L544 -58 L544 756 ZM632 479 L672 493 Q697 453 725 400 Q752 348 769 308 L732 281 Q713 324 687 379 Q660 433 632 479 ZM823 791 L868 791 L868 -90 L823 -90 L823 791 Z" /><glyph glyph-name="" unicode="&#x5de6;" d="M197 -11 L556 -11 L556 309 L329 309 Q237 155 84 33 Q65 49 35 59 Q174 164 261 289 Q349 415 394 576 L110 576 L110 619 L405 619 Q425 700 436 794 L483 783 Q473 697 454 619 L926 619 L926 576 L443 576 Q410 456 353 350 L845 350 L845 309 L601 309 L601 -11 L922 -11 L922 -54 L197 -54 L197 -11 Z" /><glyph glyph-name="" unicode="&#x5dee;" d="M202 506 L445 506 Q458 552 467 609 L152 609 L152 650 L569 650 Q600 679 638 723 Q676 766 699 802 L740 778 Q714 744 683 710 Q652 676 624 650 L874 650 L874 609 L512 609 Q503 554 491 506 L811 506 L811 465 L480 465 Q464 408 440 360 L933 360 L933 319 L419 319 Q382 253 329 199 L833 199 L833 158 L592 158 L592 -21 L918 -21 L918 -63 L183 -63 L183 -21 L547 -21 L547 158 L315 158 L315 185 Q224 100 84 32 Q72 50 44 66 Q159 121 238 182 Q316 243 366 319 L90 319 L90 360 L390 360 Q415 407 433 465 L202 465 L202 506 ZM274 771 L311 796 Q343 772 377 744 Q412 715 440 688 L417 652 Q384 682 345 715 Q306 748 274 771 Z" /><glyph glyph-name="" unicode="&#x5e02;" d="M378 772 L413 802 Q447 778 495 739 Q543 700 574 670 L554 642 L935 642 L935 599 L523 599 L523 435 L818 435 L818 110 Q816 21 724 19 Q695 19 656 24 Q657 46 645 69 Q690 63 721 62 Q773 62 772 115 L772 394 L523 394 L523 -96 L476 -96 L476 394 L230 394 L230 14 L184 14 L184 435 L476 435 L476 599 L64 599 L64 642 L537 642 Q503 674 458 711 Q412 749 378 772 Z" /><glyph glyph-name="" unicode="&#x5e03;" d="M528 531 L574 531 L574 407 L835 407 L835 89 Q833 0 744 -1 Q730 -1 710 0 Q691 1 678 3 Q678 26 668 47 Q711 41 741 40 Q792 40 792 93 L792 366 L574 366 L574 -96 L528 -96 L528 366 L314 366 L314 -11 L271 -11 L271 331 Q188 242 96 186 Q78 204 51 213 Q163 284 253 386 Q342 487 400 607 L79 607 L79 648 L419 648 Q453 726 471 809 L515 791 Q497 717 468 648 L942 648 L942 607 L450 607 Q402 498 331 407 L528 407 L528 531 Z" /><glyph glyph-name="" unicode="&#x5e26;" d="M703 796 L746 796 L746 661 L933 661 L933 619 L746 619 L746 490 L703 490 L703 619 L521 619 L521 497 L477 497 L477 619 L295 619 L295 489 L252 489 L252 619 L65 619 L65 661 L252 661 L252 796 L295 796 L295 661 L477 661 L477 796 L521 796 L521 661 L703 661 L703 796 ZM476 368 L522 368 L522 276 L787 276 L787 63 Q789 -28 700 -26 Q675 -27 646 -24 Q642 -2 628 19 Q665 16 698 15 Q743 12 742 67 L742 235 L522 235 L522 -96 L476 -96 L476 235 L261 235 L261 -20 L216 -20 L216 276 L476 276 L476 368 ZM90 452 L909 452 L909 278 L864 278 L864 411 L135 411 L135 278 L90 278 L90 452 Z" /><glyph glyph-name="" unicode="&#x5e2e;" d="M97 704 L308 704 L308 796 L351 796 L351 704 L532 704 L532 665 L351 665 L351 600 Q351 583 350 569 L503 569 L503 529 L348 529 Q342 472 329 426 L532 426 L532 387 L316 387 Q286 314 231 265 Q176 216 96 184 Q84 202 58 215 Q212 267 269 387 L71 387 L71 426 L284 426 Q299 472 304 529 L129 529 L129 569 L307 569 Q308 583 308 600 L308 665 L97 665 L97 704 ZM478 319 L524 319 L524 233 L800 233 L800 49 Q800 -41 703 -41 Q674 -41 641 -36 Q638 -15 626 6 Q666 0 699 0 Q757 1 757 52 L757 194 L524 194 L524 -96 L478 -96 L478 194 L263 194 L263 -40 L220 -40 L220 233 L478 233 L478 319 ZM604 735 L890 735 L890 701 L779 553 Q852 516 884 481 Q915 447 914 406 Q917 319 805 317 Q768 319 727 326 Q726 350 714 372 Q765 361 811 359 Q871 359 870 409 Q869 440 827 476 Q784 512 717 537 L832 696 L647 696 L647 284 L604 284 L604 735 Z" /><glyph glyph-name="" unicode="&#x5e38;" d="M256 490 L743 490 L743 295 L523 295 L523 200 L825 200 L825 73 Q823 -26 728 -26 Q700 -26 667 -19 Q664 2 652 25 Q696 15 724 15 Q783 13 782 72 L782 161 L523 161 L523 -97 L477 -97 L477 161 L224 161 L224 -30 L181 -30 L181 200 L477 200 L477 295 L256 295 L256 490 ZM477 798 L521 798 L521 619 L906 619 L906 445 L863 445 L863 580 L136 580 L136 445 L93 445 L93 619 L477 619 L477 798 ZM698 451 L301 451 L301 334 L698 334 L698 451 ZM186 759 L226 783 Q298 735 360 674 L335 636 Q301 670 261 703 Q221 736 186 759 ZM764 785 L801 762 Q739 687 670 635 Q654 649 631 657 Q697 705 764 785 Z" /><glyph glyph-name="" unicode="&#x5e45;" d="M454 339 L908 339 L908 -96 L865 -96 L865 -28 L497 -28 L497 -96 L454 -96 L454 339 ZM94 636 L217 636 L217 795 L258 795 L258 636 L382 636 L382 166 Q384 85 313 88 Q297 88 283 90 Q282 114 271 131 Q291 128 308 128 Q342 125 341 167 L341 597 L258 597 L258 -96 L217 -96 L217 597 L135 597 L135 81 L94 81 L94 636 ZM500 619 L861 619 L861 422 L500 422 L500 619 ZM818 580 L543 580 L543 462 L818 462 L818 580 ZM701 137 L701 11 L865 11 L865 137 L701 137 ZM497 137 L497 11 L660 11 L660 137 L497 137 ZM865 300 L701 300 L701 175 L865 175 L865 300 ZM497 300 L497 175 L660 175 L660 300 L497 300 ZM432 742 L929 742 L929 703 L432 703 L432 742 Z" /><glyph glyph-name="" unicode="&#x5e55;" d="M204 614 L327 614 L327 683 L78 683 L78 722 L327 722 L327 796 L370 796 L370 722 L625 722 L625 796 L669 796 L669 722 L920 722 L920 683 L669 683 L669 614 L791 614 L791 368 L472 368 Q449 329 417 295 L924 295 L924 256 L685 256 Q794 173 976 140 Q950 116 942 95 Q866 114 787 150 L787 37 Q786 -53 714 -49 Q669 -49 638 -44 Q638 -23 626 1 Q674 -6 706 -7 Q744 -7 744 39 L744 121 L523 121 L523 -96 L479 -96 L479 121 L271 121 L271 -49 L228 -49 L228 149 Q148 105 77 80 Q61 102 35 117 Q105 139 177 174 Q249 209 311 256 L76 256 L76 295 L357 295 Q394 329 421 368 L204 368 L204 614 ZM247 407 L748 407 L748 472 L247 472 L247 407 ZM479 228 L523 228 L523 160 L768 160 Q689 198 622 256 L378 256 Q316 201 246 160 L479 160 L479 228 ZM748 574 L247 574 L247 510 L748 510 L748 574 ZM370 683 L370 614 L625 614 L625 683 L370 683 Z" /><glyph glyph-name="" unicode="&#x5e73;" d="M53 288 L476 288 L476 686 L146 686 L146 729 L854 729 L854 686 L524 686 L524 288 L947 288 L947 245 L524 245 L524 -96 L476 -96 L476 245 L53 245 L53 288 ZM143 578 L182 601 Q209 577 246 541 Q283 504 318 468 Q353 431 374 407 L345 370 Q303 419 247 476 Q191 534 143 578 ZM805 604 L843 579 Q803 526 752 469 Q701 411 653 370 Q637 383 612 391 Q663 436 716 494 Q768 552 805 604 Z" /><glyph glyph-name="" unicode="&#x5e74;" d="M246 445 L535 445 L535 640 L280 640 Q213 528 124 451 Q107 468 77 472 Q156 536 214 621 Q272 706 303 803 L345 778 Q327 730 303 683 L888 683 L888 640 L582 640 L582 445 L859 445 L859 402 L582 402 L582 180 L946 180 L946 137 L582 137 L582 -96 L535 -96 L535 137 L55 137 L55 180 L246 180 L246 445 ZM291 402 L291 180 L535 180 L535 402 L291 402 Z" /><glyph glyph-name="" unicode="&#x5e76;" d="M131 590 L532 590 Q582 636 631 690 Q679 744 718 798 L757 773 Q722 728 677 679 Q632 630 590 590 L868 590 L868 549 L699 549 L699 302 L928 302 L928 261 L699 261 L699 -98 L654 -98 L654 261 L364 261 Q359 151 312 68 Q264 -15 152 -98 Q134 -82 104 -71 Q215 2 264 77 Q313 152 319 261 L75 261 L75 302 L321 302 L321 315 L321 549 L131 549 L131 590 ZM366 314 L366 302 L654 302 L654 549 L366 549 L366 314 ZM227 766 L266 790 Q298 763 343 721 Q388 678 417 646 L388 609 Q349 652 306 694 Q263 737 227 766 Z" /><glyph glyph-name="" unicode="&#x5e7f;" d="M177 645 L590 645 Q558 675 512 710 Q466 745 427 769 L463 797 Q499 775 541 743 Q583 711 616 682 L592 645 L908 645 L908 602 L224 602 L224 346 Q224 217 190 98 Q156 -19 94 -93 Q73 -80 43 -75 Q105 -11 141 98 Q176 209 177 348 L177 645 Z" /><glyph glyph-name="" unicode="&#x5e8f;" d="M310 555 L820 555 L820 519 Q735 445 619 378 Q653 361 679 345 L663 318 L924 318 L924 282 L859 148 Q837 157 814 156 L872 276 L618 276 L618 16 Q620 -91 522 -87 Q474 -87 429 -80 Q428 -58 413 -34 Q439 -39 467 -41 Q496 -44 516 -44 Q547 -45 560 -29 Q573 -14 573 25 L573 276 L246 276 L246 318 L645 318 Q593 348 536 377 Q478 406 426 428 L453 461 Q509 436 577 401 Q683 460 751 514 L310 514 L310 555 ZM151 683 L553 683 Q526 707 494 732 Q462 758 433 777 L470 804 Q502 782 537 754 Q572 727 598 703 L581 683 L929 683 L929 642 L196 642 L196 356 Q198 236 172 122 Q146 7 82 -89 Q63 -77 34 -70 Q100 20 126 125 Q152 229 151 360 L151 683 Z" /><glyph glyph-name="" unicode="&#x5e94;" d="M167 654 L566 654 Q504 723 434 779 L473 801 Q504 777 537 746 Q570 716 598 685 L574 654 L915 654 L915 613 L212 613 L212 341 Q211 222 178 101 Q145 -18 85 -91 Q62 -78 35 -75 Q93 -17 130 95 Q166 208 167 342 L167 654 ZM841 494 L880 469 Q845 356 792 229 Q738 103 676 -10 L940 -11 L940 -52 L231 -52 L231 -11 L626 -11 Q699 122 755 257 Q811 392 841 494 ZM267 420 L312 425 Q392 276 456 120 L419 91 Q353 259 267 420 ZM469 496 L512 502 Q548 439 581 366 Q614 293 638 225 L601 196 Q576 268 541 347 Q506 426 469 496 Z" /><glyph glyph-name="" unicode="&#x5e95;" d="M831 561 L865 521 Q775 502 640 488 Q648 378 664 288 L912 288 L912 247 L672 247 Q704 98 779 2 Q812 -36 835 -35 Q855 -37 870 12 Q880 44 888 88 Q905 65 925 57 Q918 21 910 -6 Q883 -87 837 -83 Q791 -86 744 -25 Q663 75 626 247 L374 247 L374 23 L538 125 L567 94 L380 -22 Q354 -38 332 -64 L307 -31 Q330 -5 329 37 L329 513 Q412 514 509 520 Q605 526 692 537 Q779 547 831 561 ZM169 679 L562 679 Q531 705 495 730 Q459 756 427 775 L462 803 Q533 762 597 708 L578 679 L921 679 L921 639 L214 639 L214 340 Q214 199 184 93 Q154 -11 91 -95 Q68 -80 40 -78 Q103 -11 136 89 Q169 191 169 341 L169 679 ZM374 473 L374 288 L619 288 Q603 377 595 484 Q482 475 374 473 ZM513 1 L545 26 Q604 -14 656 -63 L635 -101 Q579 -45 513 1 Z" /><glyph glyph-name="" unicode="&#x5e97;" d="M543 568 L588 568 L588 435 L911 435 L911 394 L588 394 L588 251 L843 251 L843 -97 L798 -97 L798 -31 L364 -31 L364 -97 L319 -97 L319 251 L543 251 L543 568 ZM364 210 L364 10 L798 10 L798 210 L364 210 ZM173 653 L581 653 Q508 721 436 768 L474 795 Q548 745 612 685 L588 653 L914 653 L914 612 L218 612 L218 347 Q221 83 100 -77 Q77 -65 50 -62 Q112 12 143 109 Q173 206 173 348 L173 653 Z" /><glyph glyph-name="" unicode="&#x5ea6;" d="M278 258 L811 258 L811 222 Q738 116 617 41 Q749 -19 952 -45 Q931 -63 921 -89 Q717 -59 570 15 Q417 -62 209 -97 Q203 -76 178 -57 Q378 -27 523 42 Q408 112 337 219 L278 219 L278 258 ZM395 613 L438 613 L438 524 L698 524 L698 613 L741 613 L741 524 L894 524 L894 485 L741 485 L741 333 L395 333 L395 485 L239 485 L239 524 L395 524 L395 613 ZM152 684 L555 684 Q505 737 448 780 L486 805 Q515 782 545 755 Q574 729 598 704 L580 684 L909 684 L909 643 L197 643 L197 355 Q199 235 173 118 Q147 1 83 -95 Q64 -83 35 -76 Q101 14 127 121 Q153 228 152 359 L152 684 ZM753 219 L390 219 Q461 127 569 66 Q689 134 753 219 ZM438 373 L698 373 L698 485 L438 485 L438 373 Z" /><glyph glyph-name="" unicode="&#x5eb7;" d="M228 439 L528 439 L528 527 L283 527 L283 567 L528 567 L528 652 L190 652 L190 359 Q190 222 165 107 Q140 -7 83 -90 Q64 -77 35 -73 Q92 3 119 109 Q145 215 145 360 L145 691 L549 691 Q522 713 486 737 Q450 762 417 780 L451 808 Q487 790 523 766 Q559 741 590 715 L570 691 L897 691 L897 652 L572 652 L572 567 L816 567 L816 439 L921 439 L921 400 L816 400 L816 272 L574 272 Q604 200 660 142 Q742 189 804 244 L842 218 Q764 155 686 115 Q796 16 944 -17 Q916 -34 902 -54 Q678 18 572 194 L572 2 Q574 -90 476 -90 Q467 -90 447 -88 Q428 -87 413 -83 Q410 -60 400 -39 Q415 -43 440 -46 Q464 -49 476 -49 Q529 -50 528 5 L528 272 L283 272 L283 311 L528 311 L528 400 L228 400 L228 439 ZM572 311 L774 311 L774 400 L572 400 L572 311 ZM774 527 L572 527 L572 439 L774 439 L774 527 ZM195 -18 L483 141 L512 118 L237 -46 L195 -18 ZM271 223 L304 247 Q334 231 369 207 Q403 183 430 158 L408 123 Q379 149 341 176 Q302 204 271 223 Z" /><glyph glyph-name="" unicode="&#x5ef6;" d="M117 250 L146 281 Q200 196 247 143 Q289 232 297 366 L185 366 Q157 366 134 361 L117 396 Q134 402 145 413 Q157 423 170 444 L298 657 L94 657 L94 698 L353 698 L353 664 L199 407 L341 407 L341 366 Q332 211 280 109 Q326 65 374 43 Q422 21 479 12 Q540 3 630 -1 Q719 -6 807 -7 Q896 -7 954 -3 Q935 -26 930 -55 Q865 -55 788 -53 Q710 -51 638 -47 Q565 -43 516 -38 Q434 -29 372 -4 Q310 21 258 69 Q199 -22 94 -89 Q77 -74 47 -66 Q160 -1 226 101 Q172 159 117 250 ZM444 505 L489 505 L489 172 L638 172 L638 659 Q581 651 527 646 Q472 641 429 639 Q421 662 401 681 Q523 686 635 701 Q746 717 828 742 L863 701 Q793 681 683 665 L683 453 L873 453 L873 412 L683 412 L683 172 L883 172 L883 130 L444 130 L444 505 Z" /><glyph glyph-name="" unicode="&#x5efa;" d="M336 560 L578 560 L578 660 L386 660 L386 699 L578 699 L578 794 L622 794 L622 699 L835 699 L835 560 L932 560 L932 521 L835 521 L835 381 L622 381 L622 287 L851 287 L851 248 L622 248 L622 154 L896 154 L896 115 L622 115 L622 15 L578 15 L578 115 L336 115 L336 154 L578 154 L578 248 L378 248 L378 287 L578 287 L578 381 L386 381 L386 421 L578 421 L578 521 L336 521 L336 560 ZM102 253 L133 281 Q178 206 221 154 Q264 253 270 377 L167 377 Q139 376 111 374 L96 409 Q115 413 127 423 Q139 432 150 453 L266 668 L91 668 L91 708 L319 708 L319 676 L177 417 L313 417 L313 378 Q303 231 253 119 Q316 52 394 21 Q472 -9 581 -15 Q674 -20 777 -20 Q879 -19 945 -14 Q923 -33 918 -66 Q856 -66 776 -66 Q696 -65 622 -63 Q492 -59 399 -27 Q305 5 232 78 Q175 -26 81 -93 Q63 -75 35 -69 Q139 -3 201 111 Q150 169 102 253 ZM792 660 L622 660 L622 560 L792 560 L792 660 ZM622 421 L792 421 L792 521 L622 521 L622 421 Z" /></font>
</defs>
</svg>
